FK-Kaisei-shared-W5.ufo
<glyph name="exclam" format="2">
  <advance width="394"/>
  <unicode hex="0021"/>
  <note>
cid00002
</note>
  <outline>
    <contour>
      <point x="257" y="690" type="curve" smooth="yes"/>
      <point x="257" y="719"/>
      <point x="239" y="745"/>
      <point x="197" y="745" type="curve" smooth="yes"/>
      <point x="164" y="745"/>
      <point x="137" y="730"/>
      <point x="137" y="690" type="curve" smooth="yes"/>
      <point x="137" y="666"/>
      <point x="142" y="640"/>
      <point x="145" y="610" type="curve" smooth="yes"/>
      <point x="157" y="474"/>
      <point x="172" y="350"/>
      <point x="182" y="216" type="curve"/>
      <point x="212" y="216" type="line"/>
      <point x="226" y="356"/>
      <point x="239" y="508"/>
      <point x="249" y="613" type="curve" smooth="yes"/>
      <point x="251" y="628"/>
      <point x="257" y="676"/>
    </contour>
    <contour>
      <point x="270" y="79" type="curve" smooth="yes"/>
      <point x="270" y="118"/>
      <point x="238" y="149"/>
      <point x="197" y="149" type="curve" smooth="yes"/>
      <point x="156" y="149"/>
      <point x="124" y="118"/>
      <point x="124" y="79" type="curve" smooth="yes"/>
      <point x="124" y="40"/>
      <point x="156" y="8"/>
      <point x="197" y="8" type="curve" smooth="yes"/>
      <point x="238" y="8"/>
      <point x="270" y="40"/>
    </contour>
  </outline>
</glyph>
<glyph name="quotedbl" format="2">
  <advance width="390"/>
  <unicode hex="0022"/>
  <note>
cid00003
</note>
  <outline>
    <contour>
      <point x="162" y="694" type="curve" smooth="yes"/>
      <point x="162" y="712"/>
      <point x="146" y="734"/>
      <point x="115" y="734" type="curve" smooth="yes"/>
      <point x="82" y="734"/>
      <point x="67" y="716"/>
      <point x="67" y="694" type="curve" smooth="yes"/>
      <point x="67" y="683"/>
      <point x="75" y="638"/>
      <point x="79" y="591" type="curve" smooth="yes"/>
      <point x="84" y="544"/>
      <point x="93" y="492"/>
      <point x="99" y="464" type="curve" smooth="yes"/>
      <point x="102" y="448"/>
      <point x="109" y="442"/>
      <point x="114" y="442" type="curve" smooth="yes"/>
      <point x="119" y="442"/>
      <point x="126" y="448"/>
      <point x="129" y="464" type="curve" smooth="yes"/>
      <point x="135" y="493"/>
      <point x="141" y="537"/>
      <point x="148" y="585" type="curve" smooth="yes"/>
      <point x="155" y="635"/>
      <point x="162" y="684"/>
    </contour>
    <contour>
      <point x="323" y="694" type="curve" smooth="yes"/>
      <point x="323" y="715"/>
      <point x="309" y="734"/>
      <point x="277" y="734" type="curve" smooth="yes"/>
      <point x="240" y="734"/>
      <point x="228" y="716"/>
      <point x="228" y="694" type="curve" smooth="yes"/>
      <point x="228" y="683"/>
      <point x="236" y="639"/>
      <point x="242" y="591" type="curve" smooth="yes"/>
      <point x="247" y="543"/>
      <point x="255" y="497"/>
      <point x="260" y="464" type="curve" smooth="yes"/>
      <point x="263" y="446"/>
      <point x="269" y="442"/>
      <point x="276" y="442" type="curve" smooth="yes"/>
      <point x="279" y="442"/>
      <point x="288" y="448"/>
      <point x="291" y="464" type="curve" smooth="yes"/>
      <point x="297" y="493"/>
      <point x="304" y="543"/>
      <point x="311" y="591" type="curve" smooth="yes"/>
      <point x="316" y="632"/>
      <point x="323" y="676"/>
    </contour>
  </outline>
</glyph>
<glyph name="numbersign" format="2">
  <advance width="788"/>
  <unicode hex="0023"/>
  <note>
cid00004
</note>
  <outline>
    <contour>
      <point x="730" y="252" type="line"/>
      <point x="730" y="309" type="line"/>
      <point x="549" y="309" type="line"/>
      <point x="574" y="509" type="line"/>
      <point x="730" y="509" type="line"/>
      <point x="730" y="567" type="line"/>
      <point x="581" y="567" type="line"/>
      <point x="605" y="780" type="line"/>
      <point x="548" y="780" type="line"/>
      <point x="522" y="567" type="line"/>
      <point x="307" y="567" type="line"/>
      <point x="333" y="780" type="line"/>
      <point x="274" y="780" type="line"/>
      <point x="248" y="567" type="line"/>
      <point x="70" y="567" type="line"/>
      <point x="70" y="509" type="line"/>
      <point x="241" y="509" type="line"/>
      <point x="217" y="309" type="line"/>
      <point x="70" y="309" type="line"/>
      <point x="70" y="252" type="line"/>
      <point x="210" y="252" type="line"/>
      <point x="176" y="-10" type="line"/>
      <point x="236" y="-10" type="line"/>
      <point x="268" y="252" type="line"/>
      <point x="484" y="252" type="line"/>
      <point x="451" y="-10" type="line"/>
      <point x="510" y="-10" type="line"/>
      <point x="542" y="252" type="line"/>
    </contour>
    <contour>
      <point x="300" y="509" type="line"/>
      <point x="515" y="509" type="line"/>
      <point x="491" y="309" type="line"/>
      <point x="275" y="309" type="line"/>
    </contour>
  </outline>
</glyph>
<glyph name="dollar" format="2">
  <advance width="739"/>
  <unicode hex="0024"/>
  <note>
cid00005
</note>
  <outline>
    <contour>
      <point x="615" y="197" type="curve" smooth="yes"/>
      <point x="615" y="261"/>
      <point x="589" y="307"/>
      <point x="548" y="342" type="curve" smooth="yes"/>
      <point x="506" y="378"/>
      <point x="446" y="403"/>
      <point x="385" y="431" type="curve"/>
      <point x="385" y="720" type="line"/>
      <point x="414" y="714"/>
      <point x="445" y="695"/>
      <point x="463" y="681" type="curve" smooth="yes"/>
      <point x="489" y="661"/>
      <point x="504" y="637"/>
      <point x="513" y="608" type="curve" smooth="yes"/>
      <point x="518" y="592"/>
      <point x="520" y="579"/>
      <point x="523" y="561" type="curve" smooth="yes"/>
      <point x="523" y="558"/>
      <point x="524" y="555"/>
      <point x="524" y="553" type="curve" smooth="yes"/>
      <point x="525" y="547"/>
      <point x="527" y="541"/>
      <point x="543" y="541" type="curve" smooth="yes"/>
      <point x="570" y="541"/>
      <point x="576" y="551"/>
      <point x="576" y="566" type="curve" smooth="yes"/>
      <point x="576" y="571"/>
      <point x="575" y="577"/>
      <point x="573" y="582" type="curve"/>
      <point x="569" y="603"/>
      <point x="561" y="674"/>
      <point x="558" y="702" type="curve"/>
      <point x="528" y="704"/>
      <point x="500" y="710"/>
      <point x="486" y="716" type="curve" smooth="yes"/>
      <point x="459" y="729"/>
      <point x="426" y="742"/>
      <point x="385" y="744" type="curve"/>
      <point x="385" y="812" type="line"/>
      <point x="343" y="812" type="line"/>
      <point x="343" y="745" type="line"/>
      <point x="214" y="734"/>
      <point x="131" y="664"/>
      <point x="131" y="557" type="curve" smooth="yes"/>
      <point x="131" y="484"/>
      <point x="201" y="425"/>
      <point x="268" y="394" type="curve" smooth="yes"/>
      <point x="343" y="357" type="line"/>
      <point x="343" y="36" type="line"/>
      <point x="242" y="44"/>
      <point x="201" y="85"/>
      <point x="183" y="148" type="curve" smooth="yes"/>
      <point x="178" y="163"/>
      <point x="173" y="179"/>
      <point x="171" y="197" type="curve" smooth="yes"/>
      <point x="169" y="210"/>
      <point x="163" y="223"/>
      <point x="145" y="223" type="curve" smooth="yes"/>
      <point x="130" y="223"/>
      <point x="126" y="218"/>
      <point x="124" y="211" type="curve" smooth="yes"/>
      <point x="123" y="204"/>
      <point x="125" y="195"/>
      <point x="125" y="186" type="curve" smooth="yes"/>
      <point x="125" y="178"/>
      <point x="127" y="170"/>
      <point x="128" y="163" type="curve" smooth="yes"/>
      <point x="133" y="126"/>
      <point x="141" y="90"/>
      <point x="146" y="54" type="curve"/>
      <point x="181" y="46"/>
      <point x="201" y="32"/>
      <point x="231" y="21" type="curve" smooth="yes"/>
      <point x="267" y="7"/>
      <point x="304" y="4"/>
      <point x="343" y="3" type="curve"/>
      <point x="343" y="-70" type="line"/>
      <point x="385" y="-70" type="line"/>
      <point x="385" y="5" type="line"/>
      <point x="505" y="17"/>
      <point x="615" y="69"/>
    </contour>
    <contour>
      <point x="343" y="721" type="curve"/>
      <point x="343" y="451" type="line"/>
      <point x="252" y="506"/>
      <point x="226" y="540"/>
      <point x="226" y="593" type="curve" smooth="yes"/>
      <point x="226" y="675"/>
      <point x="272" y="706"/>
    </contour>
    <contour>
      <point x="508" y="184" type="curve" smooth="yes"/>
      <point x="508" y="98"/>
      <point x="464" y="63"/>
      <point x="385" y="37" type="curve"/>
      <point x="385" y="335" type="line"/>
      <point x="457" y="295"/>
      <point x="508" y="259"/>
    </contour>
  </outline>
</glyph>
<glyph name="percent" format="2">
  <advance width="887"/>
  <unicode hex="0025"/>
  <note>
cid00006
</note>
  <outline>
    <contour>
      <point x="149" y="-25" type="line"/>
      <point x="768" y="725" type="line"/>
      <point x="739" y="753" type="line"/>
      <point x="119" y="-1" type="line"/>
    </contour>
    <contour>
      <point x="420" y="541" type="curve" smooth="yes"/>
      <point x="420" y="646"/>
      <point x="342" y="738"/>
      <point x="243" y="738" type="curve" smooth="yes"/>
      <point x="157" y="738"/>
      <point x="68" y="638"/>
      <point x="68" y="541" type="curve" smooth="yes"/>
      <point x="68" y="442"/>
      <point x="151" y="353"/>
      <point x="243" y="353" type="curve" smooth="yes"/>
      <point x="328" y="353"/>
      <point x="420" y="444"/>
    </contour>
    <contour>
      <point x="333" y="541" type="curve" smooth="yes"/>
      <point x="333" y="469"/>
      <point x="331" y="380"/>
      <point x="243" y="380" type="curve" smooth="yes"/>
      <point x="175" y="380"/>
      <point x="152" y="460"/>
      <point x="152" y="541" type="curve" smooth="yes"/>
      <point x="152" y="614"/>
      <point x="156" y="713"/>
      <point x="243" y="713" type="curve" smooth="yes"/>
      <point x="331" y="713"/>
      <point x="333" y="613"/>
    </contour>
    <contour>
      <point x="832" y="194" type="curve" smooth="yes"/>
      <point x="832" y="300"/>
      <point x="754" y="391"/>
      <point x="654" y="391" type="curve" smooth="yes"/>
      <point x="569" y="391"/>
      <point x="480" y="290"/>
      <point x="480" y="194" type="curve" smooth="yes"/>
      <point x="480" y="95"/>
      <point x="562" y="7"/>
      <point x="654" y="7" type="curve" smooth="yes"/>
      <point x="739" y="7"/>
      <point x="832" y="98"/>
    </contour>
    <contour>
      <point x="746" y="194" type="curve" smooth="yes"/>
      <point x="746" y="121"/>
      <point x="743" y="34"/>
      <point x="654" y="34" type="curve" smooth="yes"/>
      <point x="587" y="34"/>
      <point x="564" y="113"/>
      <point x="564" y="194" type="curve" smooth="yes"/>
      <point x="564" y="267"/>
      <point x="567" y="366"/>
      <point x="654" y="366" type="curve" smooth="yes"/>
      <point x="744" y="366"/>
      <point x="746" y="268"/>
    </contour>
  </outline>
</glyph>
<glyph name="ampersand" format="2">
  <advance width="757"/>
  <unicode hex="0026"/>
  <note>
cid00007
</note>
  <outline>
    <contour>
      <point x="755" y="32" type="curve"/>
      <point x="740" y="26"/>
      <point x="722" y="20"/>
      <point x="703" y="20" type="curve" smooth="yes"/>
      <point x="647" y="20"/>
      <point x="584" y="53"/>
      <point x="543" y="88" type="curve"/>
      <point x="600" y="138"/>
      <point x="619" y="200"/>
      <point x="619" y="275" type="curve" smooth="yes"/>
      <point x="619" y="316"/>
      <point x="573" y="363"/>
      <point x="520" y="377" type="curve"/>
      <point x="577" y="380"/>
      <point x="613" y="384"/>
      <point x="650" y="384" type="curve" smooth="yes"/>
      <point x="666" y="384" type="line" smooth="yes"/>
      <point x="671" y="384"/>
      <point x="675" y="384"/>
      <point x="678" y="385" type="curve" smooth="yes"/>
      <point x="685" y="386"/>
      <point x="689" y="389"/>
      <point x="695" y="401" type="curve" smooth="yes"/>
      <point x="702" y="413"/>
      <point x="726" y="470"/>
      <point x="726" y="477" type="curve" smooth="yes"/>
      <point x="726" y="490"/>
      <point x="718" y="492"/>
      <point x="712" y="492" type="curve" smooth="yes"/>
      <point x="710" y="492"/>
      <point x="709" y="491"/>
      <point x="707" y="489" type="curve" smooth="yes"/>
      <point x="703" y="486"/>
      <point x="699" y="481"/>
      <point x="695" y="476" type="curve" smooth="yes"/>
      <point x="683" y="462"/>
      <point x="666" y="445"/>
      <point x="657" y="437" type="curve" smooth="yes"/>
      <point x="643" y="426"/>
      <point x="627" y="419"/>
      <point x="610" y="415" type="curve" smooth="yes"/>
      <point x="573" y="406"/>
      <point x="523" y="403"/>
      <point x="482" y="403" type="curve" smooth="yes"/>
      <point x="467" y="403"/>
      <point x="468" y="382"/>
      <point x="468" y="371" type="curve" smooth="yes"/>
      <point x="468" y="368"/>
      <point x="468" y="367"/>
      <point x="471" y="367" type="curve" smooth="yes"/>
      <point x="477" y="367"/>
      <point x="482" y="368"/>
      <point x="488" y="368" type="curve" smooth="yes"/>
      <point x="521" y="368"/>
      <point x="537" y="296"/>
      <point x="537" y="271" type="curve" smooth="yes"/>
      <point x="537" y="225"/>
      <point x="532" y="170"/>
      <point x="503" y="122" type="curve"/>
      <point x="419" y="200"/>
      <point x="342" y="322"/>
      <point x="302" y="420" type="curve"/>
      <point x="318" y="433"/>
      <point x="334" y="444"/>
      <point x="351" y="453" type="curve" smooth="yes"/>
      <point x="411" y="486"/>
      <point x="492" y="537"/>
      <point x="492" y="614" type="curve" smooth="yes"/>
      <point x="492" y="685"/>
      <point x="425" y="723"/>
      <point x="366" y="723" type="curve" smooth="yes"/>
      <point x="308" y="723"/>
      <point x="249" y="702"/>
      <point x="210" y="653" type="curve" smooth="yes"/>
      <point x="186" y="622"/>
      <point x="170" y="583"/>
      <point x="170" y="543" type="curve" smooth="yes"/>
      <point x="170" y="494"/>
      <point x="183" y="447"/>
      <point x="202" y="401" type="curve"/>
      <point x="125" y="346"/>
      <point x="56" y="263"/>
      <point x="56" y="166" type="curve" smooth="yes"/>
      <point x="56" y="43"/>
      <point x="163" y="-20"/>
      <point x="270" y="-20" type="curve" smooth="yes"/>
      <point x="346" y="-20"/>
      <point x="416" y="-6"/>
      <point x="486" y="44" type="curve"/>
      <point x="534" y="-2"/>
      <point x="601" y="-25"/>
      <point x="658" y="-25" type="curve" smooth="yes"/>
      <point x="691" y="-25"/>
      <point x="749" y="-8"/>
    </contour>
    <contour>
      <point x="397" y="627" type="curve" smooth="yes"/>
      <point x="397" y="565"/>
      <point x="340" y="501"/>
      <point x="288" y="458" type="curve"/>
      <point x="268" y="499"/>
      <point x="258" y="541"/>
      <point x="258" y="579" type="curve" smooth="yes"/>
      <point x="258" y="627"/>
      <point x="283" y="692"/>
      <point x="347" y="692" type="curve" smooth="yes"/>
      <point x="375" y="692"/>
      <point x="397" y="652"/>
    </contour>
    <contour>
      <point x="452" y="65" type="curve"/>
      <point x="407" y="31"/>
      <point x="361" y="26"/>
      <point x="310" y="26" type="curve" smooth="yes"/>
      <point x="210" y="26"/>
      <point x="160" y="109"/>
      <point x="160" y="196" type="curve" smooth="yes"/>
      <point x="160" y="249"/>
      <point x="184" y="312"/>
      <point x="224" y="364" type="curve"/>
      <point x="265" y="255"/>
      <point x="361" y="123"/>
    </contour>
  </outline>
</glyph>
<glyph name="quotesingle" format="2">
  <advance width="280"/>
  <unicode hex="0027"/>
  <note>
cid00008
</note>
  <outline>
    <contour>
      <point x="186" y="694" type="curve" smooth="yes"/>
      <point x="186" y="712"/>
      <point x="171" y="734"/>
      <point x="141" y="734" type="curve" smooth="yes"/>
      <point x="108" y="734"/>
      <point x="94" y="716"/>
      <point x="94" y="694" type="curve" smooth="yes"/>
      <point x="94" y="683"/>
      <point x="101" y="638"/>
      <point x="106" y="591" type="curve" smooth="yes"/>
      <point x="111" y="544"/>
      <point x="119" y="492"/>
      <point x="125" y="464" type="curve" smooth="yes"/>
      <point x="128" y="448"/>
      <point x="135" y="442"/>
      <point x="140" y="442" type="curve" smooth="yes"/>
      <point x="145" y="442"/>
      <point x="152" y="448"/>
      <point x="155" y="464" type="curve" smooth="yes"/>
      <point x="160" y="493"/>
      <point x="166" y="537"/>
      <point x="173" y="585" type="curve" smooth="yes"/>
      <point x="180" y="635"/>
      <point x="186" y="684"/>
    </contour>
  </outline>
</glyph>
<glyph name="parenleft" format="2">
  <advance width="442"/>
  <unicode hex="0028"/>
  <note>
cid00009
</note>
  <outline>
    <contour>
      <point x="391" y="-109" type="curve"/>
      <point x="407" y="-82" type="line"/>
      <point x="359" y="-48"/>
      <point x="218" y="80"/>
      <point x="218" y="370" type="curve" smooth="yes"/>
      <point x="218" y="666"/>
      <point x="353" y="794"/>
      <point x="404" y="832" type="curve"/>
      <point x="391" y="859" type="line"/>
      <point x="311" y="808"/>
      <point x="135" y="675"/>
      <point x="135" y="364" type="curve" smooth="yes"/>
      <point x="135" y="47"/>
      <point x="331" y="-74"/>
    </contour>
  </outline>
</glyph>
<glyph name="parenright" format="2">
  <advance width="442"/>
  <unicode hex="0029"/>
  <note>
cid00010
</note>
  <outline>
    <contour>
      <point x="308" y="364" type="curve" smooth="yes"/>
      <point x="308" y="675"/>
      <point x="132" y="808"/>
      <point x="52" y="859" type="curve"/>
      <point x="39" y="832" type="line"/>
      <point x="90" y="794"/>
      <point x="225" y="666"/>
      <point x="225" y="370" type="curve" smooth="yes"/>
      <point x="225" y="80"/>
      <point x="88" y="-47"/>
      <point x="40" y="-81" type="curve"/>
      <point x="52" y="-109" type="line"/>
      <point x="112" y="-74"/>
      <point x="308" y="47"/>
    </contour>
  </outline>
</glyph>
<glyph name="asterisk" format="2">
  <advance width="500"/>
  <unicode hex="002A"/>
  <note>
cid00011
</note>
  <outline>
    <contour>
      <point x="419" y="508" type="curve" smooth="yes"/>
      <point x="419" y="519"/>
      <point x="413" y="531"/>
      <point x="402" y="537" type="curve"/>
      <point x="400" y="539"/>
      <point x="399" y="539"/>
      <point x="396" y="540" type="curve" smooth="yes"/>
      <point x="383" y="543"/>
      <point x="372" y="548"/>
      <point x="359" y="552" type="curve" smooth="yes"/>
      <point x="314" y="568" type="line" smooth="yes"/>
      <point x="299" y="573"/>
      <point x="283" y="579"/>
      <point x="265" y="587" type="curve"/>
      <point x="306" y="606"/>
      <point x="352" y="621"/>
      <point x="396" y="637" type="curve"/>
      <point x="398" y="637"/>
      <point x="399" y="638"/>
      <point x="401" y="639" type="curve" smooth="yes"/>
      <point x="411" y="645"/>
      <point x="417" y="658"/>
      <point x="417" y="670" type="curve" smooth="yes"/>
      <point x="417" y="688"/>
      <point x="403" y="701"/>
      <point x="384" y="701" type="curve" smooth="yes"/>
      <point x="374" y="701"/>
      <point x="367" y="697"/>
      <point x="362" y="693" type="curve" smooth="yes"/>
      <point x="328" y="663"/>
      <point x="297" y="631"/>
      <point x="257" y="602" type="curve"/>
      <point x="263" y="649"/>
      <point x="273" y="697"/>
      <point x="282" y="741" type="curve"/>
      <point x="283" y="743"/>
      <point x="283" y="744"/>
      <point x="283" y="745" type="curve" smooth="yes"/>
      <point x="283" y="762"/>
      <point x="268" y="781"/>
      <point x="249" y="781" type="curve" smooth="yes"/>
      <point x="230" y="781"/>
      <point x="215" y="764"/>
      <point x="215" y="747" type="curve" smooth="yes"/>
      <point x="215" y="745"/>
      <point x="216" y="743"/>
      <point x="216" y="741" type="curve"/>
      <point x="225" y="696"/>
      <point x="236" y="649"/>
      <point x="242" y="602" type="curve"/>
      <point x="223" y="615"/>
      <point x="206" y="629"/>
      <point x="189" y="643" type="curve" smooth="yes"/>
      <point x="171" y="660"/>
      <point x="154" y="677"/>
      <point x="137" y="692" type="curve" smooth="yes"/>
      <point x="132" y="697"/>
      <point x="122" y="699"/>
      <point x="115" y="699" type="curve" smooth="yes"/>
      <point x="96" y="699"/>
      <point x="81" y="687"/>
      <point x="81" y="668" type="curve" smooth="yes"/>
      <point x="81" y="661"/>
      <point x="85" y="641"/>
      <point x="100" y="637" type="curve" smooth="yes"/>
      <point x="149" y="622"/>
      <point x="193" y="607"/>
      <point x="235" y="588" type="curve"/>
      <point x="198" y="568"/>
      <point x="140" y="549"/>
      <point x="103" y="539" type="curve" smooth="yes"/>
      <point x="90" y="535"/>
      <point x="81" y="520"/>
      <point x="81" y="505" type="curve" smooth="yes"/>
      <point x="81" y="488"/>
      <point x="96" y="474"/>
      <point x="115" y="474" type="curve" smooth="yes"/>
      <point x="123" y="474"/>
      <point x="131" y="477"/>
      <point x="135" y="481" type="curve" smooth="yes"/>
      <point x="191" y="532" type="line" smooth="yes"/>
      <point x="209" y="548"/>
      <point x="226" y="563"/>
      <point x="242" y="574" type="curve"/>
      <point x="239" y="536"/>
      <point x="230" y="499"/>
      <point x="225" y="467" type="curve" smooth="yes"/>
      <point x="223" y="457"/>
      <point x="217" y="440"/>
      <point x="217" y="430" type="curve" smooth="yes"/>
      <point x="217" y="412"/>
      <point x="228" y="394"/>
      <point x="251" y="394" type="curve" smooth="yes"/>
      <point x="270" y="394"/>
      <point x="284" y="411"/>
      <point x="284" y="428" type="curve" smooth="yes"/>
      <point x="284" y="438" type="line"/>
      <point x="276" y="479"/>
      <point x="262" y="537"/>
      <point x="257" y="574" type="curve"/>
      <point x="292" y="546"/>
      <point x="327" y="516"/>
      <point x="360" y="486" type="curve" smooth="yes"/>
      <point x="367" y="480"/>
      <point x="375" y="477"/>
      <point x="385" y="477" type="curve" smooth="yes"/>
      <point x="404" y="477"/>
      <point x="419" y="489"/>
    </contour>
  </outline>
</glyph>
<glyph name="plus" format="2">
  <advance width="700"/>
  <unicode hex="002B"/>
  <note>
cid00012
</note>
  <outline>
    <contour>
      <point x="377" y="326" type="line"/>
      <point x="604" y="326" type="line"/>
      <point x="604" y="374" type="line"/>
      <point x="377" y="374" type="line"/>
      <point x="377" y="608" type="line"/>
      <point x="323" y="608" type="line"/>
      <point x="323" y="374" type="line"/>
      <point x="96" y="374" type="line"/>
      <point x="96" y="326" type="line"/>
      <point x="323" y="326" type="line"/>
      <point x="323" y="78" type="line"/>
      <point x="377" y="78" type="line"/>
    </contour>
  </outline>
</glyph>
<glyph name="comma" format="2">
  <advance width="390"/>
  <unicode hex="002C"/>
  <note>
cid00013
</note>
  <outline>
    <contour>
      <point x="264" y="65" type="curve" smooth="yes"/>
      <point x="264" y="113"/>
      <point x="244" y="154"/>
      <point x="192" y="154" type="curve" smooth="yes"/>
      <point x="151" y="154"/>
      <point x="126" y="122"/>
      <point x="126" y="85" type="curve" smooth="yes"/>
      <point x="126" y="69"/>
      <point x="137" y="37"/>
      <point x="161" y="33" type="curve" smooth="yes"/>
      <point x="169" y="31"/>
      <point x="174" y="32"/>
      <point x="180" y="35" type="curve" smooth="yes"/>
      <point x="188" y="38"/>
      <point x="189" y="37"/>
      <point x="199" y="37" type="curve" smooth="yes"/>
      <point x="205" y="37"/>
      <point x="206" y="31"/>
      <point x="206" y="23" type="curve" smooth="yes"/>
      <point x="206" y="-6"/>
      <point x="181" y="-78"/>
      <point x="154" y="-108" type="curve"/>
      <point x="190" y="-117" type="line"/>
      <point x="228" y="-73"/>
      <point x="264" y="8"/>
    </contour>
  </outline>
</glyph>
<glyph name="period" format="2">
  <advance width="390"/>
  <unicode hex="002E"/>
  <note>
cid00015
</note>
  <outline>
    <contour>
      <point x="268" y="72" type="curve" smooth="yes"/>
      <point x="268" y="110"/>
      <point x="236" y="142"/>
      <point x="195" y="142" type="curve" smooth="yes"/>
      <point x="154" y="142"/>
      <point x="122" y="110"/>
      <point x="122" y="72" type="curve" smooth="yes"/>
      <point x="122" y="34"/>
      <point x="154" y="3"/>
      <point x="195" y="3" type="curve" smooth="yes"/>
      <point x="236" y="3"/>
      <point x="268" y="34"/>
    </contour>
  </outline>
</glyph>
<glyph name="slash" format="2">
  <advance width="500"/>
  <unicode hex="002F"/>
  <note>
cid00016
</note>
  <outline>
    <contour>
      <point x="90" y="-63" type="line"/>
      <point x="451" y="793" type="line"/>
      <point x="409" y="813" type="line"/>
      <point x="49" y="-43" type="line"/>
    </contour>
  </outline>
</glyph>
<glyph name="zero" format="2">
  <advance width="582"/>
  <unicode hex="0030"/>
  <note>
cid00017
</note>
  <outline>
    <contour>
      <point x="538" y="380" type="curve" smooth="yes"/>
      <point x="538" y="524"/>
      <point x="485" y="737"/>
      <point x="301" y="737" type="curve" smooth="yes"/>
      <point x="119" y="737"/>
      <point x="44" y="533"/>
      <point x="44" y="355" type="curve" smooth="yes"/>
      <point x="44" y="162"/>
      <point x="131" y="9"/>
      <point x="283" y="9" type="curve" smooth="yes"/>
      <point x="476" y="9"/>
      <point x="538" y="232"/>
    </contour>
    <contour>
      <point x="429" y="367" type="curve" smooth="yes"/>
      <point x="429" y="278"/>
      <point x="415" y="41"/>
      <point x="285" y="41" type="curve" smooth="yes"/>
      <point x="171" y="41"/>
      <point x="149" y="236"/>
      <point x="149" y="360" type="curve" smooth="yes"/>
      <point x="149" y="453"/>
      <point x="167" y="705"/>
      <point x="292" y="705" type="curve" smooth="yes"/>
      <point x="427" y="705"/>
      <point x="429" y="463"/>
    </contour>
  </outline>
</glyph>
<glyph name="one" format="2">
  <advance width="582"/>
  <unicode hex="0031"/>
  <note>
cid00018
</note>
  <outline>
    <contour>
      <point x="481" y="23" type="curve" smooth="yes"/>
      <point x="481" y="32"/>
      <point x="477" y="40"/>
      <point x="469" y="40" type="curve" smooth="yes"/>
      <point x="460" y="40"/>
      <point x="448" y="39"/>
      <point x="440" y="39" type="curve" smooth="yes"/>
      <point x="411" y="38" type="line" smooth="yes"/>
      <point x="388" y="38"/>
      <point x="365" y="48"/>
      <point x="365" y="63" type="curve" smooth="yes"/>
      <point x="364" y="99" type="line"/>
      <point x="365" y="361" type="line" smooth="yes"/>
      <point x="365" y="455"/>
      <point x="367" y="564"/>
      <point x="367" y="648" type="curve" smooth="yes"/>
      <point x="367" y="663"/>
      <point x="367" y="680"/>
      <point x="368" y="691" type="curve" smooth="yes"/>
      <point x="368" y="701"/>
      <point x="368" y="713"/>
      <point x="369" y="728" type="curve" smooth="yes"/>
      <point x="370" y="741"/>
      <point x="366" y="748"/>
      <point x="356" y="748" type="curve" smooth="yes"/>
      <point x="350" y="748"/>
      <point x="349" y="750"/>
      <point x="343" y="747" type="curve" smooth="yes"/>
      <point x="336" y="744"/>
      <point x="324" y="741"/>
      <point x="306" y="733" type="curve" smooth="yes"/>
      <point x="280" y="723"/>
      <point x="248" y="712"/>
      <point x="222" y="704" type="curve" smooth="yes"/>
      <point x="184" y="691"/>
      <point x="146" y="676"/>
      <point x="113" y="667" type="curve" smooth="yes"/>
      <point x="105" y="665"/>
      <point x="95" y="660"/>
      <point x="95" y="652" type="curve" smooth="yes"/>
      <point x="95" y="645"/>
      <point x="96" y="639"/>
      <point x="100" y="634" type="curve" smooth="yes"/>
      <point x="106" y="626"/>
      <point x="113" y="624"/>
      <point x="122" y="627" type="curve" smooth="yes"/>
      <point x="156" y="641"/>
      <point x="203" y="658"/>
      <point x="239" y="670" type="curve" smooth="yes"/>
      <point x="250" y="674"/>
      <point x="254" y="668"/>
      <point x="254" y="659" type="curve" smooth="yes"/>
      <point x="255" y="396" type="line"/>
      <point x="254" y="97" type="line"/>
      <point x="253" y="63" type="line" smooth="yes"/>
      <point x="253" y="37"/>
      <point x="208" y="38"/>
      <point x="172" y="38" type="curve" smooth="yes"/>
      <point x="150" y="39" type="line" smooth="yes"/>
      <point x="142" y="39"/>
      <point x="138" y="34"/>
      <point x="138" y="23" type="curve" smooth="yes"/>
      <point x="138" y="13"/>
      <point x="142" y="6"/>
      <point x="153" y="6" type="curve" smooth="yes"/>
      <point x="157" y="6" type="line"/>
      <point x="167" y="8"/>
      <point x="177" y="8"/>
      <point x="187" y="8" type="curve" smooth="yes"/>
      <point x="245" y="11"/>
      <point x="263" y="11"/>
      <point x="307" y="11" type="curve" smooth="yes"/>
      <point x="350" y="11"/>
      <point x="411" y="9"/>
      <point x="435" y="9" type="curve" smooth="yes"/>
      <point x="446" y="8"/>
      <point x="458" y="6"/>
      <point x="469" y="7" type="curve" smooth="yes"/>
      <point x="476" y="7"/>
      <point x="481" y="13"/>
    </contour>
  </outline>
</glyph>
<glyph name="two" format="2">
  <advance width="582"/>
  <unicode hex="0032"/>
  <note>
cid00019
</note>
  <outline>
    <contour>
      <point x="544" y="162" type="curve" smooth="yes"/>
      <point x="545" y="165"/>
      <point x="540" y="170"/>
      <point x="536" y="172" type="curve" smooth="yes"/>
      <point x="529" y="174"/>
      <point x="523" y="172"/>
      <point x="520" y="168" type="curve" smooth="yes"/>
      <point x="482" y="108"/>
      <point x="426" y="91"/>
      <point x="357" y="89" type="curve" smooth="yes"/>
      <point x="320" y="89"/>
      <point x="275" y="87"/>
      <point x="232" y="87" type="curve" smooth="yes"/>
      <point x="117" y="84" type="line" smooth="yes"/>
      <point x="108" y="84"/>
      <point x="111" y="92"/>
      <point x="112" y="95" type="curve" smooth="yes"/>
      <point x="119" y="113"/>
      <point x="144" y="142"/>
      <point x="160" y="159" type="curve" smooth="yes"/>
      <point x="180" y="180"/>
      <point x="217" y="212"/>
      <point x="246" y="233" type="curve" smooth="yes"/>
      <point x="283" y="261"/>
      <point x="345" y="297"/>
      <point x="386" y="329" type="curve" smooth="yes"/>
      <point x="472" y="397"/>
      <point x="516" y="461"/>
      <point x="516" y="558" type="curve" smooth="yes"/>
      <point x="516" y="655"/>
      <point x="427" y="731"/>
      <point x="314" y="731" type="curve" smooth="yes"/>
      <point x="219" y="731"/>
      <point x="128" y="693"/>
      <point x="84" y="629" type="curve" smooth="yes"/>
      <point x="69" y="606"/>
      <point x="59" y="579"/>
      <point x="59" y="549" type="curve" smooth="yes"/>
      <point x="59" y="526"/>
      <point x="66" y="504"/>
      <point x="96" y="499" type="curve" smooth="yes"/>
      <point x="143" y="491"/>
      <point x="155" y="513"/>
      <point x="155" y="533" type="curve" smooth="yes"/>
      <point x="155" y="552"/>
      <point x="157" y="568"/>
      <point x="160" y="587" type="curve" smooth="yes"/>
      <point x="164" y="604"/>
      <point x="169" y="623"/>
      <point x="179" y="639" type="curve" smooth="yes"/>
      <point x="209" y="686"/>
      <point x="250" y="697"/>
      <point x="295" y="697" type="curve" smooth="yes"/>
      <point x="376" y="697"/>
      <point x="403" y="634"/>
      <point x="403" y="553" type="curve" smooth="yes"/>
      <point x="403" y="480"/>
      <point x="357" y="409"/>
      <point x="315" y="368" type="curve" smooth="yes"/>
      <point x="268" y="323"/>
      <point x="183" y="244"/>
      <point x="131" y="183" type="curve" smooth="yes"/>
      <point x="99" y="145"/>
      <point x="82" y="122"/>
      <point x="68" y="95" type="curve" smooth="yes"/>
      <point x="56" y="72"/>
      <point x="50" y="54"/>
      <point x="50" y="25" type="curve" smooth="yes"/>
      <point x="50" y="19"/>
      <point x="57" y="9"/>
      <point x="73" y="11" type="curve" smooth="yes"/>
      <point x="87" y="12"/>
      <point x="133" y="13"/>
      <point x="163" y="13" type="curve" smooth="yes"/>
      <point x="202" y="14"/>
      <point x="240" y="14"/>
      <point x="264" y="14" type="curve" smooth="yes"/>
      <point x="304" y="14" type="line" smooth="yes"/>
      <point x="316" y="14"/>
      <point x="326" y="15"/>
      <point x="336" y="15" type="curve" smooth="yes"/>
      <point x="360" y="16"/>
      <point x="384" y="16"/>
      <point x="424" y="14" type="curve" smooth="yes"/>
      <point x="480" y="11" type="line" smooth="yes"/>
      <point x="487" y="11"/>
      <point x="489" y="12"/>
      <point x="493" y="13" type="curve" smooth="yes"/>
      <point x="500" y="15"/>
      <point x="503" y="20"/>
      <point x="504" y="26" type="curve" smooth="yes"/>
      <point x="511" y="52"/>
      <point x="516" y="77"/>
      <point x="523" y="101" type="curve" smooth="yes"/>
      <point x="528" y="120"/>
      <point x="532" y="127"/>
      <point x="536" y="141" type="curve" smooth="yes"/>
      <point x="538" y="146"/>
      <point x="543" y="157"/>
    </contour>
  </outline>
</glyph>
<glyph name="three" format="2">
  <advance width="582"/>
  <unicode hex="0033"/>
  <note>
cid00020
</note>
  <outline>
    <contour>
      <point x="534" y="250" type="curve" smooth="yes"/>
      <point x="534" y="317"/>
      <point x="490" y="371"/>
      <point x="422" y="395" type="curve" smooth="yes"/>
      <point x="406" y="401"/>
      <point x="368" y="406"/>
      <point x="339" y="407" type="curve"/>
      <point x="376" y="417"/>
      <point x="406" y="432"/>
      <point x="431" y="453" type="curve" smooth="yes"/>
      <point x="475" y="492"/>
      <point x="499" y="541"/>
      <point x="499" y="582" type="curve" smooth="yes"/>
      <point x="499" y="668"/>
      <point x="423" y="739"/>
      <point x="308" y="739" type="curve" smooth="yes"/>
      <point x="225" y="739"/>
      <point x="141" y="715"/>
      <point x="91" y="651" type="curve" smooth="yes"/>
      <point x="78" y="634"/>
      <point x="66" y="601"/>
      <point x="66" y="591" type="curve" smooth="yes"/>
      <point x="66" y="571"/>
      <point x="73" y="553"/>
      <point x="100" y="544" type="curve" smooth="yes"/>
      <point x="105" y="542"/>
      <point x="120" y="540"/>
      <point x="129" y="541" type="curve" smooth="yes"/>
      <point x="147" y="543"/>
      <point x="151" y="553"/>
      <point x="151" y="563" type="curve" smooth="yes"/>
      <point x="151" y="642"/>
      <point x="191" y="706"/>
      <point x="280" y="706" type="curve" smooth="yes"/>
      <point x="364" y="706"/>
      <point x="394" y="648"/>
      <point x="394" y="567" type="curve" smooth="yes"/>
      <point x="394" y="527"/>
      <point x="383" y="490"/>
      <point x="365" y="467" type="curve" smooth="yes"/>
      <point x="344" y="441"/>
      <point x="318" y="431"/>
      <point x="291" y="423" type="curve" smooth="yes"/>
      <point x="275" y="419"/>
      <point x="232" y="418"/>
      <point x="213" y="417" type="curve" smooth="yes"/>
      <point x="208" y="417"/>
      <point x="204" y="418"/>
      <point x="199" y="418" type="curve" smooth="yes"/>
      <point x="194" y="418"/>
      <point x="189" y="417"/>
      <point x="186" y="411" type="curve" smooth="yes"/>
      <point x="184" y="407"/>
      <point x="183" y="401"/>
      <point x="183" y="396" type="curve"/>
      <point x="182" y="392"/>
      <point x="181" y="373"/>
      <point x="200" y="376" type="curve" smooth="yes"/>
      <point x="211" y="378"/>
      <point x="218" y="381"/>
      <point x="228" y="383" type="curve" smooth="yes"/>
      <point x="242" y="386"/>
      <point x="276" y="389"/>
      <point x="283" y="389" type="curve" smooth="yes"/>
      <point x="347" y="389"/>
      <point x="420" y="352"/>
      <point x="420" y="238" type="curve" smooth="yes"/>
      <point x="420" y="156"/>
      <point x="399" y="96"/>
      <point x="349" y="64" type="curve" smooth="yes"/>
      <point x="320" y="45"/>
      <point x="286" y="36"/>
      <point x="230" y="36" type="curve" smooth="yes"/>
      <point x="168" y="36"/>
      <point x="135" y="97"/>
      <point x="131" y="150" type="curve" smooth="yes"/>
      <point x="131" y="164"/>
      <point x="121" y="181"/>
      <point x="86" y="178" type="curve" smooth="yes"/>
      <point x="55" y="174"/>
      <point x="42" y="155"/>
      <point x="42" y="130" type="curve" smooth="yes"/>
      <point x="42" y="97"/>
      <point x="65" y="4"/>
      <point x="237" y="4" type="curve" smooth="yes"/>
      <point x="310" y="4"/>
      <point x="380" y="21"/>
      <point x="432" y="56" type="curve" smooth="yes"/>
      <point x="495" y="99"/>
      <point x="534" y="163"/>
    </contour>
  </outline>
</glyph>
<glyph name="four" format="2">
  <advance width="582"/>
  <unicode hex="0034"/>
  <note>
cid00021
</note>
  <outline>
    <contour>
      <point x="560" y="264" type="curve" smooth="yes"/>
      <point x="566" y="281" type="line" smooth="yes"/>
      <point x="567" y="285"/>
      <point x="564" y="289"/>
      <point x="559" y="291" type="curve" smooth="yes"/>
      <point x="551" y="294"/>
      <point x="548" y="290"/>
      <point x="543" y="283" type="curve" smooth="yes"/>
      <point x="537" y="273"/>
      <point x="527" y="258"/>
      <point x="492" y="258" type="curve" smooth="yes"/>
      <point x="434" y="258" type="line"/>
      <point x="434" y="722" type="line" smooth="yes"/>
      <point x="434" y="727"/>
      <point x="447" y="739"/>
      <point x="426" y="739" type="curve" smooth="yes"/>
      <point x="374" y="739" type="line" smooth="yes"/>
      <point x="366" y="739"/>
      <point x="359" y="732"/>
      <point x="354" y="723" type="curve" smooth="yes"/>
      <point x="256" y="574"/>
      <point x="22" y="242"/>
      <point x="22" y="242" type="curve"/>
      <point x="19" y="237"/>
      <point x="17" y="235"/>
      <point x="16" y="232" type="curve" smooth="yes"/>
      <point x="13" y="224"/>
      <point x="12" y="207"/>
      <point x="35" y="207" type="curve" smooth="yes"/>
      <point x="331" y="207" type="line"/>
      <point x="331" y="60" type="line" smooth="yes"/>
      <point x="331" y="47"/>
      <point x="327" y="37"/>
      <point x="297" y="36" type="curve" smooth="yes"/>
      <point x="286" y="35"/>
      <point x="277" y="35"/>
      <point x="265" y="35" type="curve" smooth="yes"/>
      <point x="243" y="36" type="line" smooth="yes"/>
      <point x="234" y="36"/>
      <point x="230" y="31"/>
      <point x="230" y="20" type="curve" smooth="yes"/>
      <point x="230" y="10"/>
      <point x="234" y="3"/>
      <point x="245" y="3" type="curve" smooth="yes"/>
      <point x="249" y="3" type="line" smooth="yes"/>
      <point x="259" y="4"/>
      <point x="270" y="5"/>
      <point x="280" y="5" type="curve" smooth="yes"/>
      <point x="338" y="8"/>
      <point x="341" y="8"/>
      <point x="385" y="8" type="curve" smooth="yes"/>
      <point x="429" y="8"/>
      <point x="464" y="6"/>
      <point x="488" y="5" type="curve" smooth="yes"/>
      <point x="499" y="5"/>
      <point x="511" y="3"/>
      <point x="523" y="3" type="curve" smooth="yes"/>
      <point x="530" y="4"/>
      <point x="535" y="10"/>
      <point x="535" y="20" type="curve" smooth="yes"/>
      <point x="535" y="29"/>
      <point x="531" y="37"/>
      <point x="522" y="37" type="curve" smooth="yes"/>
      <point x="514" y="37"/>
      <point x="502" y="35"/>
      <point x="493" y="35" type="curve" smooth="yes"/>
      <point x="470" y="35" type="line" smooth="yes"/>
      <point x="448" y="35"/>
      <point x="434" y="45"/>
      <point x="434" y="60" type="curve" smooth="yes"/>
      <point x="434" y="207" type="line"/>
      <point x="528" y="207" type="line" smooth="yes"/>
      <point x="544" y="207"/>
      <point x="547" y="209"/>
      <point x="548" y="215" type="curve"/>
      <point x="549" y="217"/>
      <point x="549" y="219"/>
      <point x="550" y="222" type="curve" smooth="yes"/>
      <point x="553" y="233"/>
      <point x="557" y="253"/>
    </contour>
    <contour>
      <point x="331" y="331" type="curve" smooth="yes"/>
      <point x="331" y="258" type="line"/>
      <point x="82" y="258" type="line"/>
      <point x="331" y="614" type="line"/>
      <point x="332" y="520"/>
      <point x="331" y="421"/>
    </contour>
  </outline>
</glyph>
<glyph name="five" format="2">
  <advance width="582"/>
  <unicode hex="0035"/>
  <note>
cid00022
</note>
  <outline>
    <contour>
      <point x="537" y="264" type="curve" smooth="yes"/>
      <point x="537" y="323"/>
      <point x="512" y="387"/>
      <point x="470" y="426" type="curve" smooth="yes"/>
      <point x="438" y="455"/>
      <point x="390" y="473"/>
      <point x="347" y="475" type="curve" smooth="yes"/>
      <point x="325" y="475"/>
      <point x="291" y="476"/>
      <point x="255" y="467" type="curve" smooth="yes"/>
      <point x="224" y="459"/>
      <point x="185" y="440"/>
      <point x="152" y="416" type="curve"/>
      <point x="157" y="510"/>
      <point x="162" y="587"/>
      <point x="163" y="662" type="curve"/>
      <point x="342" y="662" type="line" smooth="yes"/>
      <point x="363" y="662"/>
      <point x="392" y="662"/>
      <point x="412" y="660" type="curve" smooth="yes"/>
      <point x="427" y="659"/>
      <point x="441" y="660"/>
      <point x="456" y="658" type="curve" smooth="yes"/>
      <point x="478" y="656"/>
      <point x="487" y="661"/>
      <point x="493" y="670" type="curve" smooth="yes"/>
      <point x="505" y="690"/>
      <point x="518" y="719"/>
      <point x="524" y="736" type="curve" smooth="yes"/>
      <point x="526" y="742"/>
      <point x="526" y="745"/>
      <point x="524" y="747" type="curve"/>
      <point x="523" y="749"/>
      <point x="520" y="749"/>
      <point x="517" y="750" type="curve"/>
      <point x="509" y="751"/>
      <point x="501" y="751"/>
      <point x="496" y="747" type="curve"/>
      <point x="492" y="745"/>
      <point x="486" y="743"/>
      <point x="483" y="740" type="curve"/>
      <point x="469" y="730"/>
      <point x="420" y="723"/>
      <point x="368" y="723" type="curve" smooth="yes"/>
      <point x="224" y="723" type="line" smooth="yes"/>
      <point x="189" y="723"/>
      <point x="158" y="723"/>
      <point x="98" y="730" type="curve"/>
      <point x="101" y="706"/>
      <point x="102" y="686"/>
      <point x="103" y="668" type="curve" smooth="yes"/>
      <point x="103" y="596" type="line" smooth="yes"/>
      <point x="103" y="546"/>
      <point x="99" y="407"/>
      <point x="82" y="345" type="curve" smooth="yes"/>
      <point x="81" y="341"/>
      <point x="78" y="334"/>
      <point x="80" y="330" type="curve" smooth="yes"/>
      <point x="82" y="325"/>
      <point x="88" y="322"/>
      <point x="97" y="318" type="curve" smooth="yes"/>
      <point x="110" y="313"/>
      <point x="121" y="310"/>
      <point x="136" y="306" type="curve" smooth="yes"/>
      <point x="147" y="303"/>
      <point x="153" y="306"/>
      <point x="156" y="311" type="curve" smooth="yes"/>
      <point x="160" y="317"/>
      <point x="160" y="324"/>
      <point x="160" y="330" type="curve" smooth="yes"/>
      <point x="164" y="368"/>
      <point x="194" y="398"/>
      <point x="207" y="409" type="curve" smooth="yes"/>
      <point x="229" y="428"/>
      <point x="272" y="437"/>
      <point x="296" y="437" type="curve" smooth="yes"/>
      <point x="341" y="437"/>
      <point x="372" y="423"/>
      <point x="391" y="399" type="curve" smooth="yes"/>
      <point x="414" y="369"/>
      <point x="425" y="317"/>
      <point x="425" y="263" type="curve" smooth="yes"/>
      <point x="425" y="231"/>
      <point x="424" y="196"/>
      <point x="415" y="168" type="curve" smooth="yes"/>
      <point x="405" y="138"/>
      <point x="391" y="107"/>
      <point x="370" y="86" type="curve" smooth="yes"/>
      <point x="339" y="54"/>
      <point x="291" y="39"/>
      <point x="241" y="39" type="curve" smooth="yes"/>
      <point x="212" y="39"/>
      <point x="182" y="49"/>
      <point x="165" y="70" type="curve" smooth="yes"/>
      <point x="153" y="86"/>
      <point x="147" y="112"/>
      <point x="146" y="133" type="curve" smooth="yes"/>
      <point x="144" y="189"/>
      <point x="43" y="186"/>
      <point x="43" y="125" type="curve" smooth="yes"/>
      <point x="43" y="90"/>
      <point x="63" y="69"/>
      <point x="92" y="49" type="curve" smooth="yes"/>
      <point x="131" y="23"/>
      <point x="205" y="6"/>
      <point x="255" y="6" type="curve" smooth="yes"/>
      <point x="337" y="6"/>
      <point x="416" y="39"/>
      <point x="462" y="81" type="curve" smooth="yes"/>
      <point x="507" y="120"/>
      <point x="537" y="197"/>
    </contour>
  </outline>
</glyph>
<glyph name="six" format="2">
  <advance width="582"/>
  <unicode hex="0036"/>
  <note>
cid00023
</note>
  <outline>
    <contour>
      <point x="540" y="247" type="curve" smooth="yes"/>
      <point x="540" y="304"/>
      <point x="523" y="352"/>
      <point x="495" y="387" type="curve" smooth="yes"/>
      <point x="457" y="435"/>
      <point x="394" y="462"/>
      <point x="320" y="462" type="curve" smooth="yes"/>
      <point x="269" y="462"/>
      <point x="213" y="445"/>
      <point x="166" y="413" type="curve"/>
      <point x="174" y="502"/>
      <point x="242" y="604"/>
      <point x="302" y="664" type="curve" smooth="yes"/>
      <point x="326" y="688"/>
      <point x="351" y="706"/>
      <point x="378" y="721" type="curve" smooth="yes"/>
      <point x="405" y="736"/>
      <point x="435" y="749"/>
      <point x="464" y="762" type="curve" smooth="yes"/>
      <point x="474" y="766"/>
      <point x="483" y="768"/>
      <point x="483" y="775" type="curve" smooth="yes"/>
      <point x="484" y="784"/>
      <point x="477" y="788"/>
      <point x="469" y="786" type="curve" smooth="yes"/>
      <point x="224" y="724"/>
      <point x="121" y="570"/>
      <point x="76" y="447" type="curve" smooth="yes"/>
      <point x="60" y="403"/>
      <point x="46" y="349"/>
      <point x="46" y="304" type="curve" smooth="yes"/>
      <point x="46" y="268"/>
      <point x="48" y="231"/>
      <point x="56" y="195" type="curve" smooth="yes"/>
      <point x="81" y="83"/>
      <point x="178" y="4"/>
      <point x="275" y="4" type="curve" smooth="yes"/>
      <point x="425" y="4"/>
      <point x="540" y="86"/>
    </contour>
    <contour>
      <point x="430" y="223" type="curve" smooth="yes"/>
      <point x="430" y="168"/>
      <point x="413" y="35"/>
      <point x="290" y="35" type="curve" smooth="yes"/>
      <point x="199" y="35"/>
      <point x="155" y="135"/>
      <point x="151" y="213" type="curve" smooth="yes"/>
      <point x="150" y="237"/>
      <point x="150" y="248"/>
      <point x="150" y="275" type="curve" smooth="yes"/>
      <point x="150" y="302"/>
      <point x="150" y="333"/>
      <point x="166" y="359" type="curve" smooth="yes"/>
      <point x="188" y="395"/>
      <point x="255" y="423"/>
      <point x="305" y="423" type="curve" smooth="yes"/>
      <point x="425" y="423"/>
      <point x="430" y="294"/>
    </contour>
  </outline>
</glyph>
<glyph name="seven" format="2">
  <advance width="582"/>
  <unicode hex="0037"/>
  <note>
cid00024
</note>
  <outline>
    <contour>
      <point x="538" y="697" type="curve"/>
      <point x="538" y="729" type="line"/>
      <point x="448" y="724"/>
      <point x="355" y="725"/>
      <point x="270" y="725" type="curve" smooth="yes"/>
      <point x="215" y="725"/>
      <point x="148" y="725"/>
      <point x="99" y="726" type="curve"/>
      <point x="93" y="727"/>
      <point x="80" y="727"/>
      <point x="75" y="725" type="curve" smooth="yes"/>
      <point x="67" y="723"/>
      <point x="65" y="716"/>
      <point x="64" y="711" type="curve" smooth="yes"/>
      <point x="58" y="667"/>
      <point x="52" y="599"/>
      <point x="48" y="566" type="curve"/>
      <point x="55" y="561"/>
      <point x="66" y="559"/>
      <point x="74" y="564" type="curve"/>
      <point x="85" y="597"/>
      <point x="104" y="654"/>
      <point x="158" y="664" type="curve" smooth="yes"/>
      <point x="204" y="673"/>
      <point x="370" y="679"/>
      <point x="466" y="680" type="curve"/>
      <point x="448" y="657"/>
      <point x="423" y="626"/>
      <point x="402" y="592" type="curve" smooth="yes"/>
      <point x="373" y="545"/>
      <point x="344" y="495"/>
      <point x="327" y="456" type="curve" smooth="yes"/>
      <point x="287" y="366"/>
      <point x="236" y="243"/>
      <point x="212" y="122" type="curve" smooth="yes"/>
      <point x="203" y="76"/>
      <point x="201" y="45"/>
      <point x="207" y="25" type="curve" smooth="yes"/>
      <point x="213" y="5"/>
      <point x="218" y="-11"/>
      <point x="249" y="-11" type="curve" smooth="yes"/>
      <point x="300" y="-11"/>
      <point x="315" y="6"/>
      <point x="320" y="74" type="curve" smooth="yes"/>
      <point x="329" y="205"/>
      <point x="358" y="345"/>
      <point x="401" y="456" type="curve" smooth="yes"/>
      <point x="433" y="539"/>
      <point x="482" y="638"/>
    </contour>
  </outline>
</glyph>
<glyph name="eight" format="2">
  <advance width="582"/>
  <unicode hex="0038"/>
  <note>
cid00025
</note>
  <outline>
    <contour>
      <point x="545" y="236" type="curve" smooth="yes"/>
      <point x="545" y="301"/>
      <point x="494" y="360"/>
      <point x="427" y="394" type="curve" smooth="yes"/>
      <point x="405" y="406"/>
      <point x="389" y="412"/>
      <point x="365" y="419" type="curve"/>
      <point x="450" y="457"/>
      <point x="503" y="508"/>
      <point x="503" y="593" type="curve" smooth="yes"/>
      <point x="503" y="684"/>
      <point x="413" y="744"/>
      <point x="305" y="744" type="curve" smooth="yes"/>
      <point x="181" y="744"/>
      <point x="70" y="684"/>
      <point x="70" y="556" type="curve" smooth="yes"/>
      <point x="70" y="501"/>
      <point x="115" y="441"/>
      <point x="208" y="403" type="curve"/>
      <point x="162" y="379"/>
      <point x="124" y="355"/>
      <point x="103" y="337" type="curve" smooth="yes"/>
      <point x="60" y="301"/>
      <point x="37" y="244"/>
      <point x="37" y="198" type="curve" smooth="yes"/>
      <point x="37" y="140"/>
      <point x="59" y="94"/>
      <point x="97" y="62" type="curve" smooth="yes"/>
      <point x="140" y="24"/>
      <point x="203" y="4"/>
      <point x="274" y="4" type="curve" smooth="yes"/>
      <point x="340" y="4"/>
      <point x="410" y="20"/>
      <point x="463" y="61" type="curve" smooth="yes"/>
      <point x="516" y="102"/>
      <point x="545" y="162"/>
    </contour>
    <contour>
      <point x="421" y="584" type="curve" smooth="yes"/>
      <point x="421" y="510"/>
      <point x="368" y="459"/>
      <point x="311" y="434" type="curve"/>
      <point x="234" y="462"/>
      <point x="158" y="497"/>
      <point x="158" y="589" type="curve" smooth="yes"/>
      <point x="158" y="668"/>
      <point x="204" y="715"/>
      <point x="283" y="715" type="curve" smooth="yes"/>
      <point x="359" y="715"/>
      <point x="421" y="682"/>
    </contour>
    <contour>
      <point x="440" y="202" type="curve" smooth="yes"/>
      <point x="440" y="85"/>
      <point x="354" y="37"/>
      <point x="283" y="37" type="curve" smooth="yes"/>
      <point x="199" y="37"/>
      <point x="124" y="70"/>
      <point x="124" y="202" type="curve" smooth="yes"/>
      <point x="124" y="289"/>
      <point x="172" y="350"/>
      <point x="239" y="389" type="curve"/>
      <point x="276" y="376"/>
      <point x="313" y="361"/>
      <point x="346" y="345" type="curve" smooth="yes"/>
      <point x="398" y="320"/>
      <point x="440" y="274"/>
    </contour>
  </outline>
</glyph>
<glyph name="nine" format="2">
  <advance width="582"/>
  <unicode hex="0039"/>
  <note>
cid00026
</note>
  <outline>
    <contour>
      <point x="535" y="437" type="curve" smooth="yes"/>
      <point x="535" y="474"/>
      <point x="533" y="510"/>
      <point x="525" y="546" type="curve" smooth="yes"/>
      <point x="500" y="659"/>
      <point x="403" y="737"/>
      <point x="306" y="737" type="curve" smooth="yes"/>
      <point x="156" y="737"/>
      <point x="43" y="655"/>
      <point x="43" y="494" type="curve" smooth="yes"/>
      <point x="43" y="361"/>
      <point x="132" y="279"/>
      <point x="261" y="279" type="curve" smooth="yes"/>
      <point x="312" y="279"/>
      <point x="368" y="296"/>
      <point x="415" y="328" type="curve"/>
      <point x="407" y="239"/>
      <point x="339" y="137"/>
      <point x="279" y="77" type="curve" smooth="yes"/>
      <point x="255" y="53"/>
      <point x="230" y="35"/>
      <point x="203" y="20" type="curve" smooth="yes"/>
      <point x="176" y="5"/>
      <point x="146" y="-8"/>
      <point x="117" y="-21" type="curve" smooth="yes"/>
      <point x="107" y="-25"/>
      <point x="98" y="-27"/>
      <point x="98" y="-34" type="curve" smooth="yes"/>
      <point x="97" y="-43"/>
      <point x="104" y="-46"/>
      <point x="112" y="-44" type="curve" smooth="yes"/>
      <point x="357" y="18"/>
      <point x="460" y="171"/>
      <point x="505" y="294" type="curve" smooth="yes"/>
      <point x="521" y="338"/>
      <point x="535" y="392"/>
    </contour>
    <contour>
      <point x="431" y="466" type="curve" smooth="yes"/>
      <point x="431" y="439"/>
      <point x="431" y="408"/>
      <point x="415" y="383" type="curve" smooth="yes"/>
      <point x="392" y="346"/>
      <point x="326" y="318"/>
      <point x="276" y="318" type="curve" smooth="yes"/>
      <point x="156" y="318"/>
      <point x="151" y="447"/>
      <point x="151" y="518" type="curve" smooth="yes"/>
      <point x="151" y="573"/>
      <point x="168" y="706"/>
      <point x="291" y="706" type="curve" smooth="yes"/>
      <point x="382" y="706"/>
      <point x="426" y="606"/>
      <point x="430" y="528" type="curve" smooth="yes"/>
      <point x="431" y="504"/>
      <point x="431" y="493"/>
    </contour>
  </outline>
</glyph>
<glyph name="colon" format="2">
  <advance width="390"/>
  <unicode hex="003A"/>
  <note>
cid00027
</note>
  <outline>
    <contour>
      <point x="266" y="437" type="curve" smooth="yes"/>
      <point x="266" y="473"/>
      <point x="235" y="504"/>
      <point x="195" y="504" type="curve" smooth="yes"/>
      <point x="155" y="504"/>
      <point x="124" y="473"/>
      <point x="124" y="437" type="curve" smooth="yes"/>
      <point x="124" y="400"/>
      <point x="155" y="369"/>
      <point x="195" y="369" type="curve" smooth="yes"/>
      <point x="235" y="369"/>
      <point x="266" y="400"/>
    </contour>
    <contour>
      <point x="266" y="101" type="curve" smooth="yes"/>
      <point x="266" y="138"/>
      <point x="235" y="169"/>
      <point x="195" y="169" type="curve" smooth="yes"/>
      <point x="155" y="169"/>
      <point x="124" y="138"/>
      <point x="124" y="101" type="curve" smooth="yes"/>
      <point x="124" y="65"/>
      <point x="155" y="34"/>
      <point x="195" y="34" type="curve" smooth="yes"/>
      <point x="235" y="34"/>
      <point x="266" y="65"/>
    </contour>
  </outline>
</glyph>
<glyph name="semicolon" format="2">
  <advance width="390"/>
  <unicode hex="003B"/>
  <note>
cid00028
</note>
  <outline>
    <contour>
      <point x="266" y="437" type="curve" smooth="yes"/>
      <point x="266" y="473"/>
      <point x="235" y="504"/>
      <point x="195" y="504" type="curve" smooth="yes"/>
      <point x="155" y="504"/>
      <point x="124" y="473"/>
      <point x="124" y="437" type="curve" smooth="yes"/>
      <point x="124" y="400"/>
      <point x="155" y="369"/>
      <point x="195" y="369" type="curve" smooth="yes"/>
      <point x="235" y="369"/>
      <point x="266" y="400"/>
    </contour>
    <contour>
      <point x="267" y="79" type="curve" smooth="yes"/>
      <point x="267" y="127"/>
      <point x="245" y="165"/>
      <point x="194" y="165" type="curve" smooth="yes"/>
      <point x="151" y="165"/>
      <point x="126" y="136"/>
      <point x="126" y="99" type="curve" smooth="yes"/>
      <point x="126" y="83"/>
      <point x="138" y="54"/>
      <point x="160" y="50" type="curve" smooth="yes"/>
      <point x="168" y="49"/>
      <point x="172" y="49"/>
      <point x="178" y="52" type="curve" smooth="yes"/>
      <point x="188" y="56"/>
      <point x="191" y="55"/>
      <point x="201" y="55" type="curve" smooth="yes"/>
      <point x="210" y="55"/>
      <point x="214" y="47"/>
      <point x="214" y="36" type="curve" smooth="yes"/>
      <point x="214" y="6"/>
      <point x="189" y="-63"/>
      <point x="161" y="-97" type="curve"/>
      <point x="190" y="-104" type="line"/>
      <point x="230" y="-58"/>
      <point x="267" y="22"/>
    </contour>
  </outline>
</glyph>
<glyph name="less" format="2">
  <advance width="700"/>
  <unicode hex="003C"/>
  <note>
cid00029
</note>
  <outline>
    <contour>
      <point x="61" y="349" type="line"/>
      <point x="639" y="50" type="line"/>
      <point x="639" y="104" type="line"/>
      <point x="138" y="349" type="line"/>
      <point x="639" y="592" type="line"/>
      <point x="639" y="646" type="line"/>
    </contour>
  </outline>
</glyph>
<glyph name="equal" format="2">
  <advance width="700"/>
  <unicode hex="003D"/>
  <note>
cid00030
</note>
  <outline>
    <contour>
      <point x="62" y="407" type="line"/>
      <point x="638" y="407" type="line"/>
      <point x="638" y="453" type="line"/>
      <point x="62" y="453" type="line"/>
    </contour>
    <contour>
      <point x="62" y="252" type="line"/>
      <point x="638" y="252" type="line"/>
      <point x="638" y="297" type="line"/>
      <point x="62" y="297" type="line"/>
    </contour>
  </outline>
</glyph>
<glyph name="question" format="2">
  <advance width="560"/>
  <unicode hex="003F"/>
  <note>
cid00032
</note>
  <outline>
    <contour>
      <point x="498" y="585" type="curve" smooth="yes"/>
      <point x="498" y="692"/>
      <point x="404" y="752"/>
      <point x="287" y="752" type="curve" smooth="yes"/>
      <point x="124" y="752"/>
      <point x="62" y="627"/>
      <point x="62" y="570" type="curve" smooth="yes"/>
      <point x="62" y="548"/>
      <point x="66" y="513"/>
      <point x="105" y="513" type="curve" smooth="yes"/>
      <point x="120" y="513"/>
      <point x="162" y="519"/>
      <point x="162" y="565" type="curve" smooth="yes"/>
      <point x="162" y="576"/>
      <point x="159" y="587"/>
      <point x="156" y="598" type="curve" smooth="yes"/>
      <point x="154" y="603"/>
      <point x="152" y="611"/>
      <point x="152" y="619" type="curve" smooth="yes"/>
      <point x="152" y="700"/>
      <point x="219" y="725"/>
      <point x="283" y="725" type="curve" smooth="yes"/>
      <point x="358" y="725"/>
      <point x="394" y="684"/>
      <point x="394" y="607" type="curve" smooth="yes"/>
      <point x="394" y="532"/>
      <point x="362" y="485"/>
      <point x="323" y="447" type="curve" smooth="yes"/>
      <point x="270" y="395"/>
      <point x="250" y="356"/>
      <point x="250" y="279" type="curve" smooth="yes"/>
      <point x="251" y="207" type="line"/>
      <point x="293" y="207" type="line"/>
      <point x="293" y="265" type="line" smooth="yes"/>
      <point x="293" y="312"/>
      <point x="303" y="348"/>
      <point x="340" y="385" type="curve" smooth="yes"/>
      <point x="366" y="412"/>
      <point x="402" y="430"/>
      <point x="431" y="454" type="curve" smooth="yes"/>
      <point x="472" y="488"/>
      <point x="498" y="541"/>
    </contour>
    <contour>
      <point x="354" y="70" type="curve" smooth="yes"/>
      <point x="354" y="110"/>
      <point x="320" y="142"/>
      <point x="279" y="142" type="curve" smooth="yes"/>
      <point x="238" y="142"/>
      <point x="204" y="110"/>
      <point x="204" y="70" type="curve" smooth="yes"/>
      <point x="204" y="30"/>
      <point x="238" y="-3"/>
      <point x="279" y="-3" type="curve" smooth="yes"/>
      <point x="320" y="-3"/>
      <point x="354" y="30"/>
    </contour>
  </outline>
</glyph>
<glyph name="at" format="2">
  <advance width="880"/>
  <unicode hex="0040"/>
  <note>
cid00033
</note>
  <outline>
    <contour>
      <point x="813" y="390" type="curve" smooth="yes"/>
      <point x="813" y="487"/>
      <point x="787" y="583"/>
      <point x="718" y="643" type="curve" smooth="yes"/>
      <point x="658" y="696"/>
      <point x="574" y="721"/>
      <point x="480" y="721" type="curve" smooth="yes"/>
      <point x="251" y="721"/>
      <point x="67" y="536"/>
      <point x="67" y="307" type="curve" smooth="yes"/>
      <point x="67" y="263"/>
      <point x="77" y="214"/>
      <point x="94" y="173" type="curve" smooth="yes"/>
      <point x="156" y="18"/>
      <point x="291" y="-41"/>
      <point x="450" y="-41" type="curve" smooth="yes"/>
      <point x="530" y="-41"/>
      <point x="648" y="-12"/>
      <point x="712" y="38" type="curve" smooth="yes"/>
      <point x="721" y="46"/>
      <point x="739" y="59"/>
      <point x="739" y="72" type="curve" smooth="yes"/>
      <point x="739" y="77"/>
      <point x="731" y="78"/>
      <point x="728" y="78" type="curve"/>
      <point x="716" y="71"/>
      <point x="706" y="63"/>
      <point x="694" y="57" type="curve" smooth="yes"/>
      <point x="610" y="13"/>
      <point x="545" y="1"/>
      <point x="451" y="1" type="curve" smooth="yes"/>
      <point x="272" y="1"/>
      <point x="158" y="140"/>
      <point x="158" y="313" type="curve" smooth="yes"/>
      <point x="158" y="507"/>
      <point x="269" y="688"/>
      <point x="479" y="688" type="curve" smooth="yes"/>
      <point x="561" y="688"/>
      <point x="638" y="661"/>
      <point x="691" y="611" type="curve" smooth="yes"/>
      <point x="706" y="597"/>
      <point x="719" y="581"/>
      <point x="730" y="564" type="curve" smooth="yes"/>
      <point x="781" y="479"/>
      <point x="773" y="339"/>
      <point x="730" y="253" type="curve" smooth="yes"/>
      <point x="708" y="210"/>
      <point x="674" y="179"/>
      <point x="621" y="179" type="curve" smooth="yes"/>
      <point x="594" y="179"/>
      <point x="579" y="213"/>
      <point x="579" y="235" type="curve" smooth="yes"/>
      <point x="579" y="284"/>
      <point x="637" y="470"/>
      <point x="656" y="525" type="curve"/>
      <point x="636" y="530"/>
      <point x="616" y="533"/>
      <point x="595" y="536" type="curve"/>
      <point x="587" y="522"/>
      <point x="579" y="507"/>
      <point x="571" y="492" type="curve"/>
      <point x="551" y="521"/>
      <point x="516" y="544"/>
      <point x="480" y="544" type="curve" smooth="yes"/>
      <point x="426" y="544"/>
      <point x="383" y="520"/>
      <point x="349" y="478" type="curve" smooth="yes"/>
      <point x="314" y="434"/>
      <point x="284" y="357"/>
      <point x="284" y="300" type="curve" smooth="yes"/>
      <point x="284" y="263"/>
      <point x="289" y="225"/>
      <point x="308" y="193" type="curve" smooth="yes"/>
      <point x="326" y="163"/>
      <point x="357" y="135"/>
      <point x="394" y="135" type="curve" smooth="yes"/>
      <point x="452" y="135"/>
      <point x="488" y="160"/>
      <point x="519" y="210" type="curve"/>
      <point x="530" y="164"/>
      <point x="560" y="134"/>
      <point x="609" y="134" type="curve" smooth="yes"/>
      <point x="681" y="134"/>
      <point x="730" y="168"/>
      <point x="762" y="218" type="curve" smooth="yes"/>
      <point x="792" y="266"/>
      <point x="813" y="327"/>
    </contour>
    <contour>
      <point x="548" y="449" type="curve" smooth="yes"/>
      <point x="548" y="404"/>
      <point x="514" y="264"/>
      <point x="492" y="226" type="curve" smooth="yes"/>
      <point x="478" y="203"/>
      <point x="462" y="190"/>
      <point x="434" y="190" type="curve" smooth="yes"/>
      <point x="369" y="190"/>
      <point x="360" y="247"/>
      <point x="360" y="299" type="curve" smooth="yes"/>
      <point x="360" y="376"/>
      <point x="393" y="507"/>
      <point x="489" y="507" type="curve" smooth="yes"/>
      <point x="527" y="507"/>
      <point x="548" y="486"/>
    </contour>
  </outline>
</glyph>
<glyph name="A" format="2">
  <advance width="774"/>
  <unicode hex="0041"/>
  <note>
cid00034
</note>
  <outline>
    <contour>
      <point x="766" y="18" type="curve" smooth="yes"/>
      <point x="766" y="29"/>
      <point x="767" y="39"/>
      <point x="754" y="38" type="curve" smooth="yes"/>
      <point x="742" y="38"/>
      <point x="729" y="37"/>
      <point x="718" y="37" type="curve" smooth="yes"/>
      <point x="706" y="37"/>
      <point x="689" y="44"/>
      <point x="684" y="57" type="curve" smooth="yes"/>
      <point x="425" y="753" type="line"/>
      <point x="406" y="751"/>
      <point x="361" y="748"/>
      <point x="345" y="744" type="curve" smooth="yes"/>
      <point x="339" y="743"/>
      <point x="338" y="742"/>
      <point x="336" y="736" type="curve" smooth="yes"/>
      <point x="309" y="661"/>
      <point x="284" y="584"/>
      <point x="257" y="508" type="curve" smooth="yes"/>
      <point x="208" y="369"/>
      <point x="156" y="231"/>
      <point x="103" y="93" type="curve" smooth="yes"/>
      <point x="99" y="82"/>
      <point x="95" y="70"/>
      <point x="90" y="60" type="curve" smooth="yes"/>
      <point x="81" y="41"/>
      <point x="67" y="31"/>
      <point x="49" y="31" type="curve" smooth="yes"/>
      <point x="41" y="31"/>
      <point x="30" y="32"/>
      <point x="19" y="32" type="curve" smooth="yes"/>
      <point x="12" y="32"/>
      <point x="6" y="28"/>
      <point x="6" y="20" type="curve" smooth="yes"/>
      <point x="6" y="11"/>
      <point x="7" y="5"/>
      <point x="18" y="5" type="curve" smooth="yes"/>
      <point x="48" y="5"/>
      <point x="74" y="7"/>
      <point x="104" y="7" type="curve" smooth="yes"/>
      <point x="143" y="7"/>
      <point x="183" y="6"/>
      <point x="222" y="6" type="curve" smooth="yes"/>
      <point x="229" y="6"/>
      <point x="233" y="6"/>
      <point x="236" y="13" type="curve"/>
      <point x="236" y="20"/>
      <point x="236" y="33"/>
      <point x="227" y="33" type="curve" smooth="yes"/>
      <point x="217" y="33"/>
      <point x="206" y="30"/>
      <point x="195" y="30" type="curve" smooth="yes"/>
      <point x="181" y="30"/>
      <point x="144" y="28"/>
      <point x="144" y="49" type="curve" smooth="yes"/>
      <point x="144" y="64"/>
      <point x="208" y="238"/>
      <point x="219" y="267" type="curve"/>
      <point x="488" y="267" type="line"/>
      <point x="509" y="211"/>
      <point x="538" y="123"/>
      <point x="561" y="63" type="curve" smooth="yes"/>
      <point x="564" y="55"/>
      <point x="563" y="45"/>
      <point x="555" y="42" type="curve" smooth="yes"/>
      <point x="547" y="39"/>
      <point x="541" y="37"/>
      <point x="533" y="37" type="curve" smooth="yes"/>
      <point x="484" y="37" type="line" smooth="yes"/>
      <point x="478" y="37"/>
      <point x="473" y="31"/>
      <point x="473" y="25" type="curve" smooth="yes"/>
      <point x="473" y="18"/>
      <point x="473" y="5"/>
      <point x="483" y="5" type="curve" smooth="yes"/>
      <point x="501" y="5"/>
      <point x="519" y="8"/>
      <point x="536" y="9" type="curve" smooth="yes"/>
      <point x="564" y="11"/>
      <point x="592" y="12"/>
      <point x="620" y="12" type="curve" smooth="yes"/>
      <point x="668" y="12"/>
      <point x="706" y="10"/>
      <point x="754" y="7" type="curve"/>
      <point x="758" y="8"/>
      <point x="766" y="12"/>
    </contour>
    <contour>
      <point x="476" y="304" type="curve"/>
      <point x="229" y="304" type="line"/>
      <point x="269" y="421"/>
      <point x="310" y="538"/>
      <point x="351" y="655" type="curve"/>
      <point x="393" y="538"/>
      <point x="434" y="421"/>
    </contour>
  </outline>
</glyph>
<glyph name="B" format="2">
  <advance width="690"/>
  <unicode hex="0042"/>
  <note>
cid00035
</note>
  <outline>
    <contour>
      <point x="661" y="226" type="curve" smooth="yes"/>
      <point x="661" y="337"/>
      <point x="560" y="388"/>
      <point x="466" y="405" type="curve"/>
      <point x="465" y="408" type="line"/>
      <point x="535" y="434"/>
      <point x="610" y="492"/>
      <point x="610" y="575" type="curve" smooth="yes"/>
      <point x="610" y="706"/>
      <point x="501" y="741"/>
      <point x="390" y="741" type="curve" smooth="yes"/>
      <point x="380" y="741"/>
      <point x="370" y="741"/>
      <point x="360" y="740" type="curve" smooth="yes"/>
      <point x="283" y="733"/>
      <point x="205" y="729"/>
      <point x="127" y="729" type="curve" smooth="yes"/>
      <point x="98" y="729"/>
      <point x="68" y="732"/>
      <point x="39" y="732" type="curve" smooth="yes"/>
      <point x="31" y="732"/>
      <point x="28" y="724"/>
      <point x="28" y="717" type="curve" smooth="yes"/>
      <point x="28" y="710"/>
      <point x="31" y="698"/>
      <point x="41" y="698" type="curve" smooth="yes"/>
      <point x="60" y="698"/>
      <point x="82" y="700"/>
      <point x="100" y="696" type="curve" smooth="yes"/>
      <point x="132" y="688"/>
      <point x="131" y="661"/>
      <point x="131" y="634" type="curve" smooth="yes"/>
      <point x="131" y="559"/>
      <point x="132" y="485"/>
      <point x="132" y="411" type="curve" smooth="yes"/>
      <point x="132" y="166" type="line" smooth="yes"/>
      <point x="132" y="139"/>
      <point x="133" y="112"/>
      <point x="131" y="85" type="curve" smooth="yes"/>
      <point x="130" y="61"/>
      <point x="124" y="42"/>
      <point x="98" y="38" type="curve" smooth="yes"/>
      <point x="80" y="35"/>
      <point x="60" y="35"/>
      <point x="41" y="35" type="curve" smooth="yes"/>
      <point x="33" y="35"/>
      <point x="28" y="31"/>
      <point x="28" y="23" type="curve" smooth="yes"/>
      <point x="28" y="12"/>
      <point x="28" y="2"/>
      <point x="42" y="2" type="curve" smooth="yes"/>
      <point x="78" y="2"/>
      <point x="113" y="9"/>
      <point x="149" y="9" type="curve" smooth="yes"/>
      <point x="212" y="9"/>
      <point x="276" y="7"/>
      <point x="339" y="4" type="curve" smooth="yes"/>
      <point x="349" y="3"/>
      <point x="359" y="3"/>
      <point x="368" y="3" type="curve" smooth="yes"/>
      <point x="420" y="3"/>
      <point x="478" y="7"/>
      <point x="526" y="26" type="curve" smooth="yes"/>
      <point x="615" y="60"/>
      <point x="661" y="131"/>
    </contour>
    <contour>
      <point x="497" y="563" type="curve" smooth="yes"/>
      <point x="497" y="520"/>
      <point x="478" y="474"/>
      <point x="447" y="443" type="curve" smooth="yes"/>
      <point x="402" y="399"/>
      <point x="297" y="407"/>
      <point x="236" y="407" type="curve"/>
      <point x="236" y="702" type="line"/>
      <point x="271" y="705"/>
      <point x="307" y="705"/>
      <point x="342" y="705" type="curve" smooth="yes"/>
      <point x="438" y="705"/>
      <point x="497" y="666"/>
    </contour>
    <contour>
      <point x="548" y="210" type="curve" smooth="yes"/>
      <point x="548" y="94"/>
      <point x="475" y="38"/>
      <point x="366" y="33" type="curve" smooth="yes"/>
      <point x="348" y="32"/>
      <point x="331" y="32"/>
      <point x="314" y="32" type="curve" smooth="yes"/>
      <point x="285" y="32"/>
      <point x="236" y="26"/>
      <point x="236" y="67" type="curve" smooth="yes"/>
      <point x="236" y="376" type="line"/>
      <point x="275" y="376"/>
      <point x="313" y="378"/>
      <point x="351" y="378" type="curve" smooth="yes"/>
      <point x="401" y="378" type="line" smooth="yes"/>
      <point x="512" y="377"/>
      <point x="548" y="315"/>
    </contour>
  </outline>
</glyph>
<glyph name="C" format="2">
  <advance width="725"/>
  <unicode hex="0043"/>
  <note>
cid00036
</note>
  <outline>
    <contour>
      <point x="708" y="192" type="curve" smooth="yes"/>
      <point x="708" y="200"/>
      <point x="701" y="206"/>
      <point x="693" y="206" type="curve" smooth="yes"/>
      <point x="688" y="206"/>
      <point x="683" y="204"/>
      <point x="679" y="200" type="curve" smooth="yes"/>
      <point x="675" y="196"/>
      <point x="673" y="191"/>
      <point x="670" y="186" type="curve" smooth="yes"/>
      <point x="664" y="175"/>
      <point x="656" y="165"/>
      <point x="648" y="156" type="curve" smooth="yes"/>
      <point x="621" y="123"/>
      <point x="586" y="93"/>
      <point x="546" y="76" type="curve" smooth="yes"/>
      <point x="511" y="62"/>
      <point x="458" y="50"/>
      <point x="420" y="50" type="curve" smooth="yes"/>
      <point x="239" y="50"/>
      <point x="170" y="208"/>
      <point x="170" y="368" type="curve" smooth="yes"/>
      <point x="170" y="477"/>
      <point x="201" y="598"/>
      <point x="291" y="666" type="curve" smooth="yes"/>
      <point x="323" y="690"/>
      <point x="366" y="706"/>
      <point x="405" y="706" type="curve" smooth="yes"/>
      <point x="438" y="706"/>
      <point x="504" y="681"/>
      <point x="528" y="660" type="curve" smooth="yes"/>
      <point x="564" y="630"/>
      <point x="589" y="577"/>
      <point x="601" y="533" type="curve" smooth="yes"/>
      <point x="604" y="518"/>
      <point x="606" y="503"/>
      <point x="612" y="490" type="curve" smooth="yes"/>
      <point x="616" y="480"/>
      <point x="619" y="479"/>
      <point x="630" y="479" type="curve" smooth="yes"/>
      <point x="656" y="479"/>
      <point x="665" y="491"/>
      <point x="665" y="515" type="curve" smooth="yes"/>
      <point x="665" y="542"/>
      <point x="655" y="570"/>
      <point x="652" y="597" type="curve" smooth="yes"/>
      <point x="648" y="626"/>
      <point x="644" y="655"/>
      <point x="644" y="685" type="curve"/>
      <point x="613" y="688"/>
      <point x="583" y="691"/>
      <point x="554" y="701" type="curve" smooth="yes"/>
      <point x="501" y="720"/>
      <point x="461" y="740"/>
      <point x="403" y="740" type="curve" smooth="yes"/>
      <point x="185" y="740"/>
      <point x="55" y="576"/>
      <point x="55" y="364" type="curve" smooth="yes"/>
      <point x="55" y="150"/>
      <point x="189" y="6"/>
      <point x="403" y="6" type="curve" smooth="yes"/>
      <point x="475" y="6"/>
      <point x="543" y="21"/>
      <point x="604" y="61" type="curve" smooth="yes"/>
      <point x="644" y="86"/>
      <point x="682" y="127"/>
      <point x="702" y="170" type="curve" smooth="yes"/>
      <point x="706" y="177"/>
      <point x="708" y="184"/>
    </contour>
  </outline>
</glyph>
<glyph name="D" format="2">
  <advance width="821"/>
  <unicode hex="0044"/>
  <note>
cid00037
</note>
  <outline>
    <contour>
      <point x="778" y="396" type="curve" smooth="yes"/>
      <point x="778" y="611"/>
      <point x="645" y="738"/>
      <point x="433" y="738" type="curve" smooth="yes"/>
      <point x="334" y="738"/>
      <point x="235" y="729"/>
      <point x="136" y="729" type="curve" smooth="yes"/>
      <point x="105" y="729"/>
      <point x="74" y="732"/>
      <point x="44" y="732" type="curve" smooth="yes"/>
      <point x="33" y="732"/>
      <point x="26" y="727"/>
      <point x="26" y="715" type="curve" smooth="yes"/>
      <point x="26" y="703"/>
      <point x="36" y="697"/>
      <point x="46" y="697" type="curve" smooth="yes"/>
      <point x="85" y="697"/>
      <point x="125" y="708"/>
      <point x="129" y="655" type="curve" smooth="yes"/>
      <point x="130" y="630"/>
      <point x="129" y="604"/>
      <point x="129" y="579" type="curve" smooth="yes"/>
      <point x="129" y="524"/>
      <point x="130" y="469"/>
      <point x="130" y="414" type="curve" smooth="yes"/>
      <point x="130" y="321" type="line" smooth="yes"/>
      <point x="130" y="248"/>
      <point x="129" y="175"/>
      <point x="129" y="103" type="curve" smooth="yes"/>
      <point x="129" y="80"/>
      <point x="123" y="54"/>
      <point x="101" y="43" type="curve" smooth="yes"/>
      <point x="92" y="38"/>
      <point x="79" y="35"/>
      <point x="65" y="34" type="curve" smooth="yes"/>
      <point x="57" y="33"/>
      <point x="49" y="28"/>
      <point x="49" y="22" type="curve" smooth="yes"/>
      <point x="49" y="14"/>
      <point x="53" y="6"/>
      <point x="61" y="6" type="curve" smooth="yes"/>
      <point x="81" y="7" type="line" smooth="yes"/>
      <point x="120" y="9"/>
      <point x="160" y="10"/>
      <point x="199" y="10" type="curve" smooth="yes"/>
      <point x="248" y="10"/>
      <point x="297" y="6"/>
      <point x="345" y="6" type="curve" smooth="yes"/>
      <point x="428" y="6"/>
      <point x="537" y="23"/>
      <point x="608" y="67" type="curve" smooth="yes"/>
      <point x="723" y="136"/>
      <point x="778" y="264"/>
    </contour>
    <contour>
      <point x="661" y="382" type="curve" smooth="yes"/>
      <point x="661" y="270"/>
      <point x="628" y="164"/>
      <point x="536" y="95" type="curve" smooth="yes"/>
      <point x="471" y="46"/>
      <point x="377" y="42"/>
      <point x="299" y="42" type="curve" smooth="yes"/>
      <point x="266" y="42"/>
      <point x="237" y="49"/>
      <point x="237" y="89" type="curve" smooth="yes"/>
      <point x="237" y="699" type="line"/>
      <point x="288" y="700"/>
      <point x="339" y="702"/>
      <point x="389" y="702" type="curve" smooth="yes"/>
      <point x="405" y="702"/>
      <point x="422" y="701"/>
      <point x="438" y="700" type="curve" smooth="yes"/>
      <point x="489" y="694"/>
      <point x="542" y="666"/>
      <point x="578" y="629" type="curve" smooth="yes"/>
      <point x="638" y="571"/>
      <point x="661" y="463"/>
    </contour>
  </outline>
</glyph>
<glyph name="F" format="2">
  <advance width="612"/>
  <unicode hex="0046"/>
  <note>
cid00039
</note>
  <outline>
    <contour>
      <point x="601" y="594" type="curve" smooth="yes"/>
      <point x="601" y="622"/>
      <point x="585" y="703"/>
      <point x="579" y="734" type="curve"/>
      <point x="547" y="732"/>
      <point x="516" y="731"/>
      <point x="484" y="731" type="curve" smooth="yes"/>
      <point x="417" y="731"/>
      <point x="351" y="728"/>
      <point x="284" y="728" type="curve" smooth="yes"/>
      <point x="107" y="728" type="line" smooth="yes"/>
      <point x="81" y="728"/>
      <point x="60" y="730"/>
      <point x="34" y="730" type="curve" smooth="yes"/>
      <point x="21" y="730"/>
      <point x="16" y="720"/>
      <point x="16" y="708" type="curve" smooth="yes"/>
      <point x="16" y="694"/>
      <point x="27" y="690"/>
      <point x="39" y="690" type="curve" smooth="yes"/>
      <point x="76" y="690"/>
      <point x="126" y="697"/>
      <point x="126" y="655" type="curve" smooth="yes"/>
      <point x="126" y="123" type="line" smooth="yes"/>
      <point x="126" y="50"/>
      <point x="102" y="40"/>
      <point x="38" y="35" type="curve" smooth="yes"/>
      <point x="27" y="34"/>
      <point x="25" y="27"/>
      <point x="25" y="17" type="curve" smooth="yes"/>
      <point x="25" y="9"/>
      <point x="33" y="3"/>
      <point x="41" y="3" type="curve" smooth="yes"/>
      <point x="88" y="3"/>
      <point x="130" y="8"/>
      <point x="177" y="8" type="curve" smooth="yes"/>
      <point x="257" y="8" type="line" smooth="yes"/>
      <point x="280" y="8"/>
      <point x="303" y="5"/>
      <point x="326" y="5" type="curve" smooth="yes"/>
      <point x="336" y="5"/>
      <point x="346" y="10"/>
      <point x="346" y="21" type="curve" smooth="yes"/>
      <point x="346" y="32"/>
      <point x="339" y="38"/>
      <point x="328" y="38" type="curve" smooth="yes"/>
      <point x="305" y="38"/>
      <point x="271" y="39"/>
      <point x="253" y="55" type="curve" smooth="yes"/>
      <point x="242" y="65"/>
      <point x="233" y="78"/>
      <point x="233" y="93" type="curve" smooth="yes"/>
      <point x="233" y="318" type="line" smooth="yes"/>
      <point x="233" y="367"/>
      <point x="305" y="360"/>
      <point x="337" y="360" type="curve" smooth="yes"/>
      <point x="384" y="360"/>
      <point x="432" y="360"/>
      <point x="478" y="355" type="curve" smooth="yes"/>
      <point x="488" y="354"/>
      <point x="499" y="353"/>
      <point x="509" y="353" type="curve" smooth="yes"/>
      <point x="518" y="353"/>
      <point x="524" y="358"/>
      <point x="528" y="365" type="curve" smooth="yes"/>
      <point x="532" y="375"/>
      <point x="544" y="405"/>
      <point x="544" y="414" type="curve" smooth="yes"/>
      <point x="544" y="418"/>
      <point x="538" y="422"/>
      <point x="534" y="422" type="curve" smooth="yes"/>
      <point x="532" y="422" type="line"/>
      <point x="493" y="413"/>
      <point x="454" y="408"/>
      <point x="414" y="404" type="curve" smooth="yes"/>
      <point x="354" y="399"/>
      <point x="294" y="399"/>
      <point x="233" y="398" type="curve"/>
      <point x="233" y="695" type="line"/>
      <point x="413" y="695" type="line" smooth="yes"/>
      <point x="486" y="695"/>
      <point x="535" y="662"/>
      <point x="555" y="591" type="curve" smooth="yes"/>
      <point x="559" y="578"/>
      <point x="564" y="573"/>
      <point x="577" y="573" type="curve" smooth="yes"/>
      <point x="590" y="573"/>
      <point x="601" y="580"/>
    </contour>
  </outline>
</glyph>
<glyph name="G" format="2">
  <advance width="781"/>
  <unicode hex="0047"/>
  <note>
cid00040
</note>
  <outline>
    <contour>
      <point x="766" y="313" type="curve" smooth="yes"/>
      <point x="766" y="320"/>
      <point x="759" y="330"/>
      <point x="751" y="330" type="curve" smooth="yes"/>
      <point x="730" y="330"/>
      <point x="708" y="328"/>
      <point x="686" y="328" type="curve" smooth="yes"/>
      <point x="640" y="326"/>
      <point x="593" y="326"/>
      <point x="547" y="326" type="curve" smooth="yes"/>
      <point x="526" y="326"/>
      <point x="506" y="328"/>
      <point x="485" y="328" type="curve" smooth="yes"/>
      <point x="474" y="328"/>
      <point x="470" y="319"/>
      <point x="470" y="309" type="curve" smooth="yes"/>
      <point x="470" y="300"/>
      <point x="475" y="291"/>
      <point x="486" y="291" type="curve" smooth="yes"/>
      <point x="506" y="291"/>
      <point x="526" y="293"/>
      <point x="547" y="293" type="curve" smooth="yes"/>
      <point x="561" y="293"/>
      <point x="585" y="290"/>
      <point x="585" y="270" type="curve" smooth="yes"/>
      <point x="585" y="139" type="line" smooth="yes"/>
      <point x="585" y="71"/>
      <point x="469" y="53"/>
      <point x="419" y="53" type="curve" smooth="yes"/>
      <point x="242" y="53"/>
      <point x="172" y="212"/>
      <point x="172" y="369" type="curve" smooth="yes"/>
      <point x="172" y="519"/>
      <point x="237" y="712"/>
      <point x="414" y="712" type="curve" smooth="yes"/>
      <point x="458" y="712"/>
      <point x="522" y="693"/>
      <point x="557" y="665" type="curve" smooth="yes"/>
      <point x="592" y="637"/>
      <point x="616" y="604"/>
      <point x="635" y="564" type="curve" smooth="yes"/>
      <point x="640" y="553"/>
      <point x="649" y="526"/>
      <point x="654" y="517" type="curve" smooth="yes"/>
      <point x="659" y="510"/>
      <point x="668" y="509"/>
      <point x="676" y="509" type="curve" smooth="yes"/>
      <point x="685" y="509"/>
      <point x="699" y="516"/>
      <point x="699" y="527" type="curve" smooth="yes"/>
      <point x="699" y="540"/>
      <point x="698" y="554"/>
      <point x="698" y="567" type="curve" smooth="yes"/>
      <point x="697" y="602"/>
      <point x="697" y="637"/>
      <point x="696" y="672" type="curve" smooth="yes"/>
      <point x="695" y="689"/>
      <point x="696" y="706"/>
      <point x="694" y="722" type="curve" smooth="yes"/>
      <point x="694" y="730"/>
      <point x="689" y="732"/>
      <point x="682" y="732" type="curve" smooth="yes"/>
      <point x="680" y="732"/>
      <point x="675" y="732"/>
      <point x="673" y="731" type="curve" smooth="yes"/>
      <point x="666" y="729"/>
      <point x="664" y="725"/>
      <point x="660" y="720" type="curve" smooth="yes"/>
      <point x="646" y="706"/>
      <point x="638" y="703"/>
      <point x="619" y="703" type="curve" smooth="yes"/>
      <point x="603" y="703"/>
      <point x="544" y="723"/>
      <point x="524" y="728" type="curve" smooth="yes"/>
      <point x="486" y="739"/>
      <point x="450" y="745"/>
      <point x="410" y="745" type="curve" smooth="yes"/>
      <point x="197" y="745"/>
      <point x="57" y="577"/>
      <point x="57" y="368" type="curve" smooth="yes"/>
      <point x="57" y="248"/>
      <point x="105" y="132"/>
      <point x="207" y="65" type="curve" smooth="yes"/>
      <point x="259" y="31"/>
      <point x="346" y="8"/>
      <point x="408" y="8" type="curve" smooth="yes"/>
      <point x="455" y="8"/>
      <point x="508" y="11"/>
      <point x="551" y="30" type="curve" smooth="yes"/>
      <point x="597" y="50"/>
      <point x="643" y="68"/>
      <point x="691" y="83" type="curve"/>
      <point x="691" y="295" type="line"/>
      <point x="750" y="295" type="line" smooth="yes"/>
      <point x="760" y="295"/>
      <point x="766" y="302"/>
    </contour>
  </outline>
</glyph>
<glyph name="H" format="2">
  <advance width="836"/>
  <unicode hex="0048"/>
  <note>
cid00041
</note>
  <outline>
    <contour>
      <point x="818" y="720" type="curve" smooth="yes"/>
      <point x="818" y="732"/>
      <point x="812" y="735"/>
      <point x="807" y="735" type="curve" smooth="yes"/>
      <point x="760" y="732"/>
      <point x="712" y="731"/>
      <point x="665" y="731" type="curve" smooth="yes"/>
      <point x="637" y="731"/>
      <point x="610" y="731"/>
      <point x="583" y="733" type="curve" smooth="yes"/>
      <point x="566" y="734"/>
      <point x="549" y="737"/>
      <point x="532" y="737" type="curve" smooth="yes"/>
      <point x="522" y="737"/>
      <point x="523" y="725"/>
      <point x="523" y="717" type="curve" smooth="yes"/>
      <point x="523" y="711"/>
      <point x="528" y="705"/>
      <point x="533" y="705" type="curve" smooth="yes"/>
      <point x="548" y="705"/>
      <point x="564" y="706"/>
      <point x="579" y="706" type="curve" smooth="yes"/>
      <point x="626" y="706"/>
      <point x="617" y="674"/>
      <point x="617" y="636" type="curve" smooth="yes"/>
      <point x="617" y="407" type="line"/>
      <point x="222" y="407" type="line"/>
      <point x="222" y="681" type="line" smooth="yes"/>
      <point x="222" y="699"/>
      <point x="244" y="706"/>
      <point x="258" y="706" type="curve" smooth="yes"/>
      <point x="272" y="706"/>
      <point x="286" y="704"/>
      <point x="300" y="704" type="curve" smooth="yes"/>
      <point x="315" y="704"/>
      <point x="314" y="713"/>
      <point x="314" y="725" type="curve" smooth="yes"/>
      <point x="314" y="733"/>
      <point x="309" y="735"/>
      <point x="303" y="735" type="curve" smooth="yes"/>
      <point x="256" y="733"/>
      <point x="210" y="731"/>
      <point x="163" y="731" type="curve" smooth="yes"/>
      <point x="136" y="731"/>
      <point x="109" y="731"/>
      <point x="81" y="733" type="curve" smooth="yes"/>
      <point x="65" y="734"/>
      <point x="47" y="737"/>
      <point x="31" y="737" type="curve" smooth="yes"/>
      <point x="20" y="737"/>
      <point x="20" y="725"/>
      <point x="20" y="718" type="curve" smooth="yes"/>
      <point x="20" y="708"/>
      <point x="26" y="705"/>
      <point x="32" y="705" type="curve" smooth="yes"/>
      <point x="47" y="705"/>
      <point x="62" y="706"/>
      <point x="77" y="706" type="curve" smooth="yes"/>
      <point x="91" y="706"/>
      <point x="115" y="699"/>
      <point x="115" y="681" type="curve" smooth="yes"/>
      <point x="115" y="587"/>
      <point x="116" y="493"/>
      <point x="116" y="399" type="curve" smooth="yes"/>
      <point x="116" y="286"/>
      <point x="115" y="173"/>
      <point x="115" y="61" type="curve" smooth="yes"/>
      <point x="115" y="42"/>
      <point x="91" y="36"/>
      <point x="77" y="36" type="curve" smooth="yes"/>
      <point x="62" y="36"/>
      <point x="47" y="37"/>
      <point x="32" y="37" type="curve" smooth="yes"/>
      <point x="26" y="37"/>
      <point x="21" y="31"/>
      <point x="21" y="25" type="curve" smooth="yes"/>
      <point x="21" y="17"/>
      <point x="20" y="5"/>
      <point x="31" y="5" type="curve" smooth="yes"/>
      <point x="47" y="5"/>
      <point x="65" y="7"/>
      <point x="81" y="9" type="curve" smooth="yes"/>
      <point x="109" y="11"/>
      <point x="136" y="11"/>
      <point x="163" y="11" type="curve" smooth="yes"/>
      <point x="210" y="11"/>
      <point x="256" y="9"/>
      <point x="303" y="7" type="curve"/>
      <point x="308" y="9"/>
      <point x="313" y="10"/>
      <point x="313" y="19" type="curve" smooth="yes"/>
      <point x="313" y="30"/>
      <point x="315" y="38"/>
      <point x="301" y="38" type="curve" smooth="yes"/>
      <point x="287" y="38"/>
      <point x="273" y="36"/>
      <point x="258" y="36" type="curve" smooth="yes"/>
      <point x="244" y="36"/>
      <point x="222" y="43"/>
      <point x="222" y="61" type="curve" smooth="yes"/>
      <point x="222" y="371" type="line"/>
      <point x="617" y="371" type="line"/>
      <point x="617" y="61" type="line" smooth="yes"/>
      <point x="617" y="42"/>
      <point x="593" y="36"/>
      <point x="579" y="36" type="curve" smooth="yes"/>
      <point x="564" y="36"/>
      <point x="548" y="37"/>
      <point x="533" y="37" type="curve" smooth="yes"/>
      <point x="528" y="37"/>
      <point x="523" y="31"/>
      <point x="523" y="25" type="curve" smooth="yes"/>
      <point x="523" y="18"/>
      <point x="522" y="5"/>
      <point x="532" y="5" type="curve" smooth="yes"/>
      <point x="549" y="5"/>
      <point x="566" y="7"/>
      <point x="583" y="9" type="curve" smooth="yes"/>
      <point x="610" y="11"/>
      <point x="637" y="11"/>
      <point x="665" y="11" type="curve" smooth="yes"/>
      <point x="712" y="11"/>
      <point x="759" y="9"/>
      <point x="807" y="7" type="curve" smooth="yes"/>
      <point x="814" y="7"/>
      <point x="816" y="13"/>
      <point x="816" y="19" type="curve" smooth="yes"/>
      <point x="816" y="30"/>
      <point x="818" y="38"/>
      <point x="804" y="38" type="curve" smooth="yes"/>
      <point x="790" y="38"/>
      <point x="776" y="36"/>
      <point x="762" y="36" type="curve" smooth="yes"/>
      <point x="748" y="36"/>
      <point x="726" y="43"/>
      <point x="726" y="61" type="curve" smooth="yes"/>
      <point x="726" y="182"/>
      <point x="726" y="290"/>
      <point x="726" y="411" type="curve" smooth="yes"/>
      <point x="726" y="681" type="line" smooth="yes"/>
      <point x="726" y="699"/>
      <point x="748" y="706"/>
      <point x="762" y="706" type="curve" smooth="yes"/>
      <point x="776" y="706"/>
      <point x="788" y="705"/>
      <point x="802" y="705" type="curve" smooth="yes"/>
      <point x="816" y="705"/>
      <point x="818" y="712"/>
    </contour>
  </outline>
</glyph>
<glyph name="I" format="2">
  <advance width="413"/>
  <unicode hex="0049"/>
  <note>
cid00042
</note>
  <outline>
    <contour>
      <point x="347" y="25" type="curve" smooth="yes"/>
      <point x="347" y="34"/>
      <point x="345" y="38"/>
      <point x="334" y="38" type="curve" smooth="yes"/>
      <point x="320" y="38"/>
      <point x="303" y="37"/>
      <point x="289" y="37" type="curve" smooth="yes"/>
      <point x="275" y="37"/>
      <point x="256" y="43"/>
      <point x="256" y="61" type="curve" smooth="yes"/>
      <point x="256" y="390" type="line"/>
      <point x="256" y="678" type="line" smooth="yes"/>
      <point x="256" y="696"/>
      <point x="278" y="706"/>
      <point x="292" y="706" type="curve" smooth="yes"/>
      <point x="306" y="706"/>
      <point x="320" y="705"/>
      <point x="334" y="705" type="curve" smooth="yes"/>
      <point x="345" y="705"/>
      <point x="347" y="712"/>
      <point x="347" y="722" type="curve" smooth="yes"/>
      <point x="347" y="729"/>
      <point x="344" y="735"/>
      <point x="335" y="735" type="curve" smooth="yes"/>
      <point x="331" y="735" type="line" smooth="yes"/>
      <point x="299" y="731"/>
      <point x="265" y="732"/>
      <point x="232" y="732" type="curve" smooth="yes"/>
      <point x="198" y="732" type="line" smooth="yes"/>
      <point x="153" y="732"/>
      <point x="105" y="736"/>
      <point x="60" y="736" type="curve" smooth="yes"/>
      <point x="56" y="736"/>
      <point x="50" y="734"/>
      <point x="50" y="723" type="curve" smooth="yes"/>
      <point x="50" y="714"/>
      <point x="48" y="704"/>
      <point x="61" y="704" type="curve" smooth="yes"/>
      <point x="115" y="705" type="line" smooth="yes"/>
      <point x="129" y="705"/>
      <point x="148" y="696"/>
      <point x="148" y="678" type="curve" smooth="yes"/>
      <point x="148" y="397" type="line"/>
      <point x="148" y="61" type="line" smooth="yes"/>
      <point x="148" y="42"/>
      <point x="121" y="36"/>
      <point x="107" y="36" type="curve" smooth="yes"/>
      <point x="91" y="36"/>
      <point x="76" y="37"/>
      <point x="61" y="37" type="curve" smooth="yes"/>
      <point x="50" y="37"/>
      <point x="48" y="29"/>
      <point x="48" y="21" type="curve" smooth="yes"/>
      <point x="48" y="10"/>
      <point x="53" y="5"/>
      <point x="59" y="5" type="curve" smooth="yes"/>
      <point x="103" y="8"/>
      <point x="151" y="11"/>
      <point x="195" y="11" type="curve" smooth="yes"/>
      <point x="242" y="11"/>
      <point x="290" y="9"/>
      <point x="337" y="7" type="curve"/>
      <point x="344" y="8"/>
      <point x="347" y="13"/>
    </contour>
  </outline>
</glyph>
<glyph name="J" format="2">
  <advance width="456"/>
  <unicode hex="004A"/>
  <note>
cid00043
</note>
  <outline>
    <contour>
      <point x="454" y="722" type="curve" smooth="yes"/>
      <point x="454" y="731"/>
      <point x="449" y="737"/>
      <point x="440" y="737" type="curve" smooth="yes"/>
      <point x="385" y="737"/>
      <point x="330" y="732"/>
      <point x="275" y="732" type="curve" smooth="yes"/>
      <point x="236" y="732"/>
      <point x="197" y="734"/>
      <point x="159" y="735" type="curve" smooth="yes"/>
      <point x="145" y="736"/>
      <point x="131" y="737"/>
      <point x="118" y="737" type="curve" smooth="yes"/>
      <point x="107" y="737"/>
      <point x="102" y="731"/>
      <point x="102" y="721" type="curve" smooth="yes"/>
      <point x="102" y="712"/>
      <point x="109" y="705"/>
      <point x="118" y="705" type="curve" smooth="yes"/>
      <point x="131" y="705"/>
      <point x="144" y="707"/>
      <point x="157" y="707" type="curve" smooth="yes"/>
      <point x="178" y="707"/>
      <point x="224" y="708"/>
      <point x="224" y="677" type="curve" smooth="yes"/>
      <point x="225" y="643" type="line"/>
      <point x="225" y="535" type="line"/>
      <point x="225" y="94" type="line" smooth="yes"/>
      <point x="225" y="52"/>
      <point x="225" y="9"/>
      <point x="218" y="-33" type="curve" smooth="yes"/>
      <point x="210" y="-82"/>
      <point x="152" y="-106"/>
      <point x="108" y="-106" type="curve" smooth="yes"/>
      <point x="86" y="-106"/>
      <point x="61" y="-100"/>
      <point x="61" y="-72" type="curve" smooth="yes"/>
      <point x="61" y="-63"/>
      <point x="62" y="-55"/>
      <point x="62" y="-46" type="curve" smooth="yes"/>
      <point x="62" y="-26"/>
      <point x="27" y="-16"/>
      <point x="11" y="-16" type="curve" smooth="yes"/>
      <point x="-20" y="-16"/>
      <point x="-53" y="-37"/>
      <point x="-53" y="-72" type="curve" smooth="yes"/>
      <point x="-53" y="-139"/>
      <point x="61" y="-138"/>
      <point x="105" y="-138" type="curve" smooth="yes"/>
      <point x="275" y="-138"/>
      <point x="337" y="-27"/>
      <point x="337" y="133" type="curve" smooth="yes"/>
      <point x="337" y="303"/>
      <point x="336" y="473"/>
      <point x="338" y="643" type="curve" smooth="yes"/>
      <point x="338" y="677" type="line" smooth="yes"/>
      <point x="339" y="696"/>
      <point x="364" y="707"/>
      <point x="380" y="707" type="curve" smooth="yes"/>
      <point x="400" y="707"/>
      <point x="419" y="705"/>
      <point x="439" y="705" type="curve" smooth="yes"/>
      <point x="450" y="705"/>
      <point x="454" y="712"/>
    </contour>
  </outline>
</glyph>
<glyph name="K" format="2">
  <advance width="720"/>
  <unicode hex="004B"/>
  <note>
cid00044
</note>
  <outline>
    <contour>
      <point x="728" y="22" type="curve" smooth="yes"/>
      <point x="728" y="33"/>
      <point x="719" y="33"/>
      <point x="711" y="34" type="curve" smooth="yes"/>
      <point x="686" y="38"/>
      <point x="664" y="42"/>
      <point x="647" y="62" type="curve" smooth="yes"/>
      <point x="549" y="170"/>
      <point x="428" y="318"/>
      <point x="335" y="437" type="curve"/>
      <point x="580" y="671" type="line" smooth="yes"/>
      <point x="608" y="698"/>
      <point x="640" y="706"/>
      <point x="677" y="706" type="curve" smooth="yes"/>
      <point x="684" y="706"/>
      <point x="690" y="713"/>
      <point x="690" y="721" type="curve" smooth="yes"/>
      <point x="690" y="726"/>
      <point x="686" y="735"/>
      <point x="679" y="735" type="curve" smooth="yes"/>
      <point x="664" y="735"/>
      <point x="644" y="733"/>
      <point x="628" y="733" type="curve" smooth="yes"/>
      <point x="609" y="733"/>
      <point x="589" y="735"/>
      <point x="569" y="735" type="curve" smooth="yes"/>
      <point x="561" y="735"/>
      <point x="556" y="730"/>
      <point x="551" y="724" type="curve" smooth="yes"/>
      <point x="512" y="668"/>
      <point x="465" y="619"/>
      <point x="417" y="570" type="curve" smooth="yes"/>
      <point x="355" y="507"/>
      <point x="291" y="445"/>
      <point x="225" y="384" type="curve"/>
      <point x="227" y="484"/>
      <point x="227" y="585"/>
      <point x="227" y="684" type="curve" smooth="yes"/>
      <point x="227" y="699"/>
      <point x="244" y="709"/>
      <point x="257" y="709" type="curve" smooth="yes"/>
      <point x="272" y="709"/>
      <point x="287" y="708"/>
      <point x="302" y="708" type="curve" smooth="yes"/>
      <point x="310" y="708"/>
      <point x="315" y="713"/>
      <point x="315" y="722" type="curve" smooth="yes"/>
      <point x="315" y="733"/>
      <point x="310" y="738"/>
      <point x="300" y="738" type="curve" smooth="yes"/>
      <point x="297" y="738" type="line" smooth="yes"/>
      <point x="256" y="736"/>
      <point x="215" y="734"/>
      <point x="174" y="734" type="curve" smooth="yes"/>
      <point x="144" y="734"/>
      <point x="115" y="734"/>
      <point x="86" y="735" type="curve" smooth="yes"/>
      <point x="69" y="736"/>
      <point x="53" y="738"/>
      <point x="36" y="738" type="curve" smooth="yes"/>
      <point x="26" y="738"/>
      <point x="25" y="730"/>
      <point x="25" y="722" type="curve" smooth="yes"/>
      <point x="25" y="712"/>
      <point x="31" y="708"/>
      <point x="41" y="708" type="curve" smooth="yes"/>
      <point x="49" y="708"/>
      <point x="58" y="709"/>
      <point x="66" y="709" type="curve" smooth="yes"/>
      <point x="88" y="709" type="line" smooth="yes"/>
      <point x="99" y="709"/>
      <point x="120" y="697"/>
      <point x="120" y="684" type="curve" smooth="yes"/>
      <point x="121" y="673"/>
      <point x="121" y="662"/>
      <point x="121" y="650" type="curve" smooth="yes"/>
      <point x="121" y="94" type="line" smooth="yes"/>
      <point x="121" y="82"/>
      <point x="121" y="71"/>
      <point x="120" y="60" type="curve" smooth="yes"/>
      <point x="120" y="35"/>
      <point x="83" y="35"/>
      <point x="66" y="35" type="curve" smooth="yes"/>
      <point x="59" y="35"/>
      <point x="50" y="36"/>
      <point x="43" y="35" type="curve" smooth="yes"/>
      <point x="33" y="34"/>
      <point x="30" y="32"/>
      <point x="30" y="21" type="curve" smooth="yes"/>
      <point x="30" y="13"/>
      <point x="32" y="10"/>
      <point x="39" y="6" type="curve"/>
      <point x="84" y="9"/>
      <point x="129" y="10"/>
      <point x="174" y="10" type="curve" smooth="yes"/>
      <point x="219" y="10"/>
      <point x="263" y="6"/>
      <point x="308" y="6" type="curve" smooth="yes"/>
      <point x="316" y="6"/>
      <point x="322" y="12"/>
      <point x="322" y="21" type="curve" smooth="yes"/>
      <point x="322" y="31"/>
      <point x="315" y="35"/>
      <point x="306" y="35" type="curve" smooth="yes"/>
      <point x="285" y="35"/>
      <point x="227" y="27"/>
      <point x="227" y="60" type="curve" smooth="yes"/>
      <point x="227" y="155"/>
      <point x="226" y="251"/>
      <point x="226" y="346" type="curve"/>
      <point x="259" y="373" type="line"/>
      <point x="348" y="263"/>
      <point x="434" y="151"/>
      <point x="516" y="36" type="curve" smooth="yes"/>
      <point x="520" y="30"/>
      <point x="525" y="25"/>
      <point x="530" y="20" type="curve" smooth="yes"/>
      <point x="540" y="10"/>
      <point x="551" y="8"/>
      <point x="566" y="7" type="curve" smooth="yes"/>
      <point x="589" y="6"/>
      <point x="612" y="7"/>
      <point x="636" y="7" type="curve" smooth="yes"/>
      <point x="715" y="7" type="line" smooth="yes"/>
      <point x="722" y="7"/>
      <point x="728" y="17"/>
    </contour>
  </outline>
</glyph>
<glyph name="L" format="2">
  <advance width="674"/>
  <unicode hex="004C"/>
  <note>
cid00045
</note>
  <outline>
    <contour>
      <point x="657" y="232" type="curve" smooth="yes"/>
      <point x="657" y="237"/>
      <point x="653" y="242"/>
      <point x="648" y="242" type="curve" smooth="yes"/>
      <point x="639" y="242"/>
      <point x="632" y="242"/>
      <point x="629" y="232" type="curve" smooth="yes"/>
      <point x="613" y="185"/>
      <point x="598" y="145"/>
      <point x="566" y="107" type="curve" smooth="yes"/>
      <point x="542" y="79"/>
      <point x="504" y="59"/>
      <point x="468" y="52" type="curve" smooth="yes"/>
      <point x="414" y="43"/>
      <point x="358" y="41"/>
      <point x="304" y="41" type="curve" smooth="yes"/>
      <point x="281" y="41"/>
      <point x="230" y="39"/>
      <point x="230" y="73" type="curve" smooth="yes"/>
      <point x="230" y="110" type="line"/>
      <point x="230" y="255" type="line" smooth="yes"/>
      <point x="230" y="349"/>
      <point x="229" y="443"/>
      <point x="229" y="536" type="curve" smooth="yes"/>
      <point x="229" y="573"/>
      <point x="230" y="610"/>
      <point x="230" y="646" type="curve" smooth="yes"/>
      <point x="230" y="678" type="line" smooth="yes"/>
      <point x="230" y="706"/>
      <point x="268" y="707"/>
      <point x="287" y="707" type="curve" smooth="yes"/>
      <point x="299" y="707"/>
      <point x="311" y="705"/>
      <point x="323" y="705" type="curve" smooth="yes"/>
      <point x="333" y="705"/>
      <point x="335" y="718"/>
      <point x="335" y="725" type="curve" smooth="yes"/>
      <point x="335" y="730"/>
      <point x="327" y="737"/>
      <point x="323" y="737" type="curve" smooth="yes"/>
      <point x="275" y="737"/>
      <point x="226" y="733"/>
      <point x="178" y="733" type="curve" smooth="yes"/>
      <point x="131" y="733"/>
      <point x="85" y="734"/>
      <point x="39" y="737" type="curve"/>
      <point x="30" y="732"/>
      <point x="29" y="732"/>
      <point x="29" y="721" type="curve" smooth="yes"/>
      <point x="29" y="716"/>
      <point x="31" y="703"/>
      <point x="38" y="703" type="curve" smooth="yes"/>
      <point x="50" y="703"/>
      <point x="63" y="707"/>
      <point x="76" y="707" type="curve" smooth="yes"/>
      <point x="123" y="707"/>
      <point x="120" y="691"/>
      <point x="120" y="646" type="curve" smooth="yes"/>
      <point x="120" y="62" type="line" smooth="yes"/>
      <point x="120" y="33"/>
      <point x="84" y="36"/>
      <point x="64" y="36" type="curve" smooth="yes"/>
      <point x="57" y="36"/>
      <point x="50" y="37"/>
      <point x="43" y="37" type="curve" smooth="yes"/>
      <point x="32" y="37"/>
      <point x="26" y="34"/>
      <point x="26" y="22" type="curve" smooth="yes"/>
      <point x="26" y="9"/>
      <point x="33" y="5"/>
      <point x="44" y="6" type="curve" smooth="yes"/>
      <point x="47" y="6" type="line" smooth="yes"/>
      <point x="90" y="7"/>
      <point x="133" y="9"/>
      <point x="176" y="10" type="curve" smooth="yes"/>
      <point x="253" y="12"/>
      <point x="330" y="13"/>
      <point x="408" y="13" type="curve" smooth="yes"/>
      <point x="562" y="13" type="line" smooth="yes"/>
      <point x="576" y="12"/>
      <point x="590" y="11"/>
      <point x="604" y="11" type="curve" smooth="yes"/>
      <point x="611" y="11"/>
      <point x="618" y="13"/>
      <point x="624" y="19" type="curve" smooth="yes"/>
      <point x="628" y="24"/>
      <point x="628" y="30"/>
      <point x="629" y="37" type="curve" smooth="yes"/>
      <point x="638" y="92"/>
      <point x="644" y="147"/>
      <point x="653" y="201" type="curve" smooth="yes"/>
      <point x="655" y="211"/>
      <point x="657" y="222"/>
    </contour>
  </outline>
</glyph>
<glyph name="M" format="2">
  <advance width="947"/>
  <unicode hex="004D"/>
  <note>
cid00046
</note>
  <outline>
    <contour>
      <point x="938" y="21" type="curve" smooth="yes"/>
      <point x="938" y="31"/>
      <point x="935" y="39"/>
      <point x="924" y="39" type="curve" smooth="yes"/>
      <point x="908" y="39"/>
      <point x="891" y="37"/>
      <point x="874" y="37" type="curve" smooth="yes"/>
      <point x="825" y="37"/>
      <point x="830" y="55"/>
      <point x="830" y="98" type="curve" smooth="yes"/>
      <point x="830" y="277" type="line"/>
      <point x="830" y="369" type="line"/>
      <point x="830" y="682" type="line" smooth="yes"/>
      <point x="830" y="700"/>
      <point x="860" y="706"/>
      <point x="874" y="706" type="curve" smooth="yes"/>
      <point x="891" y="706"/>
      <point x="907" y="704"/>
      <point x="923" y="704" type="curve" smooth="yes"/>
      <point x="932" y="704"/>
      <point x="935" y="715"/>
      <point x="935" y="722" type="curve" smooth="yes"/>
      <point x="935" y="729"/>
      <point x="932" y="739"/>
      <point x="923" y="739" type="curve" smooth="yes"/>
      <point x="884" y="739"/>
      <point x="844" y="734"/>
      <point x="805" y="734" type="curve" smooth="yes"/>
      <point x="771" y="734"/>
      <point x="737" y="735"/>
      <point x="702" y="736" type="curve"/>
      <point x="635" y="547"/>
      <point x="551" y="364"/>
      <point x="478" y="177" type="curve"/>
      <point x="244" y="738" type="line"/>
      <point x="218" y="736"/>
      <point x="192" y="735"/>
      <point x="166" y="735" type="curve" smooth="yes"/>
      <point x="138" y="735"/>
      <point x="109" y="735"/>
      <point x="81" y="736" type="curve" smooth="yes"/>
      <point x="65" y="736"/>
      <point x="49" y="738"/>
      <point x="34" y="738" type="curve" smooth="yes"/>
      <point x="24" y="738"/>
      <point x="20" y="731"/>
      <point x="20" y="722" type="curve" smooth="yes"/>
      <point x="20" y="715"/>
      <point x="24" y="705"/>
      <point x="33" y="705" type="curve" smooth="yes"/>
      <point x="45" y="705"/>
      <point x="57" y="707"/>
      <point x="69" y="707" type="curve" smooth="yes"/>
      <point x="87" y="707"/>
      <point x="116" y="701"/>
      <point x="116" y="678" type="curve" smooth="yes"/>
      <point x="116" y="537"/>
      <point x="114" y="396"/>
      <point x="114" y="255" type="curve" smooth="yes"/>
      <point x="114" y="190"/>
      <point x="115" y="126"/>
      <point x="114" y="62" type="curve" smooth="yes"/>
      <point x="113" y="32"/>
      <point x="68" y="36"/>
      <point x="48" y="36" type="curve" smooth="yes"/>
      <point x="36" y="36"/>
      <point x="19" y="42"/>
      <point x="19" y="24" type="curve" smooth="yes"/>
      <point x="19" y="18"/>
      <point x="19" y="12"/>
      <point x="23" y="8" type="curve"/>
      <point x="26" y="7"/>
      <point x="30" y="7"/>
      <point x="34" y="7" type="curve" smooth="yes"/>
      <point x="66" y="7"/>
      <point x="98" y="11"/>
      <point x="131" y="11" type="curve" smooth="yes"/>
      <point x="167" y="11"/>
      <point x="204" y="7"/>
      <point x="240" y="7" type="curve" smooth="yes"/>
      <point x="248" y="7"/>
      <point x="251" y="17"/>
      <point x="251" y="23" type="curve" smooth="yes"/>
      <point x="251" y="29"/>
      <point x="251" y="39"/>
      <point x="243" y="39" type="curve" smooth="yes"/>
      <point x="230" y="39"/>
      <point x="217" y="37"/>
      <point x="204" y="37" type="curve" smooth="yes"/>
      <point x="185" y="37"/>
      <point x="156" y="35"/>
      <point x="156" y="62" type="curve" smooth="yes"/>
      <point x="156" y="263"/>
      <point x="155" y="464"/>
      <point x="155" y="665" type="curve"/>
      <point x="331" y="243" type="line" smooth="yes"/>
      <point x="360" y="177"/>
      <point x="387" y="109"/>
      <point x="417" y="43" type="curve" smooth="yes"/>
      <point x="421" y="34"/>
      <point x="431" y="30"/>
      <point x="441" y="30" type="curve" smooth="yes"/>
      <point x="450" y="30"/>
      <point x="461" y="34"/>
      <point x="465" y="43" type="curve" smooth="yes"/>
      <point x="476" y="67"/>
      <point x="485" y="91"/>
      <point x="495" y="115" type="curve" smooth="yes"/>
      <point x="518" y="169"/>
      <point x="540" y="223"/>
      <point x="563" y="278" type="curve" smooth="yes"/>
      <point x="618" y="412"/>
      <point x="672" y="548"/>
      <point x="723" y="684" type="curve"/>
      <point x="723" y="96" type="line"/>
      <point x="723" y="62" type="line" smooth="yes"/>
      <point x="723" y="33"/>
      <point x="675" y="38"/>
      <point x="657" y="38" type="curve" smooth="yes"/>
      <point x="645" y="38"/>
      <point x="626" y="44"/>
      <point x="626" y="24" type="curve" smooth="yes"/>
      <point x="626" y="13"/>
      <point x="630" y="4"/>
      <point x="642" y="4" type="curve" smooth="yes"/>
      <point x="664" y="4"/>
      <point x="687" y="8"/>
      <point x="709" y="8" type="curve" smooth="yes"/>
      <point x="732" y="9"/>
      <point x="754" y="11"/>
      <point x="777" y="11" type="curve" smooth="yes"/>
      <point x="825" y="11"/>
      <point x="874" y="6"/>
      <point x="922" y="6" type="curve" smooth="yes"/>
      <point x="930" y="6"/>
      <point x="938" y="12"/>
    </contour>
  </outline>
</glyph>
<glyph name="N" format="2">
  <advance width="777"/>
  <unicode hex="004E"/>
  <note>
cid00047
</note>
  <outline>
    <contour>
      <point x="768" y="720" type="curve" smooth="yes"/>
      <point x="768" y="731"/>
      <point x="768" y="733"/>
      <point x="758" y="739" type="curve"/>
      <point x="708" y="735"/>
      <point x="658" y="734"/>
      <point x="608" y="734" type="curve" smooth="yes"/>
      <point x="589" y="734"/>
      <point x="569" y="737"/>
      <point x="550" y="737" type="curve" smooth="yes"/>
      <point x="536" y="737"/>
      <point x="536" y="730"/>
      <point x="536" y="719" type="curve" smooth="yes"/>
      <point x="536" y="713"/>
      <point x="538" y="703"/>
      <point x="546" y="703" type="curve" smooth="yes"/>
      <point x="562" y="703"/>
      <point x="579" y="705"/>
      <point x="595" y="705" type="curve" smooth="yes"/>
      <point x="609" y="705"/>
      <point x="633" y="698"/>
      <point x="633" y="680" type="curve" smooth="yes"/>
      <point x="633" y="561"/>
      <point x="634" y="441"/>
      <point x="634" y="321" type="curve" smooth="yes"/>
      <point x="634" y="287"/>
      <point x="634" y="252"/>
      <point x="633" y="218" type="curve"/>
      <point x="544" y="325"/>
      <point x="455" y="432"/>
      <point x="366" y="541" type="curve" smooth="yes"/>
      <point x="314" y="605"/>
      <point x="261" y="669"/>
      <point x="212" y="735" type="curve"/>
      <point x="187" y="735"/>
      <point x="161" y="734"/>
      <point x="136" y="734" type="curve" smooth="yes"/>
      <point x="102" y="734"/>
      <point x="67" y="737"/>
      <point x="33" y="737" type="curve" smooth="yes"/>
      <point x="20" y="737"/>
      <point x="18" y="729"/>
      <point x="18" y="718" type="curve" smooth="yes"/>
      <point x="18" y="709"/>
      <point x="26" y="706"/>
      <point x="34" y="706" type="curve" smooth="yes"/>
      <point x="41" y="706"/>
      <point x="49" y="707"/>
      <point x="56" y="707" type="curve" smooth="yes"/>
      <point x="82" y="707"/>
      <point x="114" y="708"/>
      <point x="114" y="673" type="curve" smooth="yes"/>
      <point x="114" y="533"/>
      <point x="110" y="394"/>
      <point x="110" y="254" type="curve" smooth="yes"/>
      <point x="110" y="190"/>
      <point x="111" y="126"/>
      <point x="110" y="61" type="curve" smooth="yes"/>
      <point x="110" y="30"/>
      <point x="75" y="36"/>
      <point x="53" y="36" type="curve" smooth="yes"/>
      <point x="40" y="36"/>
      <point x="18" y="43"/>
      <point x="18" y="23" type="curve" smooth="yes"/>
      <point x="18" y="15"/>
      <point x="17" y="4"/>
      <point x="29" y="4" type="curve" smooth="yes"/>
      <point x="65" y="4"/>
      <point x="101" y="9"/>
      <point x="137" y="9" type="curve" smooth="yes"/>
      <point x="158" y="9"/>
      <point x="179" y="9"/>
      <point x="200" y="8" type="curve" smooth="yes"/>
      <point x="212" y="7"/>
      <point x="225" y="4"/>
      <point x="237" y="4" type="curve" smooth="yes"/>
      <point x="250" y="4"/>
      <point x="253" y="10"/>
      <point x="253" y="23" type="curve" smooth="yes"/>
      <point x="253" y="31"/>
      <point x="252" y="39"/>
      <point x="242" y="39" type="curve" smooth="yes"/>
      <point x="232" y="39"/>
      <point x="221" y="37"/>
      <point x="211" y="37" type="curve" smooth="yes"/>
      <point x="192" y="37"/>
      <point x="156" y="34"/>
      <point x="156" y="61" type="curve" smooth="yes"/>
      <point x="156" y="648" type="line"/>
      <point x="293" y="460"/>
      <point x="436" y="280"/>
      <point x="579" y="92" type="curve" smooth="yes"/>
      <point x="597" y="69"/>
      <point x="614" y="37"/>
      <point x="618" y="8" type="curve"/>
      <point x="666" y="8" type="line" smooth="yes"/>
      <point x="672" y="8"/>
      <point x="677" y="14"/>
      <point x="677" y="19" type="curve" smooth="yes"/>
      <point x="677" y="646" type="line"/>
      <point x="677" y="680" type="line" smooth="yes"/>
      <point x="677" y="708"/>
      <point x="716" y="705"/>
      <point x="735" y="705" type="curve" smooth="yes"/>
      <point x="749" y="705"/>
      <point x="768" y="698"/>
    </contour>
  </outline>
</glyph>
<glyph name="O" format="2">
  <advance width="801"/>
  <unicode hex="004F"/>
  <note>
cid00048
</note>
  <outline>
    <contour>
      <point x="754" y="377" type="curve" smooth="yes"/>
      <point x="754" y="597"/>
      <point x="622" y="741"/>
      <point x="401" y="741" type="curve" smooth="yes"/>
      <point x="190" y="741"/>
      <point x="47" y="575"/>
      <point x="47" y="368" type="curve" smooth="yes"/>
      <point x="47" y="148"/>
      <point x="179" y="5"/>
      <point x="401" y="5" type="curve" smooth="yes"/>
      <point x="628" y="5"/>
      <point x="754" y="153"/>
    </contour>
    <contour>
      <point x="640" y="373" type="curve" smooth="yes"/>
      <point x="640" y="218"/>
      <point x="584" y="37"/>
      <point x="401" y="37" type="curve" smooth="yes"/>
      <point x="218" y="37"/>
      <point x="161" y="212"/>
      <point x="161" y="368" type="curve" smooth="yes"/>
      <point x="161" y="515"/>
      <point x="225" y="710"/>
      <point x="401" y="710" type="curve" smooth="yes"/>
      <point x="582" y="710"/>
      <point x="640" y="525"/>
    </contour>
  </outline>
</glyph>
<glyph name="P" format="2">
  <advance width="632"/>
  <unicode hex="0050"/>
  <note>
cid00049
</note>
  <outline>
    <contour>
      <point x="618" y="559" type="curve" smooth="yes"/>
      <point x="618" y="693"/>
      <point x="486" y="738"/>
      <point x="374" y="738" type="curve" smooth="yes"/>
      <point x="305" y="738"/>
      <point x="236" y="734"/>
      <point x="166" y="734" type="curve" smooth="yes"/>
      <point x="122" y="734"/>
      <point x="78" y="738"/>
      <point x="34" y="738" type="curve" smooth="yes"/>
      <point x="23" y="738"/>
      <point x="23" y="728"/>
      <point x="23" y="720" type="curve" smooth="yes"/>
      <point x="23" y="713"/>
      <point x="25" y="707"/>
      <point x="33" y="707" type="curve" smooth="yes"/>
      <point x="45" y="707"/>
      <point x="57" y="709"/>
      <point x="69" y="709" type="curve" smooth="yes"/>
      <point x="86" y="709"/>
      <point x="114" y="708"/>
      <point x="114" y="684" type="curve" smooth="yes"/>
      <point x="114" y="601"/>
      <point x="115" y="524"/>
      <point x="115" y="444" type="curve" smooth="yes"/>
      <point x="115" y="310" type="line" smooth="yes"/>
      <point x="115" y="227"/>
      <point x="115" y="144"/>
      <point x="114" y="61" type="curve" smooth="yes"/>
      <point x="113" y="36"/>
      <point x="88" y="37"/>
      <point x="69" y="37" type="curve" smooth="yes"/>
      <point x="58" y="37"/>
      <point x="46" y="38"/>
      <point x="35" y="38" type="curve" smooth="yes"/>
      <point x="25" y="38"/>
      <point x="23" y="30"/>
      <point x="23" y="21" type="curve" smooth="yes"/>
      <point x="23" y="9"/>
      <point x="24" y="9"/>
      <point x="33" y="6" type="curve"/>
      <point x="79" y="8"/>
      <point x="125" y="11"/>
      <point x="172" y="11" type="curve" smooth="yes"/>
      <point x="216" y="11"/>
      <point x="260" y="7"/>
      <point x="305" y="7" type="curve" smooth="yes"/>
      <point x="314" y="7" type="line" smooth="yes"/>
      <point x="322" y="7"/>
      <point x="326" y="17"/>
      <point x="326" y="24" type="curve" smooth="yes"/>
      <point x="326" y="33"/>
      <point x="325" y="40"/>
      <point x="315" y="40" type="curve" smooth="yes"/>
      <point x="306" y="40"/>
      <point x="297" y="39"/>
      <point x="289" y="39" type="curve" smooth="yes"/>
      <point x="262" y="39" type="line" smooth="yes"/>
      <point x="245" y="38"/>
      <point x="224" y="42"/>
      <point x="224" y="63" type="curve" smooth="yes"/>
      <point x="224" y="358" type="line"/>
      <point x="258" y="353"/>
      <point x="293" y="348"/>
      <point x="328" y="348" type="curve" smooth="yes"/>
      <point x="471" y="348"/>
      <point x="618" y="384"/>
    </contour>
    <contour>
      <point x="503" y="556" type="curve" smooth="yes"/>
      <point x="503" y="442"/>
      <point x="443" y="381"/>
      <point x="332" y="381" type="curve" smooth="yes"/>
      <point x="300" y="381"/>
      <point x="250" y="383"/>
      <point x="223" y="403" type="curve"/>
      <point x="223" y="684" type="line" smooth="yes"/>
      <point x="223" y="697"/>
      <point x="238" y="706"/>
      <point x="250" y="706" type="curve" smooth="yes"/>
      <point x="278" y="706"/>
      <point x="306" y="707"/>
      <point x="334" y="707" type="curve" smooth="yes"/>
      <point x="430" y="707"/>
      <point x="503" y="662"/>
    </contour>
  </outline>
</glyph>
<glyph name="Q" format="2">
  <advance width="807"/>
  <unicode hex="0051"/>
  <note>
cid00050
</note>
  <outline>
    <contour>
      <point x="802" y="-33" type="curve" smooth="yes"/>
      <point x="802" y="-28"/>
      <point x="796" y="-25"/>
      <point x="791" y="-25" type="curve" smooth="yes"/>
      <point x="786" y="-25"/>
      <point x="777" y="-36"/>
      <point x="772" y="-40" type="curve" smooth="yes"/>
      <point x="760" y="-48"/>
      <point x="728" y="-56"/>
      <point x="714" y="-56" type="curve" smooth="yes"/>
      <point x="639" y="-56"/>
      <point x="594" y="-17"/>
      <point x="549" y="39" type="curve"/>
      <point x="675" y="99"/>
      <point x="761" y="227"/>
      <point x="761" y="369" type="curve" smooth="yes"/>
      <point x="761" y="589"/>
      <point x="635" y="747"/>
      <point x="408" y="747" type="curve" smooth="yes"/>
      <point x="193" y="747"/>
      <point x="50" y="583"/>
      <point x="50" y="371" type="curve" smooth="yes"/>
      <point x="50" y="166"/>
      <point x="201" y="10"/>
      <point x="406" y="10" type="curve" smooth="yes"/>
      <point x="424" y="10"/>
      <point x="443" y="12"/>
      <point x="461" y="13" type="curve"/>
      <point x="520" y="-67"/>
      <point x="568" y="-109"/>
      <point x="672" y="-109" type="curve" smooth="yes"/>
      <point x="718" y="-109"/>
      <point x="763" y="-87"/>
      <point x="792" y="-51" type="curve" smooth="yes"/>
      <point x="794" y="-48"/>
      <point x="802" y="-37"/>
    </contour>
    <contour>
      <point x="642" y="369" type="curve" smooth="yes"/>
      <point x="642" y="279"/>
      <point x="631" y="183"/>
      <point x="569" y="114" type="curve" smooth="yes"/>
      <point x="555" y="98"/>
      <point x="539" y="86"/>
      <point x="523" y="73" type="curve"/>
      <point x="498" y="111"/>
      <point x="473" y="150"/>
      <point x="445" y="186" type="curve" smooth="yes"/>
      <point x="415" y="225"/>
      <point x="382" y="248"/>
      <point x="332" y="248" type="curve" smooth="yes"/>
      <point x="277" y="248"/>
      <point x="234" y="209"/>
      <point x="206" y="165" type="curve"/>
      <point x="171" y="223"/>
      <point x="163" y="302"/>
      <point x="163" y="369" type="curve" smooth="yes"/>
      <point x="163" y="511"/>
      <point x="228" y="714"/>
      <point x="398" y="714" type="curve" smooth="yes"/>
      <point x="576" y="714"/>
      <point x="642" y="519"/>
    </contour>
    <contour>
      <point x="445" y="41" type="curve"/>
      <point x="434" y="40"/>
      <point x="423" y="40"/>
      <point x="413" y="40" type="curve" smooth="yes"/>
      <point x="360" y="40"/>
      <point x="260" y="82"/>
      <point x="233" y="127" type="curve"/>
      <point x="239" y="158"/>
      <point x="275" y="203"/>
      <point x="308" y="203" type="curve" smooth="yes"/>
      <point x="324" y="203"/>
      <point x="336" y="200"/>
      <point x="348" y="191" type="curve" smooth="yes"/>
      <point x="372" y="173"/>
      <point x="428" y="72"/>
    </contour>
  </outline>
</glyph>
<glyph name="R" format="2">
  <advance width="707"/>
  <unicode hex="0052"/>
  <note>
cid00051
</note>
  <outline>
    <contour>
      <point x="714" y="22" type="curve" smooth="yes"/>
      <point x="714" y="36"/>
      <point x="686" y="31"/>
      <point x="677" y="33" type="curve" smooth="yes"/>
      <point x="645" y="39"/>
      <point x="623" y="56"/>
      <point x="604" y="83" type="curve" smooth="yes"/>
      <point x="535" y="181"/>
      <point x="468" y="280"/>
      <point x="407" y="384" type="curve"/>
      <point x="433" y="389"/>
      <point x="460" y="395"/>
      <point x="484" y="406" type="curve" smooth="yes"/>
      <point x="554" y="438"/>
      <point x="605" y="496"/>
      <point x="605" y="577" type="curve" smooth="yes"/>
      <point x="605" y="705"/>
      <point x="460" y="741"/>
      <point x="358" y="741" type="curve" smooth="yes"/>
      <point x="296" y="741"/>
      <point x="235" y="733"/>
      <point x="173" y="733" type="curve" smooth="yes"/>
      <point x="128" y="733"/>
      <point x="83" y="737"/>
      <point x="38" y="737" type="curve" smooth="yes"/>
      <point x="30" y="737"/>
      <point x="24" y="734"/>
      <point x="24" y="725" type="curve" smooth="yes"/>
      <point x="24" y="712"/>
      <point x="30" y="706"/>
      <point x="42" y="706" type="curve" smooth="yes"/>
      <point x="50" y="706"/>
      <point x="59" y="707"/>
      <point x="67" y="707" type="curve" smooth="yes"/>
      <point x="85" y="707"/>
      <point x="117" y="709"/>
      <point x="118" y="683" type="curve" smooth="yes"/>
      <point x="120" y="604"/>
      <point x="119" y="523"/>
      <point x="119" y="444" type="curve" smooth="yes"/>
      <point x="119" y="309" type="line" smooth="yes"/>
      <point x="119" y="227"/>
      <point x="120" y="143"/>
      <point x="118" y="61" type="curve" smooth="yes"/>
      <point x="117" y="38"/>
      <point x="86" y="36"/>
      <point x="69" y="36" type="curve" smooth="yes"/>
      <point x="58" y="36"/>
      <point x="47" y="37"/>
      <point x="35" y="37" type="curve" smooth="yes"/>
      <point x="26" y="37"/>
      <point x="20" y="32"/>
      <point x="20" y="23" type="curve" smooth="yes"/>
      <point x="20" y="15"/>
      <point x="25" y="6"/>
      <point x="33" y="6" type="curve" smooth="yes"/>
      <point x="65" y="6"/>
      <point x="96" y="9"/>
      <point x="127" y="9" type="curve" smooth="yes"/>
      <point x="187" y="9"/>
      <point x="246" y="6"/>
      <point x="306" y="6" type="curve" smooth="yes"/>
      <point x="316" y="6"/>
      <point x="325" y="8"/>
      <point x="325" y="21" type="curve" smooth="yes"/>
      <point x="325" y="28"/>
      <point x="322" y="39"/>
      <point x="313" y="39" type="curve" smooth="yes"/>
      <point x="295" y="39"/>
      <point x="277" y="37"/>
      <point x="259" y="37" type="curve" smooth="yes"/>
      <point x="244" y="37"/>
      <point x="226" y="42"/>
      <point x="226" y="61" type="curve" smooth="yes"/>
      <point x="226" y="374" type="line"/>
      <point x="306" y="377" type="line"/>
      <point x="366" y="270"/>
      <point x="427" y="162"/>
      <point x="491" y="57" type="curve" smooth="yes"/>
      <point x="522" y="8"/>
      <point x="551" y="3"/>
      <point x="605" y="3" type="curve" smooth="yes"/>
      <point x="632" y="3"/>
      <point x="675" y="3"/>
      <point x="701" y="11" type="curve" smooth="yes"/>
      <point x="706" y="12"/>
      <point x="714" y="15"/>
    </contour>
    <contour>
      <point x="488" y="558" type="curve" smooth="yes"/>
      <point x="488" y="437"/>
      <point x="387" y="403"/>
      <point x="284" y="403" type="curve" smooth="yes"/>
      <point x="265" y="403"/>
      <point x="244" y="403"/>
      <point x="225" y="408" type="curve"/>
      <point x="225" y="500"/>
      <point x="226" y="592"/>
      <point x="226" y="683" type="curve" smooth="yes"/>
      <point x="226" y="698"/>
      <point x="239" y="705"/>
      <point x="252" y="707" type="curve" smooth="yes"/>
      <point x="273" y="711"/>
      <point x="296" y="710"/>
      <point x="317" y="710" type="curve" smooth="yes"/>
      <point x="424" y="710"/>
      <point x="488" y="677"/>
    </contour>
  </outline>
</glyph>
<glyph name="T" format="2">
  <advance width="706"/>
  <unicode hex="0054"/>
  <note>
cid00053
</note>
  <outline>
    <contour>
      <point x="683" y="549" type="curve" smooth="yes"/>
      <point x="683" y="563"/>
      <point x="681" y="576"/>
      <point x="681" y="590" type="curve" smooth="yes"/>
      <point x="679" y="621"/>
      <point x="677" y="652"/>
      <point x="676" y="683" type="curve" smooth="yes"/>
      <point x="676" y="696"/>
      <point x="677" y="712"/>
      <point x="675" y="726" type="curve" smooth="yes"/>
      <point x="673" y="734"/>
      <point x="663" y="737"/>
      <point x="656" y="737" type="curve" smooth="yes"/>
      <point x="632" y="737"/>
      <point x="606" y="736"/>
      <point x="582" y="735" type="curve" smooth="yes"/>
      <point x="504" y="733"/>
      <point x="429" y="733"/>
      <point x="352" y="733" type="curve" smooth="yes"/>
      <point x="274" y="733"/>
      <point x="198" y="733"/>
      <point x="121" y="735" type="curve" smooth="yes"/>
      <point x="98" y="736"/>
      <point x="76" y="736"/>
      <point x="54" y="739" type="curve" smooth="yes"/>
      <point x="49" y="739" type="line" smooth="yes"/>
      <point x="39" y="739"/>
      <point x="33" y="735"/>
      <point x="32" y="725" type="curve" smooth="yes"/>
      <point x="31" y="713"/>
      <point x="32" y="699"/>
      <point x="32" y="686" type="curve" smooth="yes"/>
      <point x="32" y="657"/>
      <point x="30" y="627"/>
      <point x="28" y="598" type="curve" smooth="yes"/>
      <point x="27" y="581"/>
      <point x="23" y="562"/>
      <point x="23" y="546" type="curve" smooth="yes"/>
      <point x="23" y="536"/>
      <point x="27" y="533"/>
      <point x="37" y="533" type="curve" smooth="yes"/>
      <point x="43" y="533"/>
      <point x="46" y="534"/>
      <point x="49" y="539" type="curve" smooth="yes"/>
      <point x="55" y="549"/>
      <point x="67" y="623"/>
      <point x="74" y="643" type="curve" smooth="yes"/>
      <point x="96" y="711"/>
      <point x="129" y="704"/>
      <point x="191" y="704" type="curve" smooth="yes"/>
      <point x="216" y="704"/>
      <point x="242" y="705"/>
      <point x="267" y="702" type="curve" smooth="yes"/>
      <point x="280" y="700"/>
      <point x="294" y="685"/>
      <point x="294" y="671" type="curve" smooth="yes"/>
      <point x="294" y="556"/>
      <point x="295" y="440"/>
      <point x="295" y="318" type="curve" smooth="yes"/>
      <point x="294" y="66" type="line" smooth="yes"/>
      <point x="294" y="37"/>
      <point x="242" y="36"/>
      <point x="226" y="36" type="curve" smooth="yes"/>
      <point x="221" y="36"/>
      <point x="216" y="37"/>
      <point x="211" y="37" type="curve" smooth="yes"/>
      <point x="198" y="37"/>
      <point x="196" y="28"/>
      <point x="196" y="18" type="curve" smooth="yes"/>
      <point x="196" y="10"/>
      <point x="202" y="5"/>
      <point x="209" y="5" type="curve" smooth="yes"/>
      <point x="257" y="8"/>
      <point x="305" y="11"/>
      <point x="353" y="11" type="curve" smooth="yes"/>
      <point x="401" y="11"/>
      <point x="476" y="7"/>
      <point x="496" y="7" type="curve" smooth="yes"/>
      <point x="502" y="7"/>
      <point x="506" y="13"/>
      <point x="506" y="23" type="curve" smooth="yes"/>
      <point x="506" y="33"/>
      <point x="506" y="38"/>
      <point x="493" y="38" type="curve" smooth="yes"/>
      <point x="484" y="38"/>
      <point x="475" y="37"/>
      <point x="466" y="37" type="curve" smooth="yes"/>
      <point x="449" y="37"/>
      <point x="408" y="40"/>
      <point x="408" y="66" type="curve" smooth="yes"/>
      <point x="408" y="267"/>
      <point x="407" y="464"/>
      <point x="407" y="666" type="curve" smooth="yes"/>
      <point x="407" y="708"/>
      <point x="459" y="704"/>
      <point x="488" y="704" type="curve" smooth="yes"/>
      <point x="514" y="704"/>
      <point x="588" y="706"/>
      <point x="607" y="685" type="curve" smooth="yes"/>
      <point x="621" y="668"/>
      <point x="628" y="653"/>
      <point x="634" y="635" type="curve" smooth="yes"/>
      <point x="641" y="612"/>
      <point x="646" y="585"/>
      <point x="651" y="560" type="curve" smooth="yes"/>
      <point x="652" y="555"/>
      <point x="653" y="543"/>
      <point x="655" y="539" type="curve" smooth="yes"/>
      <point x="658" y="534"/>
      <point x="663" y="533"/>
      <point x="669" y="533" type="curve" smooth="yes"/>
      <point x="678" y="533"/>
      <point x="683" y="540"/>
    </contour>
  </outline>
</glyph>
<glyph name="V" format="2">
  <advance width="759"/>
  <unicode hex="0056"/>
  <note>
cid00055
</note>
  <outline>
    <contour>
      <point x="752" y="719" type="curve" smooth="yes"/>
      <point x="752" y="727"/>
      <point x="751" y="735"/>
      <point x="741" y="735" type="curve" smooth="yes"/>
      <point x="706" y="735"/>
      <point x="674" y="731"/>
      <point x="639" y="731" type="curve" smooth="yes"/>
      <point x="607" y="731"/>
      <point x="576" y="732"/>
      <point x="544" y="732" type="curve" smooth="yes"/>
      <point x="533" y="732"/>
      <point x="523" y="735"/>
      <point x="523" y="719" type="curve" smooth="yes"/>
      <point x="523" y="713"/>
      <point x="528" y="707"/>
      <point x="535" y="707" type="curve" smooth="yes"/>
      <point x="546" y="707"/>
      <point x="557" y="709"/>
      <point x="568" y="709" type="curve" smooth="yes"/>
      <point x="587" y="709"/>
      <point x="617" y="713"/>
      <point x="617" y="686" type="curve" smooth="yes"/>
      <point x="617" y="682" type="line"/>
      <point x="556" y="489"/>
      <point x="489" y="296"/>
      <point x="422" y="104" type="curve"/>
      <point x="355" y="286"/>
      <point x="287" y="468"/>
      <point x="226" y="652" type="curve" smooth="yes"/>
      <point x="214" y="689" type="line"/>
      <point x="214" y="712"/>
      <point x="247" y="708"/>
      <point x="263" y="708" type="curve" smooth="yes"/>
      <point x="275" y="708"/>
      <point x="286" y="705"/>
      <point x="298" y="705" type="curve" smooth="yes"/>
      <point x="308" y="705"/>
      <point x="312" y="711"/>
      <point x="312" y="720" type="curve" smooth="yes"/>
      <point x="312" y="730"/>
      <point x="308" y="734"/>
      <point x="298" y="734" type="curve" smooth="yes"/>
      <point x="252" y="734"/>
      <point x="205" y="731"/>
      <point x="159" y="731" type="curve" smooth="yes"/>
      <point x="115" y="731"/>
      <point x="73" y="730"/>
      <point x="29" y="732" type="curve" smooth="yes"/>
      <point x="22" y="732"/>
      <point x="16" y="732"/>
      <point x="16" y="717" type="curve" smooth="yes"/>
      <point x="16" y="702"/>
      <point x="30" y="703"/>
      <point x="40" y="703" type="curve" smooth="yes"/>
      <point x="65" y="703"/>
      <point x="80" y="703"/>
      <point x="97" y="680" type="curve" smooth="yes"/>
      <point x="110" y="662"/>
      <point x="119" y="639"/>
      <point x="126" y="619" type="curve" smooth="yes"/>
      <point x="177" y="479"/>
      <point x="231" y="340"/>
      <point x="283" y="201" type="curve" smooth="yes"/>
      <point x="306" y="141"/>
      <point x="328" y="80"/>
      <point x="351" y="20" type="curve" smooth="yes"/>
      <point x="357" y="5"/>
      <point x="367" y="-1"/>
      <point x="382" y="-1" type="curve" smooth="yes"/>
      <point x="426" y="-1" type="line"/>
      <point x="588" y="455" type="line" smooth="yes"/>
      <point x="615" y="531"/>
      <point x="640" y="606"/>
      <point x="667" y="682" type="curve" smooth="yes"/>
      <point x="675" y="702"/>
      <point x="696" y="709"/>
      <point x="712" y="709" type="curve" smooth="yes"/>
      <point x="722" y="709"/>
      <point x="731" y="707"/>
      <point x="740" y="707" type="curve" smooth="yes"/>
      <point x="747" y="707"/>
      <point x="752" y="712"/>
    </contour>
  </outline>
</glyph>
<glyph name="W" format="2">
  <advance width="1002"/>
  <unicode hex="0057"/>
  <note>
cid00056
</note>
  <outline>
    <contour>
      <point x="994" y="721" type="curve" smooth="yes"/>
      <point x="994" y="727"/>
      <point x="991" y="736"/>
      <point x="983" y="736" type="curve" smooth="yes"/>
      <point x="954" y="736"/>
      <point x="926" y="733"/>
      <point x="898" y="733" type="curve" smooth="yes"/>
      <point x="865" y="733"/>
      <point x="831" y="734"/>
      <point x="798" y="735" type="curve" smooth="yes"/>
      <point x="788" y="735"/>
      <point x="778" y="736"/>
      <point x="769" y="736" type="curve" smooth="yes"/>
      <point x="761" y="736"/>
      <point x="755" y="732"/>
      <point x="755" y="724" type="curve" smooth="yes"/>
      <point x="755" y="715"/>
      <point x="757" y="708"/>
      <point x="768" y="708" type="curve" smooth="yes"/>
      <point x="785" y="708"/>
      <point x="803" y="711"/>
      <point x="821" y="711" type="curve" smooth="yes"/>
      <point x="834" y="711"/>
      <point x="854" y="708"/>
      <point x="854" y="690" type="curve" smooth="yes"/>
      <point x="854" y="672"/>
      <point x="852" y="654"/>
      <point x="849" y="635" type="curve" smooth="yes"/>
      <point x="837" y="565"/>
      <point x="822" y="497"/>
      <point x="808" y="427" type="curve" smooth="yes"/>
      <point x="786" y="322"/>
      <point x="764" y="217"/>
      <point x="740" y="113" type="curve"/>
      <point x="701" y="246"/>
      <point x="662" y="380"/>
      <point x="624" y="513" type="curve" smooth="yes"/>
      <point x="611" y="557"/>
      <point x="599" y="601"/>
      <point x="586" y="645" type="curve" smooth="yes"/>
      <point x="579" y="668"/>
      <point x="574" y="691"/>
      <point x="566" y="712" type="curve" smooth="yes"/>
      <point x="562" y="725"/>
      <point x="552" y="728"/>
      <point x="539" y="728" type="curve" smooth="yes"/>
      <point x="523" y="728"/>
      <point x="519" y="723"/>
      <point x="514" y="709" type="curve" smooth="yes"/>
      <point x="495" y="652"/>
      <point x="478" y="595"/>
      <point x="460" y="538" type="curve" smooth="yes"/>
      <point x="414" y="399"/>
      <point x="369" y="260"/>
      <point x="322" y="122" type="curve"/>
      <point x="300" y="239"/>
      <point x="277" y="356"/>
      <point x="255" y="474" type="curve" smooth="yes"/>
      <point x="243" y="537"/>
      <point x="230" y="615"/>
      <point x="221" y="662" type="curve"/>
      <point x="219" y="668"/>
      <point x="219" y="675"/>
      <point x="219" y="681" type="curve" smooth="yes"/>
      <point x="219" y="707"/>
      <point x="242" y="705"/>
      <point x="262" y="705" type="curve" smooth="yes"/>
      <point x="296" y="704" type="line" smooth="yes"/>
      <point x="305" y="704"/>
      <point x="312" y="709"/>
      <point x="312" y="718" type="curve" smooth="yes"/>
      <point x="312" y="728"/>
      <point x="306" y="735"/>
      <point x="297" y="735" type="curve" smooth="yes"/>
      <point x="274" y="735"/>
      <point x="252" y="732"/>
      <point x="230" y="732" type="curve" smooth="yes"/>
      <point x="182" y="732" type="line" smooth="yes"/>
      <point x="147" y="732"/>
      <point x="113" y="732"/>
      <point x="77" y="733" type="curve" smooth="yes"/>
      <point x="61" y="733"/>
      <point x="49" y="736"/>
      <point x="33" y="736" type="curve" smooth="yes"/>
      <point x="23" y="736"/>
      <point x="19" y="731"/>
      <point x="19" y="722" type="curve" smooth="yes"/>
      <point x="19" y="711"/>
      <point x="22" y="702"/>
      <point x="35" y="702" type="curve" smooth="yes"/>
      <point x="66" y="702"/>
      <point x="93" y="706"/>
      <point x="103" y="666" type="curve" smooth="yes"/>
      <point x="116" y="613"/>
      <point x="126" y="563"/>
      <point x="137" y="510" type="curve" smooth="yes"/>
      <point x="207" y="179" type="line" smooth="yes"/>
      <point x="217" y="132"/>
      <point x="233" y="50"/>
      <point x="245" y="3" type="curve"/>
      <point x="328" y="3" type="line"/>
      <point x="386" y="164"/>
      <point x="454" y="369"/>
      <point x="509" y="533" type="curve"/>
      <point x="559" y="371"/>
      <point x="625" y="154"/>
      <point x="667" y="3" type="curve"/>
      <point x="760" y="3" type="line"/>
      <point x="810" y="215"/>
      <point x="855" y="426"/>
      <point x="904" y="638" type="curve" smooth="yes"/>
      <point x="908" y="655"/>
      <point x="914" y="678"/>
      <point x="923" y="691" type="curve" smooth="yes"/>
      <point x="934" y="706"/>
      <point x="940" y="705"/>
      <point x="958" y="705" type="curve" smooth="yes"/>
      <point x="966" y="705"/>
      <point x="973" y="704"/>
      <point x="981" y="704" type="curve" smooth="yes"/>
      <point x="989" y="704"/>
      <point x="994" y="714"/>
    </contour>
  </outline>
</glyph>
<glyph name="X" format="2">
  <advance width="765"/>
  <unicode hex="0058"/>
  <note>
cid00057
</note>
  <outline>
    <contour>
      <point x="771" y="21" type="curve" smooth="yes"/>
      <point x="771" y="31"/>
      <point x="766" y="39"/>
      <point x="755" y="39" type="curve" smooth="yes"/>
      <point x="746" y="39"/>
      <point x="737" y="37"/>
      <point x="728" y="37" type="curve" smooth="yes"/>
      <point x="707" y="37"/>
      <point x="685" y="39"/>
      <point x="671" y="57" type="curve" smooth="yes"/>
      <point x="663" y="67" type="line" smooth="yes"/>
      <point x="630" y="108"/>
      <point x="600" y="151"/>
      <point x="570" y="193" type="curve" smooth="yes"/>
      <point x="523" y="261"/>
      <point x="477" y="330"/>
      <point x="429" y="397" type="curve"/>
      <point x="494" y="483"/>
      <point x="557" y="570"/>
      <point x="617" y="660" type="curve" smooth="yes"/>
      <point x="625" y="671"/>
      <point x="639" y="685"/>
      <point x="650" y="692" type="curve" smooth="yes"/>
      <point x="673" y="706"/>
      <point x="704" y="697"/>
      <point x="727" y="705" type="curve" smooth="yes"/>
      <point x="734" y="708"/>
      <point x="736" y="714"/>
      <point x="736" y="721" type="curve" smooth="yes"/>
      <point x="736" y="732"/>
      <point x="731" y="736"/>
      <point x="719" y="736" type="curve" smooth="yes"/>
      <point x="701" y="736"/>
      <point x="682" y="734"/>
      <point x="663" y="733" type="curve" smooth="yes"/>
      <point x="626" y="730"/>
      <point x="588" y="731"/>
      <point x="550" y="731" type="curve" smooth="yes"/>
      <point x="533" y="731"/>
      <point x="516" y="733"/>
      <point x="499" y="733" type="curve" smooth="yes"/>
      <point x="491" y="733"/>
      <point x="483" y="729"/>
      <point x="483" y="720" type="curve" smooth="yes"/>
      <point x="483" y="708"/>
      <point x="486" y="704"/>
      <point x="498" y="704" type="curve" smooth="yes"/>
      <point x="514" y="704"/>
      <point x="529" y="706"/>
      <point x="545" y="706" type="curve" smooth="yes"/>
      <point x="553" y="706"/>
      <point x="570" y="706"/>
      <point x="570" y="695" type="curve" smooth="yes"/>
      <point x="570" y="659"/>
      <point x="435" y="463"/>
      <point x="410" y="423" type="curve"/>
      <point x="356" y="517"/>
      <point x="300" y="611"/>
      <point x="243" y="704" type="curve" smooth="yes"/>
      <point x="234" y="717"/>
      <point x="223" y="735"/>
      <point x="205" y="735" type="curve" smooth="yes"/>
      <point x="187" y="735"/>
      <point x="169" y="733"/>
      <point x="151" y="731" type="curve" smooth="yes"/>
      <point x="120" y="729"/>
      <point x="68" y="729"/>
      <point x="40" y="723" type="curve" smooth="yes"/>
      <point x="30" y="721"/>
      <point x="28" y="712"/>
      <point x="28" y="702" type="curve" smooth="yes"/>
      <point x="28" y="692"/>
      <point x="41" y="689"/>
      <point x="49" y="689" type="curve" smooth="yes"/>
      <point x="64" y="689"/>
      <point x="78" y="690"/>
      <point x="93" y="690" type="curve" smooth="yes"/>
      <point x="114" y="690"/>
      <point x="121" y="688"/>
      <point x="133" y="669" type="curve" smooth="yes"/>
      <point x="207" y="561"/>
      <point x="277" y="451"/>
      <point x="349" y="342" type="curve"/>
      <point x="300" y="266"/>
      <point x="244" y="195"/>
      <point x="188" y="125" type="curve" smooth="yes"/>
      <point x="169" y="100"/>
      <point x="148" y="79"/>
      <point x="125" y="59" type="curve" smooth="yes"/>
      <point x="100" y="37"/>
      <point x="77" y="34"/>
      <point x="45" y="34" type="curve" smooth="yes"/>
      <point x="31" y="34"/>
      <point x="12" y="40"/>
      <point x="12" y="20" type="curve" smooth="yes"/>
      <point x="12" y="10"/>
      <point x="18" y="4"/>
      <point x="28" y="4" type="curve" smooth="yes"/>
      <point x="75" y="4"/>
      <point x="122" y="8"/>
      <point x="169" y="8" type="curve" smooth="yes"/>
      <point x="195" y="8"/>
      <point x="221" y="6"/>
      <point x="248" y="6" type="curve" smooth="yes"/>
      <point x="258" y="6"/>
      <point x="269" y="7"/>
      <point x="280" y="7" type="curve" smooth="yes"/>
      <point x="294" y="7"/>
      <point x="298" y="10"/>
      <point x="298" y="24" type="curve" smooth="yes"/>
      <point x="298" y="31"/>
      <point x="287" y="34"/>
      <point x="281" y="34" type="curve" smooth="yes"/>
      <point x="262" y="34"/>
      <point x="208" y="30"/>
      <point x="208" y="59" type="curve" smooth="yes"/>
      <point x="208" y="71"/>
      <point x="355" y="286"/>
      <point x="371" y="313" type="curve"/>
      <point x="430" y="219"/>
      <point x="500" y="122"/>
      <point x="547" y="22" type="curve" smooth="yes"/>
      <point x="553" y="9"/>
      <point x="560" y="5"/>
      <point x="575" y="5" type="curve" smooth="yes"/>
      <point x="630" y="5" type="line"/>
      <point x="688" y="5" type="line" smooth="yes"/>
      <point x="709" y="4"/>
      <point x="729" y="3"/>
      <point x="750" y="3" type="curve" smooth="yes"/>
      <point x="761" y="3"/>
      <point x="771" y="8"/>
    </contour>
  </outline>
</glyph>
<glyph name="Y" format="2">
  <advance width="715"/>
  <unicode hex="0059"/>
  <note>
cid00058
</note>
  <outline>
    <contour>
      <point x="708" y="722" type="curve" smooth="yes"/>
      <point x="708" y="728"/>
      <point x="702" y="737"/>
      <point x="694" y="737" type="curve" smooth="yes"/>
      <point x="667" y="737"/>
      <point x="641" y="734"/>
      <point x="614" y="734" type="curve" smooth="yes"/>
      <point x="577" y="734"/>
      <point x="540" y="737"/>
      <point x="504" y="737" type="curve" smooth="yes"/>
      <point x="494" y="737"/>
      <point x="483" y="737"/>
      <point x="483" y="723" type="curve" smooth="yes"/>
      <point x="483" y="715"/>
      <point x="488" y="708"/>
      <point x="496" y="708" type="curve" smooth="yes"/>
      <point x="513" y="708"/>
      <point x="531" y="710"/>
      <point x="548" y="710" type="curve" smooth="yes"/>
      <point x="556" y="710"/>
      <point x="564" y="708"/>
      <point x="564" y="698" type="curve" smooth="yes"/>
      <point x="564" y="690"/>
      <point x="551" y="661"/>
      <point x="532" y="624" type="curve" smooth="yes"/>
      <point x="485" y="532"/>
      <point x="399" y="386"/>
      <point x="382" y="358" type="curve"/>
      <point x="328" y="474"/>
      <point x="278" y="580"/>
      <point x="219" y="687" type="curve" smooth="yes"/>
      <point x="212" y="700"/>
      <point x="205" y="713"/>
      <point x="197" y="725" type="curve" smooth="yes"/>
      <point x="188" y="740"/>
      <point x="178" y="742"/>
      <point x="168" y="742" type="curve" smooth="yes"/>
      <point x="160" y="742"/>
      <point x="142" y="740"/>
      <point x="134" y="739" type="curve" smooth="yes"/>
      <point x="98" y="734"/>
      <point x="61" y="730"/>
      <point x="25" y="727" type="curve" smooth="yes"/>
      <point x="18" y="726"/>
      <point x="11" y="726"/>
      <point x="11" y="717" type="curve" smooth="yes"/>
      <point x="11" y="708"/>
      <point x="13" y="699"/>
      <point x="24" y="699" type="curve" smooth="yes"/>
      <point x="36" y="699"/>
      <point x="49" y="702"/>
      <point x="61" y="702" type="curve" smooth="yes"/>
      <point x="75" y="702"/>
      <point x="89" y="695"/>
      <point x="99" y="682" type="curve" smooth="yes"/>
      <point x="107" y="670"/>
      <point x="116" y="658"/>
      <point x="123" y="646" type="curve" smooth="yes"/>
      <point x="170" y="558"/>
      <point x="225" y="464"/>
      <point x="265" y="383" type="curve" smooth="yes"/>
      <point x="290" y="331"/>
      <point x="300" y="290"/>
      <point x="300" y="231" type="curve" smooth="yes"/>
      <point x="300" y="61" type="line" smooth="yes"/>
      <point x="300" y="33"/>
      <point x="261" y="36"/>
      <point x="242" y="36" type="curve" smooth="yes"/>
      <point x="233" y="36"/>
      <point x="224" y="37"/>
      <point x="214" y="37" type="curve" smooth="yes"/>
      <point x="206" y="37"/>
      <point x="198" y="32"/>
      <point x="198" y="24" type="curve" smooth="yes"/>
      <point x="198" y="12"/>
      <point x="204" y="8"/>
      <point x="214" y="8" type="curve" smooth="yes"/>
      <point x="245" y="8"/>
      <point x="308" y="11"/>
      <point x="363" y="11" type="curve" smooth="yes"/>
      <point x="389" y="11"/>
      <point x="429" y="11"/>
      <point x="455" y="10" type="curve" smooth="yes"/>
      <point x="469" y="10"/>
      <point x="484" y="9"/>
      <point x="498" y="9" type="curve" smooth="yes"/>
      <point x="510" y="9"/>
      <point x="513" y="16"/>
      <point x="513" y="26" type="curve" smooth="yes"/>
      <point x="513" y="33"/>
      <point x="511" y="39"/>
      <point x="502" y="39" type="curve" smooth="yes"/>
      <point x="483" y="39"/>
      <point x="464" y="36"/>
      <point x="444" y="36" type="curve" smooth="yes"/>
      <point x="410" y="36"/>
      <point x="411" y="65"/>
      <point x="411" y="94" type="curve" smooth="yes"/>
      <point x="411" y="146"/>
      <point x="410" y="201"/>
      <point x="410" y="253" type="curve" smooth="yes"/>
      <point x="410" y="278"/>
      <point x="411" y="304"/>
      <point x="411" y="329" type="curve"/>
      <point x="479" y="444"/>
      <point x="546" y="560"/>
      <point x="613" y="676" type="curve" smooth="yes"/>
      <point x="618" y="684"/>
      <point x="629" y="699"/>
      <point x="638" y="703" type="curve" smooth="yes"/>
      <point x="649" y="707"/>
      <point x="665" y="707"/>
      <point x="677" y="707" type="curve" smooth="yes"/>
      <point x="690" y="707"/>
      <point x="708" y="703"/>
    </contour>
  </outline>
</glyph>
<glyph name="Z" format="2">
  <advance width="662"/>
  <unicode hex="005A"/>
  <note>
cid00059
</note>
  <outline>
    <contour>
      <point x="625" y="235" type="curve" smooth="yes"/>
      <point x="625" y="243"/>
      <point x="618" y="247"/>
      <point x="611" y="247" type="curve" smooth="yes"/>
      <point x="598" y="247"/>
      <point x="597" y="241"/>
      <point x="594" y="231" type="curve" smooth="yes"/>
      <point x="571" y="152"/>
      <point x="518" y="67"/>
      <point x="430" y="59" type="curve" smooth="yes"/>
      <point x="375" y="53"/>
      <point x="319" y="51"/>
      <point x="264" y="51" type="curve" smooth="yes"/>
      <point x="245" y="51"/>
      <point x="207" y="50"/>
      <point x="190" y="53" type="curve" smooth="yes"/>
      <point x="180" y="56"/>
      <point x="167" y="61"/>
      <point x="167" y="73" type="curve" smooth="yes"/>
      <point x="167" y="88"/>
      <point x="189" y="116"/>
      <point x="198" y="129" type="curve" smooth="yes"/>
      <point x="595" y="689" type="line" smooth="yes"/>
      <point x="602" y="698"/>
      <point x="608" y="706"/>
      <point x="608" y="718" type="curve" smooth="yes"/>
      <point x="608" y="739"/>
      <point x="587" y="737"/>
      <point x="572" y="737" type="curve" smooth="yes"/>
      <point x="447" y="737"/>
      <point x="321" y="736"/>
      <point x="196" y="733" type="curve" smooth="yes"/>
      <point x="178" y="732"/>
      <point x="160" y="731"/>
      <point x="142" y="731" type="curve" smooth="yes"/>
      <point x="126" y="731"/>
      <point x="109" y="732"/>
      <point x="93" y="732" type="curve" smooth="yes"/>
      <point x="79" y="732"/>
      <point x="62" y="727"/>
      <point x="59" y="712" type="curve" smooth="yes"/>
      <point x="57" y="704"/>
      <point x="58" y="695"/>
      <point x="58" y="686" type="curve" smooth="yes"/>
      <point x="56" y="654"/>
      <point x="56" y="622"/>
      <point x="54" y="590" type="curve" smooth="yes"/>
      <point x="54" y="576"/>
      <point x="52" y="561"/>
      <point x="52" y="546" type="curve" smooth="yes"/>
      <point x="52" y="537"/>
      <point x="59" y="535"/>
      <point x="67" y="535" type="curve" smooth="yes"/>
      <point x="78" y="535"/>
      <point x="84" y="545"/>
      <point x="87" y="555" type="curve" smooth="yes"/>
      <point x="90" y="569"/>
      <point x="93" y="583"/>
      <point x="99" y="597" type="curve" smooth="yes"/>
      <point x="116" y="639"/>
      <point x="152" y="681"/>
      <point x="197" y="694" type="curve" smooth="yes"/>
      <point x="229" y="704"/>
      <point x="360" y="705"/>
      <point x="400" y="705" type="curve" smooth="yes"/>
      <point x="410" y="705"/>
      <point x="454" y="704"/>
      <point x="454" y="688" type="curve" smooth="yes"/>
      <point x="454" y="668"/>
      <point x="438" y="642"/>
      <point x="428" y="627" type="curve" smooth="yes"/>
      <point x="344" y="494"/>
      <point x="253" y="365"/>
      <point x="161" y="237" type="curve" smooth="yes"/>
      <point x="72" y="112" type="line" smooth="yes"/>
      <point x="59" y="94"/>
      <point x="46" y="77"/>
      <point x="34" y="59" type="curve" smooth="yes"/>
      <point x="31" y="54"/>
      <point x="30" y="47"/>
      <point x="30" y="41" type="curve" smooth="yes"/>
      <point x="30" y="20"/>
      <point x="42" y="12"/>
      <point x="62" y="12" type="curve" smooth="yes"/>
      <point x="88" y="12"/>
      <point x="116" y="14"/>
      <point x="143" y="15" type="curve" smooth="yes"/>
      <point x="198" y="16"/>
      <point x="253" y="17"/>
      <point x="308" y="17" type="curve" smooth="yes"/>
      <point x="519" y="17" type="line" smooth="yes"/>
      <point x="537" y="16"/>
      <point x="561" y="19"/>
      <point x="578" y="12" type="curve"/>
      <point x="588" y="12" type="line" smooth="yes"/>
      <point x="597" y="12"/>
      <point x="601" y="14"/>
      <point x="602" y="25" type="curve" smooth="yes"/>
      <point x="605" y="48"/>
      <point x="604" y="77"/>
      <point x="608" y="103" type="curve" smooth="yes"/>
      <point x="611" y="132"/>
      <point x="615" y="160"/>
      <point x="619" y="189" type="curve" smooth="yes"/>
      <point x="620" y="204"/>
      <point x="625" y="220"/>
    </contour>
  </outline>
</glyph>
<glyph name="bracketleft" format="2">
  <advance width="446"/>
  <unicode hex="005B"/>
  <note>
cid00060
</note>
  <outline>
    <contour>
      <point x="175" y="-98" type="line"/>
      <point x="429" y="-98" type="line"/>
      <point x="429" y="-61" type="line"/>
      <point x="250" y="-61" type="line"/>
      <point x="250" y="765" type="line"/>
      <point x="429" y="765" type="line"/>
      <point x="429" y="803" type="line"/>
      <point x="175" y="803" type="line"/>
    </contour>
  </outline>
</glyph>
<glyph name="backslash" format="2">
  <advance width="500"/>
  <unicode hex="005C"/>
  <note>
cid00097
</note>
  <outline>
    <contour>
      <point x="409" y="-93" type="line"/>
      <point x="464" y="-62" type="line"/>
      <point x="93" y="768" type="line"/>
      <point x="36" y="736" type="line"/>
    </contour>
  </outline>
</glyph>
<glyph name="bracketright" format="2">
  <advance width="441"/>
  <unicode hex="005D"/>
  <note>
cid00062
</note>
  <outline>
    <contour>
      <point x="24" y="-98" type="line"/>
      <point x="277" y="-98" type="line"/>
      <point x="277" y="803" type="line"/>
      <point x="24" y="803" type="line"/>
      <point x="24" y="765" type="line"/>
      <point x="202" y="765" type="line"/>
      <point x="202" y="-61" type="line"/>
      <point x="24" y="-61" type="line"/>
    </contour>
  </outline>
</glyph>
<glyph name="asciicircum" format="2">
  <advance width="552"/>
  <unicode hex="005E"/>
  <note>
cid00063
</note>
  <outline>
    <contour>
      <point x="433" y="457" type="line"/>
      <point x="512" y="457" type="line"/>
      <point x="316" y="726" type="line"/>
      <point x="236" y="726" type="line"/>
      <point x="40" y="457" type="line"/>
      <point x="115" y="457" type="line"/>
      <point x="275" y="687" type="line"/>
    </contour>
  </outline>
</glyph>
<glyph name="underscore" format="2">
  <advance width="500"/>
  <unicode hex="005F"/>
  <unicode hex="0332"/>
  <note>
cid00064
</note>
  <outline>
    <contour>
      <point x="24" y="-115" type="line"/>
      <point x="476" y="-115" type="line"/>
      <point x="476" y="-79" type="line"/>
      <point x="24" y="-79" type="line"/>
    </contour>
  </outline>
</glyph>
<glyph name="grave" format="2">
  <advance width="390"/>
  <unicode hex="0060"/>
  <unicode hex="0300"/>
  <note>
cid00065
</note>
  <outline>
    <contour>
      <point x="265" y="590" type="curve" smooth="yes"/>
      <point x="265" y="609"/>
      <point x="223" y="806"/>
      <point x="216" y="824" type="curve" smooth="yes"/>
      <point x="209" y="841"/>
      <point x="195" y="848"/>
      <point x="177" y="848" type="curve" smooth="yes"/>
      <point x="153" y="848"/>
      <point x="124" y="833"/>
      <point x="124" y="807" type="curve" smooth="yes"/>
      <point x="124" y="802"/>
      <point x="125" y="797"/>
      <point x="126" y="793" type="curve" smooth="yes"/>
      <point x="130" y="781"/>
      <point x="138" y="770"/>
      <point x="143" y="759" type="curve" smooth="yes"/>
      <point x="154" y="740"/>
      <point x="164" y="721"/>
      <point x="173" y="702" type="curve" smooth="yes"/>
      <point x="185" y="679"/>
      <point x="226" y="599"/>
      <point x="241" y="582" type="curve"/>
      <point x="245" y="579"/>
      <point x="250" y="575"/>
      <point x="255" y="575" type="curve" smooth="yes"/>
      <point x="263" y="575"/>
      <point x="265" y="584"/>
    </contour>
  </outline>
</glyph>
<glyph name="a" format="2">
  <advance width="536"/>
  <unicode hex="0061"/>
  <note>
cid00066
</note>
  <outline>
    <contour>
      <point x="531" y="51" type="curve" smooth="yes"/>
      <point x="532" y="58"/>
      <point x="530" y="59"/>
      <point x="524" y="58" type="curve" smooth="yes"/>
      <point x="514" y="55"/>
      <point x="502" y="53"/>
      <point x="491" y="53" type="curve" smooth="yes"/>
      <point x="486" y="53"/>
      <point x="480" y="54"/>
      <point x="475" y="54" type="curve" smooth="yes"/>
      <point x="452" y="54"/>
      <point x="449" y="90"/>
      <point x="448" y="106" type="curve" smooth="yes"/>
      <point x="447" y="143"/>
      <point x="446" y="180"/>
      <point x="446" y="217" type="curve" smooth="yes"/>
      <point x="446" y="368" type="line" smooth="yes"/>
      <point x="446" y="476"/>
      <point x="371" y="540"/>
      <point x="267" y="540" type="curve" smooth="yes"/>
      <point x="238" y="540"/>
      <point x="194" y="534"/>
      <point x="167" y="525" type="curve" smooth="yes"/>
      <point x="133" y="514"/>
      <point x="86" y="483"/>
      <point x="72" y="449" type="curve" smooth="yes"/>
      <point x="69" y="443"/>
      <point x="68" y="434"/>
      <point x="68" y="427" type="curve" smooth="yes"/>
      <point x="68" y="398"/>
      <point x="93" y="388"/>
      <point x="118" y="388" type="curve" smooth="yes"/>
      <point x="126" y="388"/>
      <point x="136" y="396"/>
      <point x="138" y="404" type="curve"/>
      <point x="141" y="410"/>
      <point x="142" y="417"/>
      <point x="144" y="424" type="curve" smooth="yes"/>
      <point x="160" y="481"/>
      <point x="194" y="514"/>
      <point x="256" y="514" type="curve" smooth="yes"/>
      <point x="291" y="514"/>
      <point x="319" y="487"/>
      <point x="335" y="457" type="curve" smooth="yes"/>
      <point x="354" y="421"/>
      <point x="353" y="372"/>
      <point x="354" y="333" type="curve"/>
      <point x="294" y="321"/>
      <point x="231" y="313"/>
      <point x="175" y="290" type="curve" smooth="yes"/>
      <point x="109" y="263"/>
      <point x="40" y="216"/>
      <point x="40" y="136" type="curve" smooth="yes"/>
      <point x="40" y="56"/>
      <point x="106" y="10"/>
      <point x="185" y="10" type="curve" smooth="yes"/>
      <point x="212" y="10"/>
      <point x="239" y="14"/>
      <point x="265" y="24" type="curve" smooth="yes"/>
      <point x="294" y="36"/>
      <point x="341" y="67"/>
      <point x="364" y="88" type="curve"/>
      <point x="379" y="39"/>
      <point x="402" y="7"/>
      <point x="458" y="7" type="curve" smooth="yes"/>
      <point x="482" y="7"/>
      <point x="502" y="14"/>
      <point x="519" y="28" type="curve" smooth="yes"/>
      <point x="524" y="33"/>
      <point x="531" y="46"/>
    </contour>
    <contour>
      <point x="359" y="123" type="curve"/>
      <point x="330" y="95"/>
      <point x="268" y="58"/>
      <point x="227" y="58" type="curve" smooth="yes"/>
      <point x="166" y="58"/>
      <point x="130" y="91"/>
      <point x="130" y="153" type="curve" smooth="yes"/>
      <point x="130" y="251"/>
      <point x="259" y="303"/>
      <point x="341" y="302" type="curve" smooth="yes"/>
      <point x="353" y="302" type="line"/>
      <point x="357" y="198" type="line" smooth="yes"/>
      <point x="358" y="173"/>
      <point x="358" y="148"/>
    </contour>
  </outline>
</glyph>
<glyph name="b" format="2">
  <advance width="605"/>
  <unicode hex="0062"/>
  <note>
cid00067
</note>
  <outline>
    <contour>
      <point x="579" y="284" type="curve" smooth="yes"/>
      <point x="579" y="417"/>
      <point x="505" y="535"/>
      <point x="363" y="535" type="curve" smooth="yes"/>
      <point x="310" y="535"/>
      <point x="247" y="512"/>
      <point x="207" y="477" type="curve"/>
      <point x="207" y="748" type="line" smooth="yes"/>
      <point x="207" y="756"/>
      <point x="211" y="773"/>
      <point x="198" y="773" type="curve" smooth="yes"/>
      <point x="190" y="773"/>
      <point x="181" y="769"/>
      <point x="173" y="767" type="curve" smooth="yes"/>
      <point x="150" y="761"/>
      <point x="126" y="757"/>
      <point x="102" y="753" type="curve" smooth="yes"/>
      <point x="78" y="748"/>
      <point x="57" y="745"/>
      <point x="33" y="740" type="curve" smooth="yes"/>
      <point x="26" y="739"/>
      <point x="16" y="734"/>
      <point x="16" y="725" type="curve" smooth="yes"/>
      <point x="16" y="716"/>
      <point x="24" y="713"/>
      <point x="32" y="714" type="curve" smooth="yes"/>
      <point x="51" y="715"/>
      <point x="66" y="717"/>
      <point x="85" y="717" type="curve" smooth="yes"/>
      <point x="112" y="717"/>
      <point x="112" y="705"/>
      <point x="112" y="681" type="curve" smooth="yes"/>
      <point x="115" y="232" type="line" smooth="yes"/>
      <point x="115" y="199"/>
      <point x="114" y="166"/>
      <point x="114" y="133" type="curve" smooth="yes"/>
      <point x="114" y="108"/>
      <point x="113" y="82"/>
      <point x="110" y="57" type="curve" smooth="yes"/>
      <point x="110" y="52"/>
      <point x="109" y="47"/>
      <point x="109" y="42" type="curve" smooth="yes"/>
      <point x="109" y="29"/>
      <point x="115" y="23"/>
      <point x="129" y="23" type="curve" smooth="yes"/>
      <point x="139" y="23"/>
      <point x="149" y="25"/>
      <point x="160" y="25" type="curve" smooth="yes"/>
      <point x="183" y="25"/>
      <point x="203" y="19"/>
      <point x="225" y="15" type="curve" smooth="yes"/>
      <point x="250" y="10"/>
      <point x="275" y="6"/>
      <point x="300" y="6" type="curve" smooth="yes"/>
      <point x="462" y="6"/>
      <point x="579" y="119"/>
    </contour>
    <contour>
      <point x="473" y="285" type="curve" smooth="yes"/>
      <point x="473" y="161"/>
      <point x="420" y="35"/>
      <point x="280" y="35" type="curve" smooth="yes"/>
      <point x="261" y="35"/>
      <point x="222" y="39"/>
      <point x="213" y="58" type="curve" smooth="yes"/>
      <point x="206" y="72"/>
      <point x="207" y="94"/>
      <point x="207" y="110" type="curve" smooth="yes"/>
      <point x="207" y="207" type="line"/>
      <point x="208" y="374" type="line" smooth="yes"/>
      <point x="208" y="410"/>
      <point x="223" y="436"/>
      <point x="248" y="460" type="curve" smooth="yes"/>
      <point x="265" y="477"/>
      <point x="306" y="495"/>
      <point x="331" y="495" type="curve" smooth="yes"/>
      <point x="444" y="495"/>
      <point x="473" y="379"/>
    </contour>
  </outline>
</glyph>
<glyph name="c" format="2">
  <advance width="535"/>
  <unicode hex="0063"/>
  <note>
cid00068
</note>
  <outline>
    <contour>
      <point x="524" y="127" type="curve" smooth="yes"/>
      <point x="524" y="136"/>
      <point x="517" y="141"/>
      <point x="509" y="141" type="curve" smooth="yes"/>
      <point x="506" y="141"/>
      <point x="501" y="140"/>
      <point x="499" y="138" type="curve" smooth="yes"/>
      <point x="495" y="135"/>
      <point x="492" y="129"/>
      <point x="489" y="126" type="curve" smooth="yes"/>
      <point x="481" y="116"/>
      <point x="472" y="108"/>
      <point x="463" y="100" type="curve" smooth="yes"/>
      <point x="418" y="58"/>
      <point x="370" y="41"/>
      <point x="309" y="41" type="curve" smooth="yes"/>
      <point x="189" y="41"/>
      <point x="144" y="167"/>
      <point x="144" y="270" type="curve" smooth="yes"/>
      <point x="144" y="373"/>
      <point x="190" y="520"/>
      <point x="315" y="520" type="curve" smooth="yes"/>
      <point x="341" y="520"/>
      <point x="373" y="506"/>
      <point x="392" y="489" type="curve" smooth="yes"/>
      <point x="423" y="463"/>
      <point x="440" y="417"/>
      <point x="450" y="378" type="curve" smooth="yes"/>
      <point x="452" y="369"/>
      <point x="456" y="356"/>
      <point x="467" y="356" type="curve" smooth="yes"/>
      <point x="479" y="356"/>
      <point x="488" y="359"/>
      <point x="488" y="373" type="curve" smooth="yes"/>
      <point x="488" y="382" type="line" smooth="yes"/>
      <point x="485" y="425"/>
      <point x="483" y="469"/>
      <point x="480" y="512" type="curve"/>
      <point x="471" y="508"/>
      <point x="459" y="505"/>
      <point x="449" y="505" type="curve" smooth="yes"/>
      <point x="429" y="505"/>
      <point x="398" y="521"/>
      <point x="378" y="529" type="curve" smooth="yes"/>
      <point x="354" y="538"/>
      <point x="327" y="544"/>
      <point x="301" y="544" type="curve" smooth="yes"/>
      <point x="256" y="544"/>
      <point x="209" y="530"/>
      <point x="170" y="507" type="curve" smooth="yes"/>
      <point x="84" y="455"/>
      <point x="46" y="362"/>
      <point x="46" y="263" type="curve" smooth="yes"/>
      <point x="46" y="110"/>
      <point x="152" y="4"/>
      <point x="302" y="4" type="curve" smooth="yes"/>
      <point x="354" y="4"/>
      <point x="417" y="28"/>
      <point x="459" y="58" type="curve" smooth="yes"/>
      <point x="477" y="70"/>
      <point x="511" y="101"/>
      <point x="522" y="119" type="curve" smooth="yes"/>
      <point x="524" y="122"/>
      <point x="524" y="124"/>
    </contour>
  </outline>
</glyph>
<glyph name="d" format="2">
  <advance width="602"/>
  <unicode hex="0064"/>
  <note>
cid00069
</note>
  <outline>
    <contour>
      <point x="592" y="42" type="curve" smooth="yes"/>
      <point x="592" y="47"/>
      <point x="588" y="51"/>
      <point x="583" y="51" type="curve" smooth="yes"/>
      <point x="577" y="51"/>
      <point x="558" y="48"/>
      <point x="552" y="48" type="curve" smooth="yes"/>
      <point x="538" y="48"/>
      <point x="526" y="53"/>
      <point x="517" y="64" type="curve" smooth="yes"/>
      <point x="507" y="76"/>
      <point x="503" y="108"/>
      <point x="503" y="123" type="curve" smooth="yes"/>
      <point x="503" y="271" type="line" smooth="yes"/>
      <point x="503" y="435"/>
      <point x="505" y="599"/>
      <point x="505" y="763" type="curve" smooth="yes"/>
      <point x="505" y="771"/>
      <point x="502" y="776"/>
      <point x="493" y="776" type="curve" smooth="yes"/>
      <point x="491" y="776"/>
      <point x="490" y="775"/>
      <point x="488" y="775" type="curve"/>
      <point x="428" y="758"/>
      <point x="376" y="752"/>
      <point x="316" y="743" type="curve" smooth="yes"/>
      <point x="308" y="742"/>
      <point x="299" y="739"/>
      <point x="299" y="729" type="curve" smooth="yes"/>
      <point x="299" y="723"/>
      <point x="307" y="717"/>
      <point x="313" y="718" type="curve"/>
      <point x="326" y="718"/>
      <point x="387" y="723"/>
      <point x="399" y="710" type="curve" smooth="yes"/>
      <point x="405" y="703"/>
      <point x="406" y="688"/>
      <point x="406" y="680" type="curve" smooth="yes"/>
      <point x="406" y="492" type="line"/>
      <point x="382" y="512"/>
      <point x="328" y="533"/>
      <point x="297" y="533" type="curve" smooth="yes"/>
      <point x="133" y="533"/>
      <point x="44" y="418"/>
      <point x="44" y="258" type="curve" smooth="yes"/>
      <point x="44" y="170"/>
      <point x="82" y="82"/>
      <point x="158" y="34" type="curve" smooth="yes"/>
      <point x="192" y="13"/>
      <point x="237" y="9"/>
      <point x="277" y="9" type="curve" smooth="yes"/>
      <point x="331" y="9"/>
      <point x="386" y="46"/>
      <point x="414" y="93" type="curve"/>
      <point x="430" y="50"/>
      <point x="452" y="3"/>
      <point x="505" y="3" type="curve" smooth="yes"/>
      <point x="524" y="3"/>
      <point x="592" y="17"/>
    </contour>
    <contour>
      <point x="408" y="373" type="curve" smooth="yes"/>
      <point x="408" y="187" type="line" smooth="yes"/>
      <point x="408" y="146"/>
      <point x="391" y="112"/>
      <point x="362" y="83" type="curve" smooth="yes"/>
      <point x="343" y="63"/>
      <point x="311" y="44"/>
      <point x="282" y="44" type="curve" smooth="yes"/>
      <point x="168" y="44"/>
      <point x="145" y="173"/>
      <point x="145" y="263" type="curve" smooth="yes"/>
      <point x="145" y="365"/>
      <point x="173" y="502"/>
      <point x="299" y="502" type="curve" smooth="yes"/>
      <point x="371" y="502"/>
      <point x="408" y="439"/>
    </contour>
  </outline>
</glyph>
<glyph name="f" format="2">
  <advance width="389"/>
  <unicode hex="0066"/>
  <note>
cid00071
</note>
  <outline>
    <contour>
      <point x="410" y="637" type="curve" smooth="yes"/>
      <point x="410" y="668"/>
      <point x="405" y="699"/>
      <point x="404" y="729" type="curve"/>
      <point x="367" y="730"/>
      <point x="338" y="751"/>
      <point x="300" y="751" type="curve" smooth="yes"/>
      <point x="186" y="751"/>
      <point x="116" y="709"/>
      <point x="116" y="585" type="curve" smooth="yes"/>
      <point x="116" y="557"/>
      <point x="116" y="531"/>
      <point x="117" y="503" type="curve"/>
      <point x="65" y="503" type="line" smooth="yes"/>
      <point x="56" y="503"/>
      <point x="29" y="507"/>
      <point x="24" y="497" type="curve" smooth="yes"/>
      <point x="22" y="493"/>
      <point x="18" y="472"/>
      <point x="18" y="468" type="curve" smooth="yes"/>
      <point x="18" y="462"/>
      <point x="24" y="460"/>
      <point x="28" y="460" type="curve" smooth="yes"/>
      <point x="32" y="460"/>
      <point x="35" y="461"/>
      <point x="37" y="464" type="curve"/>
      <point x="45" y="469"/>
      <point x="55" y="470"/>
      <point x="64" y="470" type="curve" smooth="yes"/>
      <point x="119" y="470" type="line"/>
      <point x="119" y="90" type="line" smooth="yes"/>
      <point x="119" y="56"/>
      <point x="112" y="35"/>
      <point x="76" y="35" type="curve" smooth="yes"/>
      <point x="66" y="35"/>
      <point x="58" y="36"/>
      <point x="49" y="36" type="curve" smooth="yes"/>
      <point x="37" y="36"/>
      <point x="25" y="35"/>
      <point x="25" y="20" type="curve" smooth="yes"/>
      <point x="25" y="9"/>
      <point x="33" y="6"/>
      <point x="43" y="6" type="curve" smooth="yes"/>
      <point x="61" y="6"/>
      <point x="74" y="9"/>
      <point x="93" y="9" type="curve" smooth="yes"/>
      <point x="117" y="10"/>
      <point x="141" y="10"/>
      <point x="165" y="10" type="curve" smooth="yes"/>
      <point x="213" y="10"/>
      <point x="256" y="9"/>
      <point x="304" y="6" type="curve"/>
      <point x="310" y="9"/>
      <point x="317" y="13"/>
      <point x="317" y="21" type="curve" smooth="yes"/>
      <point x="317" y="29"/>
      <point x="311" y="33"/>
      <point x="305" y="36" type="curve"/>
      <point x="289" y="36"/>
      <point x="278" y="35"/>
      <point x="261" y="35" type="curve" smooth="yes"/>
      <point x="229" y="35"/>
      <point x="219" y="61"/>
      <point x="219" y="90" type="curve" smooth="yes"/>
      <point x="219" y="470" type="line"/>
      <point x="262" y="470" type="line" smooth="yes"/>
      <point x="288" y="470"/>
      <point x="314" y="469"/>
      <point x="341" y="469" type="curve" smooth="yes"/>
      <point x="352" y="468"/>
      <point x="358" y="477"/>
      <point x="358" y="488" type="curve" smooth="yes"/>
      <point x="358" y="499"/>
      <point x="352" y="506"/>
      <point x="341" y="506" type="curve" smooth="yes"/>
      <point x="299" y="505"/>
      <point x="257" y="505"/>
      <point x="215" y="505" type="curve"/>
      <point x="214" y="550"/>
      <point x="213" y="595"/>
      <point x="213" y="640" type="curve" smooth="yes"/>
      <point x="213" y="686"/>
      <point x="236" y="725"/>
      <point x="285" y="725" type="curve" smooth="yes"/>
      <point x="314" y="725"/>
      <point x="332" y="708"/>
      <point x="342" y="682" type="curve" smooth="yes"/>
      <point x="349" y="663"/>
      <point x="357" y="645"/>
      <point x="364" y="626" type="curve" smooth="yes"/>
      <point x="367" y="616"/>
      <point x="375" y="613"/>
      <point x="385" y="613" type="curve" smooth="yes"/>
      <point x="397" y="613"/>
      <point x="410" y="624"/>
    </contour>
  </outline>
</glyph>
<glyph name="g" format="2">
  <advance width="554"/>
  <unicode hex="0067"/>
  <note>
cid00072
</note>
  <outline>
    <contour>
      <point x="545" y="523" type="curve" smooth="yes"/>
      <point x="545" y="534"/>
      <point x="545" y="547"/>
      <point x="533" y="551" type="curve"/>
      <point x="497" y="526"/>
      <point x="414" y="526"/>
      <point x="372" y="526" type="curve" smooth="yes"/>
      <point x="370" y="526"/>
      <point x="345" y="535"/>
      <point x="339" y="536" type="curve" smooth="yes"/>
      <point x="317" y="541"/>
      <point x="293" y="545"/>
      <point x="270" y="545" type="curve" smooth="yes"/>
      <point x="180" y="545"/>
      <point x="70" y="488"/>
      <point x="70" y="385" type="curve" smooth="yes"/>
      <point x="70" y="311"/>
      <point x="105" y="267"/>
      <point x="171" y="237" type="curve"/>
      <point x="150" y="218"/>
      <point x="128" y="200"/>
      <point x="108" y="178" type="curve" smooth="yes"/>
      <point x="96" y="165"/>
      <point x="82" y="154"/>
      <point x="82" y="134" type="curve" smooth="yes"/>
      <point x="82" y="115"/>
      <point x="115" y="100"/>
      <point x="128" y="96" type="curve"/>
      <point x="92" y="69"/>
      <point x="46" y="24"/>
      <point x="46" y="-27" type="curve" smooth="yes"/>
      <point x="46" y="-124"/>
      <point x="211" y="-128"/>
      <point x="275" y="-128" type="curve" smooth="yes"/>
      <point x="354" y="-128"/>
      <point x="514" y="-98"/>
      <point x="514" y="12" type="curve" smooth="yes"/>
      <point x="514" y="92"/>
      <point x="433" y="116"/>
      <point x="371" y="121" type="curve" smooth="yes"/>
      <point x="248" y="129" type="line" smooth="yes"/>
      <point x="229" y="131"/>
      <point x="172" y="135"/>
      <point x="172" y="164" type="curve" smooth="yes"/>
      <point x="172" y="187"/>
      <point x="199" y="207"/>
      <point x="215" y="219" type="curve"/>
      <point x="235" y="217"/>
      <point x="255" y="216"/>
      <point x="275" y="216" type="curve" smooth="yes"/>
      <point x="362" y="216"/>
      <point x="465" y="277"/>
      <point x="465" y="374" type="curve" smooth="yes"/>
      <point x="465" y="424"/>
      <point x="445" y="472"/>
      <point x="404" y="501" type="curve"/>
      <point x="432" y="500"/>
      <point x="460" y="499"/>
      <point x="488" y="499" type="curve" smooth="yes"/>
      <point x="507" y="499"/>
      <point x="545" y="495"/>
    </contour>
    <contour>
      <point x="366" y="381" type="curve" smooth="yes"/>
      <point x="366" y="321"/>
      <point x="350" y="238"/>
      <point x="275" y="238" type="curve" smooth="yes"/>
      <point x="185" y="238"/>
      <point x="170" y="303"/>
      <point x="170" y="381" type="curve" smooth="yes"/>
      <point x="170" y="453"/>
      <point x="190" y="522"/>
      <point x="275" y="522" type="curve" smooth="yes"/>
      <point x="349" y="522"/>
      <point x="366" y="440"/>
    </contour>
    <contour>
      <point x="412" y="1" type="curve" smooth="yes"/>
      <point x="412" y="-78"/>
      <point x="343" y="-99"/>
      <point x="280" y="-99" type="curve" smooth="yes"/>
      <point x="214" y="-99"/>
      <point x="131" y="-95"/>
      <point x="131" y="-3" type="curve" smooth="yes"/>
      <point x="131" y="39"/>
      <point x="144" y="65"/>
      <point x="171" y="94" type="curve"/>
      <point x="279" y="83" type="line" smooth="yes"/>
      <point x="331" y="79"/>
      <point x="412" y="77"/>
    </contour>
  </outline>
</glyph>
<glyph name="h" format="2">
  <advance width="639"/>
  <unicode hex="0068"/>
  <note>
cid00073
</note>
  <outline>
    <contour>
      <point x="629" y="18" type="curve" smooth="yes"/>
      <point x="629" y="26"/>
      <point x="622" y="34"/>
      <point x="614" y="34" type="curve" smooth="yes"/>
      <point x="605" y="34"/>
      <point x="595" y="31"/>
      <point x="586" y="31" type="curve" smooth="yes"/>
      <point x="566" y="31"/>
      <point x="555" y="38"/>
      <point x="555" y="59" type="curve" smooth="yes"/>
      <point x="556" y="158"/>
      <point x="557" y="257"/>
      <point x="557" y="356" type="curve" smooth="yes"/>
      <point x="557" y="483"/>
      <point x="516" y="537"/>
      <point x="385" y="537" type="curve" smooth="yes"/>
      <point x="323" y="537"/>
      <point x="241" y="487"/>
      <point x="200" y="442" type="curve"/>
      <point x="201" y="549"/>
      <point x="201" y="656"/>
      <point x="201" y="763" type="curve" smooth="yes"/>
      <point x="201" y="771"/>
      <point x="197" y="775"/>
      <point x="189" y="775" type="curve" smooth="yes"/>
      <point x="176" y="775"/>
      <point x="120" y="759"/>
      <point x="100" y="755" type="curve" smooth="yes"/>
      <point x="77" y="752"/>
      <point x="53" y="747"/>
      <point x="30" y="742" type="curve" smooth="yes"/>
      <point x="22" y="740"/>
      <point x="20" y="736"/>
      <point x="20" y="728" type="curve" smooth="yes"/>
      <point x="20" y="721"/>
      <point x="26" y="718"/>
      <point x="33" y="718" type="curve" smooth="yes"/>
      <point x="52" y="718"/>
      <point x="72" y="723"/>
      <point x="91" y="723" type="curve" smooth="yes"/>
      <point x="109" y="723"/>
      <point x="110" y="700"/>
      <point x="110" y="687" type="curve" smooth="yes"/>
      <point x="111" y="603"/>
      <point x="112" y="518"/>
      <point x="112" y="433" type="curve" smooth="yes"/>
      <point x="112" y="188" type="line" smooth="yes"/>
      <point x="112" y="145"/>
      <point x="111" y="102"/>
      <point x="111" y="59" type="curve" smooth="yes"/>
      <point x="111" y="36"/>
      <point x="84" y="33"/>
      <point x="67" y="33" type="curve" smooth="yes"/>
      <point x="59" y="33"/>
      <point x="50" y="34"/>
      <point x="42" y="34" type="curve" smooth="yes"/>
      <point x="35" y="34"/>
      <point x="29" y="29"/>
      <point x="29" y="22" type="curve" smooth="yes"/>
      <point x="29" y="16"/>
      <point x="35" y="5"/>
      <point x="41" y="5" type="curve" smooth="yes"/>
      <point x="46" y="5"/>
      <point x="52" y="7"/>
      <point x="57" y="7" type="curve" smooth="yes"/>
      <point x="91" y="10"/>
      <point x="127" y="9"/>
      <point x="161" y="9" type="curve" smooth="yes"/>
      <point x="194" y="9"/>
      <point x="228" y="6"/>
      <point x="261" y="6" type="curve" smooth="yes"/>
      <point x="267" y="6"/>
      <point x="274" y="11"/>
      <point x="274" y="17" type="curve" smooth="yes"/>
      <point x="274" y="27"/>
      <point x="271" y="33"/>
      <point x="261" y="33" type="curve" smooth="yes"/>
      <point x="249" y="33"/>
      <point x="236" y="31"/>
      <point x="223" y="31" type="curve" smooth="yes"/>
      <point x="207" y="31"/>
      <point x="201" y="45"/>
      <point x="200" y="59" type="curve" smooth="yes"/>
      <point x="198" y="95"/>
      <point x="199" y="132"/>
      <point x="199" y="169" type="curve" smooth="yes"/>
      <point x="200" y="288" type="line" smooth="yes"/>
      <point x="200" y="309"/>
      <point x="199" y="331"/>
      <point x="202" y="352" type="curve" smooth="yes"/>
      <point x="207" y="387"/>
      <point x="228" y="413"/>
      <point x="250" y="439" type="curve" smooth="yes"/>
      <point x="279" y="472"/>
      <point x="324" y="500"/>
      <point x="369" y="500" type="curve" smooth="yes"/>
      <point x="405" y="500"/>
      <point x="438" y="479"/>
      <point x="450" y="445" type="curve" smooth="yes"/>
      <point x="459" y="419"/>
      <point x="460" y="372"/>
      <point x="460" y="345" type="curve" smooth="yes"/>
      <point x="460" y="322"/>
      <point x="461" y="299"/>
      <point x="461" y="276" type="curve" smooth="yes"/>
      <point x="461" y="204"/>
      <point x="461" y="131"/>
      <point x="459" y="59" type="curve" smooth="yes"/>
      <point x="458" y="44"/>
      <point x="449" y="32"/>
      <point x="433" y="32" type="curve" smooth="yes"/>
      <point x="419" y="32"/>
      <point x="405" y="33"/>
      <point x="391" y="33" type="curve" smooth="yes"/>
      <point x="382" y="33"/>
      <point x="382" y="24"/>
      <point x="382" y="17" type="curve" smooth="yes"/>
      <point x="382" y="12"/>
      <point x="387" y="6"/>
      <point x="392" y="6" type="curve" smooth="yes"/>
      <point x="406" y="6"/>
      <point x="421" y="7"/>
      <point x="436" y="8" type="curve" smooth="yes"/>
      <point x="460" y="10"/>
      <point x="485" y="9"/>
      <point x="509" y="9" type="curve" smooth="yes"/>
      <point x="544" y="9"/>
      <point x="578" y="6"/>
      <point x="612" y="6" type="curve" smooth="yes"/>
      <point x="618" y="6"/>
      <point x="629" y="10"/>
    </contour>
  </outline>
</glyph>
<glyph name="j" format="2">
  <advance width="372"/>
  <unicode hex="006A"/>
  <note>
cid00075
</note>
  <outline>
    <contour>
      <point x="279" y="706" type="curve" smooth="yes"/>
      <point x="279" y="742"/>
      <point x="249" y="768"/>
      <point x="215" y="768" type="curve" smooth="yes"/>
      <point x="181" y="768"/>
      <point x="151" y="742"/>
      <point x="151" y="706" type="curve" smooth="yes"/>
      <point x="151" y="671"/>
      <point x="181" y="645"/>
      <point x="215" y="645" type="curve" smooth="yes"/>
      <point x="249" y="645"/>
      <point x="279" y="671"/>
    </contour>
    <contour>
      <point x="275" y="534" type="curve" smooth="yes"/>
      <point x="275" y="541"/>
      <point x="272" y="545"/>
      <point x="265" y="545" type="curve" smooth="yes"/>
      <point x="262" y="545"/>
      <point x="260" y="544"/>
      <point x="257" y="544" type="curve"/>
      <point x="220" y="535"/>
      <point x="182" y="528"/>
      <point x="144" y="522" type="curve" smooth="yes"/>
      <point x="125" y="519"/>
      <point x="105" y="518"/>
      <point x="87" y="514" type="curve" smooth="yes"/>
      <point x="79" y="512"/>
      <point x="77" y="506"/>
      <point x="77" y="499" type="curve" smooth="yes"/>
      <point x="77" y="495"/>
      <point x="86" y="489"/>
      <point x="89" y="489" type="curve" smooth="yes"/>
      <point x="107" y="490"/>
      <point x="125" y="493"/>
      <point x="142" y="493" type="curve" smooth="yes"/>
      <point x="147" y="493"/>
      <point x="154" y="493"/>
      <point x="159" y="491" type="curve" smooth="yes"/>
      <point x="171" y="485"/>
      <point x="173" y="471"/>
      <point x="173" y="459" type="curve" smooth="yes"/>
      <point x="173" y="-33" type="line"/>
      <point x="173" y="-44" type="line" smooth="yes"/>
      <point x="173" y="-104"/>
      <point x="127" y="-138"/>
      <point x="70" y="-138" type="curve" smooth="yes"/>
      <point x="41" y="-138"/>
      <point x="26" y="-114"/>
      <point x="16" y="-90" type="curve" smooth="yes"/>
      <point x="11" y="-77"/>
      <point x="7" y="-69"/>
      <point x="-9" y="-69" type="curve" smooth="yes"/>
      <point x="-36" y="-69"/>
      <point x="-51" y="-80"/>
      <point x="-51" y="-109" type="curve" smooth="yes"/>
      <point x="-51" y="-119"/>
      <point x="-40" y="-137"/>
      <point x="-32" y="-144" type="curve" smooth="yes"/>
      <point x="-7" y="-167"/>
      <point x="31" y="-169"/>
      <point x="63" y="-169" type="curve" smooth="yes"/>
      <point x="136" y="-169"/>
      <point x="211" y="-142"/>
      <point x="249" y="-73" type="curve" smooth="yes"/>
      <point x="282" y="-12"/>
      <point x="274" y="97"/>
      <point x="274" y="164" type="curve" smooth="yes"/>
      <point x="274" y="278"/>
      <point x="275" y="421"/>
    </contour>
  </outline>
</glyph>
<glyph name="k" format="2">
  <advance width="593"/>
  <unicode hex="006B"/>
  <note>
cid00076
</note>
  <outline>
    <contour>
      <point x="590" y="22" type="curve" smooth="yes"/>
      <point x="590" y="31"/>
      <point x="585" y="32"/>
      <point x="578" y="33" type="curve" smooth="yes"/>
      <point x="568" y="35"/>
      <point x="558" y="39"/>
      <point x="548" y="46" type="curve" smooth="yes"/>
      <point x="530" y="58"/>
      <point x="514" y="75"/>
      <point x="504" y="89" type="curve" smooth="yes"/>
      <point x="456" y="156"/>
      <point x="353" y="307"/>
      <point x="321" y="364" type="curve"/>
      <point x="378" y="410"/>
      <point x="457" y="468"/>
      <point x="495" y="496" type="curve" smooth="yes"/>
      <point x="513" y="510"/>
      <point x="532" y="508"/>
      <point x="554" y="511" type="curve"/>
      <point x="561" y="511"/>
      <point x="566" y="513"/>
      <point x="566" y="521" type="curve" smooth="yes"/>
      <point x="566" y="532"/>
      <point x="560" y="538"/>
      <point x="549" y="538" type="curve" smooth="yes"/>
      <point x="533" y="538"/>
      <point x="516" y="536"/>
      <point x="500" y="536" type="curve" smooth="yes"/>
      <point x="488" y="536"/>
      <point x="473" y="538"/>
      <point x="460" y="538" type="curve" smooth="yes"/>
      <point x="452" y="538"/>
      <point x="446" y="536"/>
      <point x="441" y="530" type="curve" smooth="yes"/>
      <point x="429" y="512"/>
      <point x="400" y="484"/>
      <point x="382" y="467" type="curve" smooth="yes"/>
      <point x="329" y="419"/>
      <point x="257" y="358"/>
      <point x="196" y="313" type="curve"/>
      <point x="196" y="772" type="line" smooth="yes"/>
      <point x="196" y="777"/>
      <point x="194" y="779"/>
      <point x="189" y="779" type="curve" smooth="yes"/>
      <point x="188" y="779"/>
      <point x="186" y="779"/>
      <point x="185" y="778" type="curve"/>
      <point x="160" y="773"/>
      <point x="135" y="768"/>
      <point x="110" y="764" type="curve" smooth="yes"/>
      <point x="81" y="760"/>
      <point x="64" y="755"/>
      <point x="30" y="750" type="curve" smooth="yes"/>
      <point x="23" y="749"/>
      <point x="20" y="747"/>
      <point x="20" y="739" type="curve" smooth="yes"/>
      <point x="20" y="735"/>
      <point x="28" y="729"/>
      <point x="32" y="729" type="curve" smooth="yes"/>
      <point x="46" y="729"/>
      <point x="51" y="732"/>
      <point x="66" y="732" type="curve" smooth="yes"/>
      <point x="96" y="732"/>
      <point x="103" y="725"/>
      <point x="103" y="694" type="curve" smooth="yes"/>
      <point x="103" y="56" type="line" smooth="yes"/>
      <point x="103" y="33"/>
      <point x="92" y="32"/>
      <point x="72" y="32" type="curve" smooth="yes"/>
      <point x="67" y="32"/>
      <point x="58" y="33"/>
      <point x="49" y="33" type="curve" smooth="yes"/>
      <point x="39" y="33"/>
      <point x="30" y="29"/>
      <point x="30" y="21" type="curve" smooth="yes"/>
      <point x="30" y="15"/>
      <point x="35" y="7"/>
      <point x="42" y="7" type="curve" smooth="yes"/>
      <point x="56" y="7"/>
      <point x="64" y="8"/>
      <point x="78" y="9" type="curve" smooth="yes"/>
      <point x="102" y="10"/>
      <point x="125" y="10"/>
      <point x="148" y="10" type="curve" smooth="yes"/>
      <point x="185" y="10"/>
      <point x="221" y="8"/>
      <point x="258" y="8" type="curve" smooth="yes"/>
      <point x="266" y="8"/>
      <point x="272" y="12"/>
      <point x="272" y="21" type="curve" smooth="yes"/>
      <point x="272" y="29"/>
      <point x="260" y="34"/>
      <point x="253" y="34" type="curve" smooth="yes"/>
      <point x="242" y="34"/>
      <point x="230" y="33"/>
      <point x="219" y="33" type="curve" smooth="yes"/>
      <point x="205" y="33"/>
      <point x="196" y="41"/>
      <point x="196" y="56" type="curve" smooth="yes"/>
      <point x="196" y="278" type="line"/>
      <point x="251" y="318" type="line"/>
      <point x="300" y="240"/>
      <point x="370" y="126"/>
      <point x="422" y="45" type="curve" smooth="yes"/>
      <point x="432" y="30"/>
      <point x="444" y="15"/>
      <point x="461" y="11" type="curve" smooth="yes"/>
      <point x="481" y="5"/>
      <point x="504" y="6"/>
      <point x="525" y="6" type="curve" smooth="yes"/>
      <point x="531" y="6"/>
      <point x="556" y="7"/>
      <point x="572" y="9" type="curve" smooth="yes"/>
      <point x="582" y="11"/>
      <point x="590" y="16"/>
    </contour>
  </outline>
</glyph>
<glyph name="l" format="2">
  <advance width="340"/>
  <unicode hex="006C"/>
  <note>
cid00077
</note>
  <outline>
    <contour>
      <point x="317" y="23" type="curve" smooth="yes"/>
      <point x="317" y="27"/>
      <point x="313" y="39"/>
      <point x="308" y="39" type="curve" smooth="yes"/>
      <point x="294" y="39"/>
      <point x="280" y="36"/>
      <point x="266" y="36" type="curve" smooth="yes"/>
      <point x="250" y="36"/>
      <point x="228" y="44"/>
      <point x="228" y="63" type="curve" smooth="yes"/>
      <point x="228" y="168"/>
      <point x="227" y="273"/>
      <point x="227" y="378" type="curve" smooth="yes"/>
      <point x="227" y="643" type="line"/>
      <point x="227" y="757" type="line" smooth="yes"/>
      <point x="227" y="765"/>
      <point x="225" y="771"/>
      <point x="216" y="771" type="curve" smooth="yes"/>
      <point x="213" y="771"/>
      <point x="210" y="770"/>
      <point x="208" y="770" type="curve"/>
      <point x="167" y="755"/>
      <point x="124" y="744"/>
      <point x="82" y="734" type="curve" smooth="yes"/>
      <point x="66" y="730"/>
      <point x="48" y="728"/>
      <point x="33" y="723" type="curve" smooth="yes"/>
      <point x="25" y="720"/>
      <point x="24" y="714"/>
      <point x="24" y="707" type="curve" smooth="yes"/>
      <point x="24" y="702"/>
      <point x="33" y="699"/>
      <point x="36" y="699" type="curve" smooth="yes"/>
      <point x="58" y="699"/>
      <point x="83" y="710"/>
      <point x="105" y="710" type="curve" smooth="yes"/>
      <point x="112" y="710"/>
      <point x="119" y="708"/>
      <point x="123" y="703" type="curve" smooth="yes"/>
      <point x="129" y="696"/>
      <point x="129" y="685"/>
      <point x="129" y="677" type="curve" smooth="yes"/>
      <point x="129" y="572"/>
      <point x="131" y="470"/>
      <point x="131" y="365" type="curve" smooth="yes"/>
      <point x="131" y="264"/>
      <point x="129" y="164"/>
      <point x="129" y="63" type="curve" smooth="yes"/>
      <point x="129" y="43"/>
      <point x="112" y="36"/>
      <point x="95" y="36" type="curve" smooth="yes"/>
      <point x="83" y="36"/>
      <point x="69" y="38"/>
      <point x="56" y="36" type="curve" smooth="yes"/>
      <point x="49" y="35"/>
      <point x="47" y="29"/>
      <point x="47" y="24" type="curve" smooth="yes"/>
      <point x="47" y="18"/>
      <point x="49" y="7"/>
      <point x="57" y="7" type="curve" smooth="yes"/>
      <point x="71" y="7"/>
      <point x="86" y="9"/>
      <point x="100" y="9" type="curve" smooth="yes"/>
      <point x="126" y="11"/>
      <point x="151" y="11"/>
      <point x="176" y="11" type="curve" smooth="yes"/>
      <point x="219" y="11"/>
      <point x="261" y="7"/>
      <point x="303" y="7" type="curve" smooth="yes"/>
      <point x="311" y="7"/>
      <point x="317" y="15"/>
    </contour>
  </outline>
</glyph>
